<?xml version="1.0" encoding="UTF-8" standalone="no"?>
<!-- Created with Inkscape (http://www.inkscape.org/) -->

<svg
   width="1642.428"
   height="1506.063"
   viewBox="0 0 1642.428 1506.063"
   version="1.1"
   id="SVGRoot"
   xml:space="preserve"
   sodipodi:docname="icon_Camada 1_copy_1.svg"
   inkscape:export-filename="..\..\..\..\GitHub\Fussionics\assets\img\buttons\login\icons.svg"
   inkscape:export-xdpi="44.829929"
   inkscape:export-ydpi="44.829929"
   xmlns:inkscape="http://www.inkscape.org/namespaces/inkscape"
   xmlns:sodipodi="http://sodipodi.sourceforge.net/DTD/sodipodi-0.dtd"
   xmlns="http://www.w3.org/2000/svg"
   xmlns:svg="http://www.w3.org/2000/svg"><sodipodi:namedview
     id="namedview5267"
     pagecolor="#ffffff"
     bordercolor="#000000"
     borderopacity="0.25"
     inkscape:showpageshadow="2"
     inkscape:pageopacity="0.0"
     inkscape:pagecheckerboard="0"
     inkscape:deskcolor="#d1d1d1"
     showgrid="false"
     showguides="true" /><defs
     id="defs2057" /><path
     d="m 97.853925,124.90949 c 0.157642,0.0901 0.279005,0.16689 0.558219,0.34589 0.172482,0.11057 0.36437,0.2328 0.56114,0.34033 0.183079,0.0703 0.375079,0.10822 0.540633,0.13673 0.154222,0.0266 0.371817,0.0575 0.550923,0.0986 0.0799,0.0155 0.1454,0.0285 0.18276,0.036 -0.0374,-0.007 -0.10288,-0.0205 -0.18276,-0.036 -0.179106,-0.041 -0.396701,-0.072 -0.550923,-0.0986 -0.165554,-0.0285 -0.357554,-0.0664 -0.540633,-0.13673 -0.19677,-0.10753 -0.388658,-0.22976 -0.56114,-0.34033 -0.279214,-0.179 -0.400577,-0.25579 -0.558219,-0.34589 z"
     id="path-1"
     style="fill:#b3b3b3;fill-rule:nonzero;stroke:none;stroke-linecap:square;stroke-miterlimit:4.8"
     inkscape:export-filename="..\..\..\..\GitHub\Fussionics\assets\img\buttons\login\icons.svg"
     inkscape:export-xdpi="2.1285961"
     inkscape:export-ydpi="2.1285961" /><path
     style="fill:#b3b3b3;fill-rule:evenodd;stroke:none;stroke-linecap:square;stroke-miterlimit:4.8"
     d="m 104.31684,128.5 53.85759,2.39367"
     id="path5832" /><path
     style="fill:#b3b3b3;fill-rule:evenodd;stroke:none;stroke-linecap:square;stroke-miterlimit:4.8"
     d="m 105.99241,129.45747 -9.814055,-2.15431"
     id="path5841" /><path
     d="m 128.3074,125.2465 c -0.1408,-3.61128 -0.35286,-11.14497 4.85685,-18.82995 1.31755,-1.94355 2.87588,-3.80586 4.66656,-5.51197 2.53969,-2.419746 6.08783,-5.032932 10.64595,-6.758324 0.107,-0.0405 0.21341,-0.08255 0.31919,-0.12613 4.28982,-1.767292 9.27917,-3.062732 14.74525,-3.557188 5.01687,-0.45382 10.25928,-0.213302 15.38156,0.857213 4.92528,1.029342 9.5787,2.79323 13.68482,5.281438 4.05582,2.457729 7.52279,5.586671 10.2497,9.373241 2.2634,3.24991 3.65073,6.83772 4.43241,10.24673 0.77081,3.36164 0.98886,7.18351 0.97933,8.99603 11.42834,0 5.29471,0.0851 11.84485,0.11959 6.55014,0.0345 11.77124,0.78632 11.79078,-2.44004 0.0312,-5.92321 -0.76716,-17.91294 -9.64331,-30.589143 -0.0254,-0.03632 -0.0511,-0.07249 -0.0769,-0.108514 -4.72559,-6.590262 -10.64763,-11.87857 -17.27688,-15.89573 -6.63455,-4.02038 -13.85234,-6.694568 -21.12954,-8.215445 -7.56003,-1.579982 -15.1715,-1.914256 -22.37503,-1.262633 -7.7928,0.704927 -15.05334,2.551765 -21.49121,5.185758 -8.06183,3.081265 -14.15229,7.612701 -18.45269,11.710027 -3.05257,2.908422 -5.70064,6.074087 -7.94002,9.377463 -4.28807,6.325437 -6.85557,12.811487 -8.2341,18.726027 -1.37126,5.88335 -3.31001,11.87097 -0.27764,13.02808 1.01338,0.3867 6.84255,0.4611 11.24424,0.4031 6.44492,-0.0849 6.8852,-0.01 11.91749,-0.01 z"
     id="path-1-3"
     style="fill:#b3b3b3;stroke-width:0.836969;stroke-linecap:square;stroke-miterlimit:4.8" /><path
     d="m 470.38279,124.73503 c -0.1408,-3.61128 -0.35286,-11.14497 4.85685,-18.82995 1.31755,-1.94356 2.87588,-3.80586 4.66656,-5.51197 2.53969,-2.419749 6.08783,-5.032935 10.64595,-6.758327 0.107,-0.0405 0.21341,-0.08255 0.31919,-0.12613 4.28983,-1.767292 9.27917,-3.062732 14.74525,-3.557188 5.01687,-0.45382 10.25928,-0.213302 15.38156,0.857213 4.92528,1.029342 9.5787,2.79323 13.68482,5.281438 4.05582,2.457729 7.52279,5.586674 10.2497,9.373244 2.2634,3.2499 3.65073,6.83772 4.43241,10.24673 0.77081,3.36164 0.98886,7.18351 0.97933,8.99603 11.42834,0 5.29471,0.0851 11.84485,0.11959 6.55014,0.0345 11.77124,0.78631 11.79078,-2.44004 0.0312,-5.92321 -0.76716,-17.91295 -9.64331,-30.589146 -0.0254,-0.03632 -0.0511,-0.07249 -0.0769,-0.108514 -4.72559,-6.590262 -10.64763,-11.87857 -17.27688,-15.89573 -6.63455,-4.02038 -13.85234,-6.694568 -21.12954,-8.215445 -7.56003,-1.579982 -15.1715,-1.914256 -22.37503,-1.262633 -7.7928,0.704927 -15.05334,2.551765 -21.49121,5.185758 -8.06183,3.081265 -14.15228,7.612701 -18.45269,11.710027 -3.05257,2.908422 -5.70064,6.074087 -7.94002,9.377463 -4.28807,6.325437 -6.85557,12.81149 -8.2341,18.72603 -1.37126,5.88335 -3.31001,11.87096 -0.27764,13.02808 1.01338,0.38669 6.84255,0.46109 11.24424,0.40309 6.44492,-0.0849 6.8852,-0.01 11.91749,-0.01 z"
     id="path-1-3-1"
     style="fill:#b3b3b3;stroke-width:0.836969;stroke-linecap:square;stroke-miterlimit:4.8" /><rect
     style="fill:#b3b3b3;fill-rule:evenodd;stroke:none;stroke-width:9.139;stroke-linecap:square;stroke-linejoin:round;stroke-miterlimit:4.8;stroke-dasharray:none;stroke-opacity:1"
     id="rect4007"
     width="169.93513"
     height="129.31319"
     x="84"
     y="130.42245"
     rx="26.919277"
     ry="26.919277" /><path
     d="m 340.95841,122.96017 c 0.15764,0.0901 0.279,0.16689 0.55822,0.34589 0.17248,0.11057 0.36437,0.2328 0.56114,0.34033 0.18308,0.0703 0.37508,0.10822 0.54063,0.13673 0.15422,0.0266 0.37182,0.0575 0.55093,0.0986 0.0799,0.0155 0.14533,0.0285 0.18275,0.036 -0.0374,-0.008 -0.10281,-0.0205 -0.18275,-0.036 -0.17911,-0.041 -0.39671,-0.072 -0.55093,-0.0986 -0.16555,-0.0285 -0.35755,-0.0664 -0.54063,-0.13673 -0.19677,-0.10753 -0.38866,-0.22976 -0.56114,-0.34033 -0.27922,-0.179 -0.40058,-0.25579 -0.55822,-0.34589 z"
     id="path-1-1"
     style="fill:#b3b3b3;fill-rule:nonzero;stroke:none;stroke-linecap:square;stroke-miterlimit:4.8" /><path
     style="fill:#b3b3b3;fill-rule:evenodd;stroke:none;stroke-linecap:square;stroke-miterlimit:4.8"
     d="m 347.42132,126.55068 53.85759,2.39367"
     id="path5832-1" /><path
     style="fill:#b3b3b3;fill-rule:evenodd;stroke:none;stroke-linecap:square;stroke-miterlimit:4.8"
     d="m 349.09689,127.50815 -9.81405,-2.15431"
     id="path5841-9" /><rect
     style="fill:#b3b3b3;fill-rule:evenodd;stroke:none;stroke-width:9.139;stroke-linecap:square;stroke-linejoin:round;stroke-miterlimit:4.8;stroke-dasharray:none;stroke-opacity:1"
     id="rect4007-2"
     width="169.93513"
     height="129.31319"
     x="327.24283"
     y="130.40974"
     rx="26.919277"
     ry="26.919277" /><path
     style="fill:#b3b3b3;fill-rule:evenodd;stroke:none;stroke-width:0;stroke-linecap:square;stroke-linejoin:round;stroke-miterlimit:4.8;stroke-dasharray:none;stroke-opacity:1"
     id="path6828"
     d="M 85.548204,572.06286 A 80.027473,124.20261 0 0 1 165.57568,447.86025 80.027473,124.20261 0 0 1 245.60315,572.06286 H 165.57568 Z" /><circle
     style="mix-blend-mode:normal;fill:#b3b3b3;fill-rule:evenodd;stroke:none;stroke-width:10.385;stroke-linecap:square;stroke-linejoin:miter;stroke-miterlimit:4.8;stroke-dasharray:none;stroke-opacity:1"
     id="path6824"
     r="57.574905"
     cy="405.2117"
     cx="165.75618" /><path
     style="fill:#b3b3b3;fill-opacity:1;fill-rule:evenodd;stroke:none;stroke-width:4.485;stroke-linecap:square;stroke-linejoin:round;stroke-miterlimit:4.8;stroke-dasharray:none;stroke-opacity:1"
     d="m 413.85088,412.59371 c 13.47037,-13.47037 26.05492,-26.9595 46.69523,-26.9595 25.03714,0 51.08195,36.25108 44.60186,60.4351 -12.35719,46.11766 -91.02043,107.89656 -91.02043,107.89656 0,0 -80.17905,-61.79427 -92.68038,-108.44987 -6.37757,-23.8014 19.62424,-59.20478 44.26526,-59.20478 19.29722,0 36.21677,14.3608 48.13846,26.28249 z"
     id="path13849" /><path
     style="fill:#b3b3b3;fill-opacity:1;fill-rule:evenodd;stroke:none;stroke-width:10.385;stroke-linecap:square;stroke-linejoin:miter;stroke-miterlimit:4.8;stroke-dasharray:none;stroke-opacity:1"
     d="m 547.66714,560.57504 c -4.04165,-4.03502 -3.8654,-16.6915 -3.8654,-16.6915 l 8.2579,-0.1757 40.58672,-43.92502 -8.6093,-8.78501 c 0,0 -6.05397,7.42211 -10.54201,-0.3514 -4.37632,-7.58 4.3925,-10.0149 4.3925,-10.0149 7.84055,0.18007 13.64581,3.41425 20.38121,8.6093 l 75.35776,-103.51883 52.80145,-3.47868 -3.47868,52.30449 -103.61509,75.66138 c 6.39331,7.45537 8.75528,14.80597 7.95128,21.61754 0,0 -3.96205,8.83768 -11.5542,1.36662 -4.20624,-4.13916 1.6151,-9.3179 1.6151,-9.3179 l -8.57247,-8.32399 -43.35931,40.75029 -0.12424,8.324 c 0,0 -13.35758,0.20796 -17.62322,-4.05069 z"
     id="path20296" /><path
     sodipodi:type="star"
     style="fill:#b3b3b3;fill-opacity:1;fill-rule:evenodd;stroke-width:10.385;stroke-linecap:square;stroke-miterlimit:4.8"
     id="path3768"
     inkscape:flatsided="false"
     sodipodi:sides="5"
     sodipodi:cx="715.68097"
     sodipodi:cy="102.73346"
     sodipodi:r1="152.07166"
     sodipodi:r2="82.747604"
     sodipodi:arg1="0.94698198"
     sodipodi:arg2="1.5753005"
     inkscape:rounded="0.03"
     inkscape:randomized="0"
     d="m 804.5114,226.16337 c -2.38731,1.7181 -86.2619,-40.6699 -89.20314,-40.68315 -2.94124,-0.0132 -87.19427,41.61747 -89.566,39.87794 -2.37173,-1.73954 12.02298,-94.60763 11.12669,-97.40901 -0.8963,-2.80138 -66.52508,-70.066177 -65.60359,-72.859372 0.92149,-2.793194 93.69251,-17.800829 96.07981,-19.51893 2.3873,-1.718102 46.07951,-84.920749 49.02076,-84.907501 2.94124,0.01325 45.88217,83.606109 48.25389,85.345646 2.37173,1.739537 95.00379,17.582267 95.90008,20.38365 0.8963,2.801382 -65.33576,69.472247 -66.25725,72.265437 -0.9215,2.7932 12.63605,95.78719 10.24875,97.50529 z"
     inkscape:transform-center-x="0.18917114"
     inkscape:transform-center-y="13.340354"
     transform="matrix(0.7611586,0,0,0.7611586,357.0951,389.37192)" /><path
     style="fill:#b3b3b3;fill-opacity:1;fill-rule:evenodd;stroke-width:16.9746;stroke-linecap:square;stroke-miterlimit:4.8"
     id="path7699"
     sodipodi:type="arc"
     sodipodi:cx="1130.9955"
     sodipodi:cy="548.23926"
     sodipodi:rx="22.577654"
     sodipodi:ry="22.577654"
     sodipodi:start="0.0052625742"
     sodipodi:end="0.0050562378"
     sodipodi:arc-type="slice"
     d="m 1153.5728,548.35807 a 22.577654,22.577654 0 0 1 -22.695,22.45854 22.577654,22.577654 0 0 1 -22.4597,-22.69384 22.577654,22.577654 0 0 1 22.6927,-22.46087 22.577654,22.577654 0 0 1 22.462,22.69152 l -22.5773,-0.11416 z" /><path
     style="fill:#b3b3b3;fill-opacity:1;fill-rule:evenodd;stroke:none;stroke-width:16.9746;stroke-linecap:square;stroke-miterlimit:4.8"
     d="m 1130.3347,515.3305 c -8.5849,0 -12.4683,-4.65045 -14.0451,-10.53513 -9.4574,-35.29534 -21.8339,-121.12278 -21.8339,-121.12278 2.1522,-22.18936 12.3318,-36.91452 36.4074,-38.71897 23.0088,2.14464 34.132,16.88364 35.5405,39.29688 0,0 -12.2115,85.81365 -21.5081,120.50875 -1.5013,5.60282 -5.1695,10.57125 -14.5608,10.57125 z"
     id="path9236"
     sodipodi:nodetypes="sscccss"
     inkscape:export-filename="..\..\..\..\GitHub\Fussionics\assets\img\buttons\login\icons.svg"
     inkscape:export-xdpi="2.1285961"
     inkscape:export-ydpi="2.1285961" /><path
     style="fill:#b3b3b3;fill-rule:evenodd;stroke:none;stroke-width:10.385;stroke-linecap:square;stroke-miterlimit:4.8"
     d="m 1386,388 1,13"
     id="path12373" /><path
     style="fill:#b3b3b3;fill-rule:evenodd;stroke:none;stroke-width:10.385;stroke-linecap:square;stroke-miterlimit:4.8"
     d="m 16.47054,151.89191 1,13"
     id="path12373-5" /><rect
     style="opacity:0;fill:#b3b3b3;fill-opacity:1;fill-rule:evenodd;stroke:none;stroke-width:10.385;stroke-linecap:square;stroke-miterlimit:4.8;stroke-opacity:1"
     id="rect22671"
     width="76.367531"
     height="97.580734"
     x="1331.6622"
     y="311.06812"
     rx="26.919277"
     ry="26.919277" /><path
     style="opacity:1;fill:none;fill-opacity:0.555556;fill-rule:evenodd;stroke:#b3b3b3;stroke-width:26.0006;stroke-linecap:round;stroke-miterlimit:4.8;stroke-dasharray:none;stroke-opacity:1"
     d="m 883.43643,677.22482 c -2.45133,-21.81181 -1.77336,-23.9158 3.14156,-45.68996 5.20207,-6.50714 13.77767,-9.99263 23.89721,-9.89824 10.24519,0.0956 18.18402,4.25797 22.26151,11.27364 7.30332,21.5351 6.90228,44.25839 -2.22853,66.04719 -4.7335,7.69849 -10.00716,11.10042 -21.25746,11.12419"
     id="path23320"
     sodipodi:nodetypes="ccsccc" /><path
     style="fill:none;fill-opacity:0.555556;fill-rule:evenodd;stroke:#b3b3b3;stroke-width:26.0006;stroke-linecap:round;stroke-miterlimit:4.8;stroke-dasharray:none;stroke-opacity:1"
     d="m 940.80452,781.86237 c 9.42317,19.85533 0.48822,43.6361 -9.08266,58.61465 -10.79108,7.6969 -12.26714,6.93617 -21.04099,7.19891 -8.86844,-0.5561 -15.21675,-2.15093 -23.86216,-11.2836 -9.90654,-21.36234 -7.12886,-72.79971 14.86977,-75.63964"
     id="path23320-3"
     sodipodi:nodetypes="ccccc" /><path
     style="fill:none;fill-opacity:1;fill-rule:evenodd;stroke:#b3b3b3;stroke-width:26.0006;stroke-linecap:square;stroke-miterlimit:4.8;stroke-dasharray:none;stroke-opacity:1"
     d="m 623.39577,721.58194 c -8.86844,0.26669 -17.12013,0.55489 -21.5229,-7.16357 -10.49981,-18.40667 -13.27097,-51.59839 -1.14982,-71.38322 4.6103,-7.52548 13.36068,-10.03732 23.89721,-9.89823 10.24474,0.13523 18.18402,4.25796 22.26151,11.27363 11.8995,20.47445 9.02359,52.03657 -2.58208,70.99694 -4.73351,7.6985 -12.13007,6.46023 -20.90392,6.17445 z"
     id="path23320-4"
     sodipodi:nodetypes="cccsccc" /><path
     style="fill:none;fill-opacity:1;fill-rule:evenodd;stroke:#b3b3b3;stroke-width:26.0006;stroke-linecap:square;stroke-miterlimit:4.8;stroke-dasharray:none;stroke-opacity:1"
     d="m 622.34947,857.31889 c -8.88464,-0.14774 -16.98294,-1.70781 -21.38571,-9.42626 -10.49994,-18.40669 -13.27097,-51.59829 -1.14982,-71.38323 4.6103,-7.52538 13.36793,-9.4832 23.89721,-9.89812 10.22245,0.68885 18.1839,4.25785 22.26126,11.27352 11.89963,20.47444 9.02385,52.03656 -2.58196,70.99694 -4.7335,7.69849 -12.26441,8.58309 -21.04098,8.43715 z"
     id="path23320-3-1"
     sodipodi:nodetypes="scccccs" /><path
     style="fill:#b3b3b3;fill-opacity:0.555556;fill-rule:evenodd;stroke:#b3b3b3;stroke-width:26.0006;stroke-linecap:round;stroke-linejoin:round;stroke-miterlimit:4.8;stroke-dasharray:none;stroke-opacity:1"
     d="m 623.36507,785.06668 -0.30176,-83.01967"
     id="path24070-1"
     sodipodi:nodetypes="cc" /><path
     style="opacity:1;fill:#b3b3b3;fill-opacity:1;fill-rule:evenodd;stroke:none;stroke-width:5.4;stroke-linecap:round;stroke-linejoin:round;stroke-miterlimit:4.8;stroke-dasharray:none;stroke-opacity:1"
     d="m 923.1875,767.5625 c 0.0468,-6.66667 -3.4905,-15.02083 -6.75,-21.1875 7.93766,0.27416 20.89153,4.37655 27.1875,13.1875 -8.20011,1.45031 -15.50183,4.62573 -20.4375,8 z"
     id="path33080"
     sodipodi:nodetypes="cccc" /><path
     style="fill:#b3b3b3;fill-opacity:1;fill-rule:evenodd;stroke:none;stroke-width:23.7;stroke-linecap:round;stroke-linejoin:round;stroke-miterlimit:4.8;stroke-dasharray:none;stroke-opacity:1"
     d="m 896.20971,691.30362 c -3.12142,5.90311 -7.48076,18.40881 -3.08623,24.78185 -7.31894,-1.24643 -18.09052,-13.1947 -20.23224,-22.00565 7.79668,3.56291 17.83283,2.78812 23.31847,-2.7762 z"
     id="path33080-4"
     sodipodi:nodetypes="cccc" /><path
     style="opacity:1;fill:#b3b3b3;fill-opacity:1;fill-rule:evenodd;stroke:none;stroke-width:5.4;stroke-linecap:round;stroke-linejoin:round;stroke-miterlimit:4.8;stroke-dasharray:none;stroke-opacity:1"
     d="m 897.75,721.5 c 2.9852,4.1041 7.68247,6.64499 14.5,7.25 l 1.125,15.5 c -5.63525,-2.34632 -11.28781,-4.43291 -17.25,-1.875 z"
     id="path33857"
     sodipodi:nodetypes="ccccc" /><path
     style="opacity:1;fill:#b3b3b3;fill-opacity:1;fill-rule:evenodd;stroke:none;stroke-width:21.8527;stroke-linecap:round;stroke-linejoin:miter;stroke-miterlimit:4.8;stroke-dasharray:none;stroke-opacity:1"
     d="m 165.70563,813.67839 82.57869,-0.6256 v -9.38394 l -18.76788,-18.76789 c -2.47076,-31.57207 8.44168,-64.90509 -14.07591,-93.83943 -8.80016,-10.28053 -19.45995,-18.70141 -34.72059,-22.52146 0,0 3.68804,-21.93381 -15.62419,-21.93381 -16.72465,0 -14.09163,21.62101 -14.09163,21.62101 -15.08501,3.85641 -26.14032,12.54848 -35.34619,23.45986 -21.948893,26.09368 -10.28596,61.60169 -12.82472,92.90103 l -19.706279,19.70629 v 9.07114 z"
     id="path36229"
     sodipodi:nodetypes="ccccccscccccc" /><path
     style="opacity:1;fill:#b3b3b3;fill-opacity:1;fill-rule:evenodd;stroke:none;stroke-width:43.635;stroke-linecap:round;stroke-linejoin:miter;stroke-miterlimit:4.8;stroke-dasharray:none;stroke-opacity:1"
     d="m 137.32812,815.46285 h 58.08815 c 0,0 -10.39344,20.06374 -30.36109,20.06374 -19.39955,0 -27.72706,-20.06374 -27.72706,-20.06374 z"
     id="path36957"
     sodipodi:nodetypes="ccsc" /><path
     style="opacity:1;fill:#b3b3b3;fill-opacity:1;fill-rule:evenodd;stroke:none;stroke-width:24.7;stroke-linecap:round;stroke-linejoin:miter;stroke-miterlimit:4.8;stroke-dasharray:none;stroke-opacity:1"
     id="path37094"
     sodipodi:type="arc"
     sodipodi:cx="415.07169"
     sodipodi:cy="735.39105"
     sodipodi:rx="21.213203"
     sodipodi:ry="21.213203"
     sodipodi:start="0.0052625742"
     sodipodi:end="0.0050562378"
     sodipodi:arc-type="slice"
     d="m 436.2846,735.50269 a 21.213203,21.213203 0 0 1 -21.32346,21.10128 21.213203,21.213203 0 0 1 -21.10238,-21.32236 21.213203,21.213203 0 0 1 21.32128,-21.10348 21.213203,21.213203 0 0 1 21.10458,21.32018 l -21.21293,-0.10726 z" /><path
     style="opacity:1;fill:#b3b3b3;fill-opacity:1;fill-rule:evenodd;stroke:#b3b3b3;stroke-width:36.4142;stroke-linecap:round;stroke-linejoin:miter;stroke-miterlimit:4.8;stroke-dasharray:none;stroke-opacity:1"
     d="m 1200.1213,736.47628 -98.0757,-0.15635"
     id="path37232"
     sodipodi:nodetypes="cc" /><rect
     style="opacity:1;fill:#b3b3b3;fill-opacity:1;fill-rule:evenodd;stroke:none;stroke-width:35.5607;stroke-linecap:round;stroke-linejoin:miter;stroke-miterlimit:4.8;stroke-dasharray:none;stroke-opacity:1"
     id="rect38096"
     width="69.562828"
     height="72.983948"
     x="1198.0216"
     y="699.25018"
     rx="9.2416182"
     ry="9.2416182" /><rect
     style="fill:#b3b3b3;fill-opacity:1;fill-rule:evenodd;stroke:none;stroke-width:35.5607;stroke-linecap:round;stroke-linejoin:miter;stroke-miterlimit:4.8;stroke-dasharray:none;stroke-opacity:1"
     id="rect38096-2"
     width="69.562828"
     height="72.983948"
     x="1037.198"
     y="699.97009"
     rx="9.5951719"
     ry="9.5951719" /><rect
     style="fill:#b3b3b3;fill-opacity:1;fill-rule:evenodd;stroke:none;stroke-width:35.5607;stroke-linecap:round;stroke-linejoin:miter;stroke-miterlimit:4.8;stroke-dasharray:none;stroke-opacity:1"
     id="rect38096-3"
     width="69.562828"
     height="72.983948"
     x="1482.4713"
     y="698.53912"
     rx="9.2416182"
     ry="9.2416182" /><rect
     style="fill:#b3b3b3;fill-opacity:1;fill-rule:evenodd;stroke:none;stroke-width:35.5607;stroke-linecap:round;stroke-linejoin:miter;stroke-miterlimit:4.8;stroke-dasharray:none;stroke-opacity:1"
     id="rect38096-2-5"
     width="69.562828"
     height="72.983948"
     x="1321.6477"
     y="699.25903"
     rx="9.5951719"
     ry="9.5951719" /><rect
     style="opacity:1;fill:#b3b3b3;fill-opacity:1;fill-rule:evenodd;stroke:#b3b3b3;stroke-width:27.1;stroke-linecap:round;stroke-linejoin:miter;stroke-miterlimit:4.8;stroke-dasharray:none;stroke-opacity:1"
     id="rect38930"
     width="13.393066"
     height="0.99633789"
     x="1390.5255"
     y="734.15356"
     rx="6.6965332"
     ry="6.6965332" /><rect
     style="fill:#b3b3b3;fill-opacity:1;fill-rule:evenodd;stroke:#b3b3b3;stroke-width:27.1;stroke-linecap:round;stroke-linejoin:miter;stroke-miterlimit:4.8;stroke-dasharray:none;stroke-opacity:1"
     id="rect38930-0"
     width="18.90564"
     height="1.9749146"
     x="1476.0065"
     y="734.35175"
     rx="9.3903198"
     ry="9.3903198" /></svg>
