<?xml version="1.0" encoding="UTF-8" standalone="no"?>
<!-- Created with Inkscape (http://www.inkscape.org/) -->

<svg
   width="489.98087"
   height="506.06287"
   viewBox="0 0 489.98087 506.06287"
   version="1.1"
   id="SVGRoot"
   xml:space="preserve"
   xmlns="http://www.w3.org/2000/svg"
   xmlns:svg="http://www.w3.org/2000/svg"><defs
     id="defs2057"><linearGradient
       id="linearGradient18733"><stop
         style="stop-color:#c48686;stop-opacity:1;"
         offset="0"
         id="stop18731" /></linearGradient><linearGradient
       id="linearGradient16541"><stop
         style="stop-color:#313131;stop-opacity:1;"
         offset="0"
         id="stop16539" /></linearGradient><linearGradient
       id="linearGradient5904"><stop
         style="stop-color:#ffffff;stop-opacity:1;"
         offset="0"
         id="stop5902" /></linearGradient><linearGradient
       id="linearGradient5867"><stop
         style="stop-color:#ffffff;stop-opacity:1;"
         offset="0"
         id="stop5865" /></linearGradient><linearGradient
       id="linearGradient5861"><stop
         style="stop-color:#ffffff;stop-opacity:1;"
         offset="0"
         id="stop5859" /></linearGradient></defs><g
     id="layer1"
     transform="translate(-16.110449,-20.799749)"><path
       d="m 29.964374,79.709242 c 0.157642,0.0901 0.279005,0.166886 0.558219,0.345884 0.172482,0.110574 0.36437,0.232802 0.56114,0.340328 0.183079,0.07032 0.375079,0.108222 0.540633,0.136736 0.154222,0.02656 0.371817,0.05751 0.550927,0.09856 0.07988,0.01546 0.145397,0.02849 0.182751,0.03597 a 0,0 0 0 0 0,0 c -0.03735,-0.0075 -0.102875,-0.02051 -0.182751,-0.03597 -0.17911,-0.04105 -0.396705,-0.07199 -0.550927,-0.09856 -0.165554,-0.02851 -0.357554,-0.06641 -0.540633,-0.136736 -0.19677,-0.107526 -0.388658,-0.229754 -0.56114,-0.340328 -0.279214,-0.178998 -0.400577,-0.255785 -0.558219,-0.345884 z"
       id="path-1"
       style="fill:#b3b3b3;fill-rule:nonzero;stroke:none;stroke-linecap:square;stroke-miterlimit:4.8" /><path
       style="fill:#b3b3b3;fill-rule:evenodd;stroke:none;stroke-linecap:square;stroke-miterlimit:4.8"
       d="M 36.427285,83.299749 90.284881,85.69342"
       id="path5832" /><path
       style="fill:#b3b3b3;fill-rule:evenodd;stroke:none;stroke-linecap:square;stroke-miterlimit:4.8"
       d="M 38.102855,84.257217 28.288804,82.102913"
       id="path5841" /><path
       d="m 60.417845,80.046253 c -0.140793,-3.611282 -0.352855,-11.144976 4.856853,-18.829951 1.317553,-1.943556 2.875884,-3.805864 4.666562,-5.511973 2.539687,-2.419746 6.087826,-5.032932 10.645951,-6.758324 0.106998,-0.0405 0.213406,-0.08255 0.319189,-0.12613 4.289824,-1.767292 9.279166,-3.062732 14.745248,-3.557188 5.016872,-0.45382 10.259282,-0.213302 15.381562,0.857213 4.92528,1.029342 9.5787,2.79323 13.68482,5.281438 4.05582,2.457729 7.52279,5.586672 10.2497,9.373246 2.2634,3.249901 3.65073,6.837717 4.43241,10.246724 0.77081,3.361641 0.98886,7.183509 0.97933,8.996033 11.42834,0 5.29471,0.08513 11.84485,0.119592 6.55014,0.03446 11.77124,0.786313 11.79078,-2.440045 0.0312,-5.923204 -0.76716,-17.912943 -9.64331,-30.589142 -0.0254,-0.03632 -0.0511,-0.07249 -0.0769,-0.108514 -4.72559,-6.590262 -10.64763,-11.87857 -17.27688,-15.89573 -6.63455,-4.02038 -13.85234,-6.694568 -21.12954,-8.215445 -7.56003,-1.579982 -15.1715,-1.914256 -22.375031,-1.262633 -7.792797,0.704927 -15.053342,2.551765 -21.491215,5.185758 -8.061827,3.081265 -14.152281,7.612701 -18.452684,11.710027 -3.052574,2.908422 -5.70064,6.074087 -7.940026,9.377463 -4.288066,6.325437 -6.855564,12.811487 -8.234097,18.726031 -1.371263,5.88335 -3.310009,11.870964 -0.277636,13.028081 1.013377,0.386692 6.842543,0.461091 11.244236,0.403092 6.444919,-0.08492 6.885201,-0.0096 11.917489,-0.0096 z"
       id="path-1-3"
       style="fill:#b3b3b3;stroke-width:0.836969;stroke-linecap:square;stroke-miterlimit:4.8" /><path
       d="m 402.49324,79.53478 c -0.1408,-3.611282 -0.35286,-11.144976 4.85685,-18.829951 1.31755,-1.943556 2.87588,-3.805864 4.66656,-5.511973 2.53969,-2.419746 6.08783,-5.032932 10.64595,-6.758324 0.107,-0.0405 0.21341,-0.08255 0.31919,-0.12613 4.28983,-1.767292 9.27917,-3.062732 14.74525,-3.557188 5.01687,-0.45382 10.25928,-0.213302 15.38156,0.857213 4.92528,1.029342 9.5787,2.79323 13.68482,5.281438 4.05582,2.457729 7.52279,5.586672 10.2497,9.373246 2.2634,3.249901 3.65073,6.837717 4.43241,10.246724 0.77081,3.361641 0.98886,7.183509 0.97933,8.996033 11.42834,0 5.29471,0.08513 11.84485,0.119592 6.55014,0.03446 11.77124,0.786313 11.79078,-2.440045 0.0312,-5.923204 -0.76716,-17.912943 -9.64331,-30.589142 -0.0254,-0.03632 -0.0511,-0.07249 -0.0769,-0.108514 -4.72559,-6.590262 -10.64763,-11.87857 -17.27688,-15.89573 -6.63455,-4.02038 -13.85234,-6.694568 -21.12954,-8.215445 -7.56003,-1.579982 -15.1715,-1.914256 -22.37503,-1.262633 -7.7928,0.704927 -15.05334,2.551765 -21.49121,5.185758 -8.06183,3.081265 -14.15228,7.612701 -18.45269,11.710027 -3.05257,2.908422 -5.70064,6.074087 -7.94002,9.377463 -4.28807,6.325437 -6.85557,12.811487 -8.2341,18.726031 -1.37126,5.88335 -3.31001,11.870964 -0.27764,13.028081 1.01338,0.386692 6.84255,0.461091 11.24424,0.403092 6.44492,-0.08492 6.8852,-0.0096 11.91749,-0.0096 z"
       id="path-1-3-1"
       style="fill:#b3b3b3;stroke-width:0.836969;stroke-linecap:square;stroke-miterlimit:4.8" /><rect
       style="fill:#b3b3b3;fill-rule:evenodd;stroke:none;stroke-width:9.139;stroke-linecap:square;stroke-linejoin:round;stroke-miterlimit:4.8;stroke-dasharray:none;stroke-opacity:1"
       id="rect4007"
       width="169.93513"
       height="129.31319"
       x="16.110449"
       y="85.222198"
       rx="26.919277"
       ry="26.919277" /><path
       d="m 273.06886,77.75992 c 0.15764,0.0901 0.279,0.166886 0.55822,0.345886 0.17248,0.110575 0.36437,0.232803 0.56114,0.340329 0.18308,0.07032 0.37508,0.108222 0.54063,0.136735 0.15422,0.02656 0.37182,0.05751 0.55093,0.09856 0.0799,0.01547 0.14533,0.02848 0.18275,0.03596 a 0,0 0 0 0 0,0 c -0.0374,-0.0075 -0.10281,-0.0205 -0.18275,-0.03596 -0.17911,-0.04105 -0.39671,-0.07199 -0.55093,-0.09856 -0.16555,-0.02851 -0.35755,-0.06641 -0.54063,-0.136735 -0.19677,-0.107526 -0.38866,-0.229754 -0.56114,-0.340329 -0.27922,-0.179 -0.40058,-0.255786 -0.55822,-0.345886 z"
       id="path-1-1"
       style="fill:#b3b3b3;fill-rule:nonzero;stroke:none;stroke-linecap:square;stroke-miterlimit:4.8" /><path
       style="fill:#b3b3b3;fill-rule:evenodd;stroke:none;stroke-linecap:square;stroke-miterlimit:4.8"
       d="m 279.53177,81.35043 53.85759,2.39367"
       id="path5832-1" /><path
       style="fill:#b3b3b3;fill-rule:evenodd;stroke:none;stroke-linecap:square;stroke-miterlimit:4.8"
       d="m 281.20734,82.3079 -9.81405,-2.15431"
       id="path5841-9" /><rect
       style="fill:#b3b3b3;fill-rule:evenodd;stroke:none;stroke-width:9.139;stroke-linecap:square;stroke-linejoin:round;stroke-miterlimit:4.8;stroke-dasharray:none;stroke-opacity:1"
       id="rect4007-2"
       width="169.93513"
       height="129.31319"
       x="259.35327"
       y="85.209496"
       rx="26.919277"
       ry="26.919277" /><path
       style="fill:#b3b3b3;fill-rule:evenodd;stroke:none;stroke-width:0;stroke-linecap:square;stroke-linejoin:round;stroke-miterlimit:4.8;stroke-dasharray:none;stroke-opacity:1"
       id="path6828"
       d="M 17.658653,526.86261 A 80.027473,124.20261 0 0 1 97.686127,402.66 80.027473,124.20261 0 0 1 177.7136,526.86261 H 97.686127 Z" /><circle
       style="opacity:1;mix-blend-mode:normal;fill:#b3b3b3;fill-rule:evenodd;stroke:none;stroke-width:10.385;stroke-linecap:square;stroke-linejoin:miter;stroke-miterlimit:4.8;stroke-dasharray:none;stroke-opacity:1"
       id="path6824"
       r="57.574905"
       cy="360.01144"
       cx="97.866631" /><path
       style="fill:#b3b3b3;fill-opacity:1;fill-rule:evenodd;stroke:none;stroke-width:4.485;stroke-linecap:square;stroke-linejoin:round;stroke-miterlimit:4.8;stroke-dasharray:none;stroke-opacity:1"
       d="m 345.96133,367.39346 c 13.47037,-13.47037 26.05492,-26.9595 46.69523,-26.9595 25.03714,0 51.08195,36.25108 44.60186,60.4351 -12.35719,46.11766 -91.02043,107.89656 -91.02043,107.89656 0,0 -80.17905,-61.79427 -92.68038,-108.44987 -6.37757,-23.8014 19.62424,-59.20478 44.26526,-59.20478 19.29722,0 36.21677,14.3608 48.13846,26.28249 z"
       id="path13849" /></g></svg>
