<?xml version="1.0" encoding="UTF-8" standalone="no"?>
<!-- Created with Inkscape (http://www.inkscape.org/) -->

<svg
   width="210mm"
   height="297mm"
   viewBox="0 0 210 297"
   version="1.1"
   id="svg316"
   xml:space="preserve"
   inkscape:version="1.2.2 (732a01da63, 2022-12-09)"
   sodipodi:docname="buff_debuff.svg"
   inkscape:export-filename="Nova pasta\Buff and debuff.png"
   inkscape:export-xdpi="3.8699999"
   inkscape:export-ydpi="3.8699999"
   xmlns:inkscape="http://www.inkscape.org/namespaces/inkscape"
   xmlns:sodipodi="http://sodipodi.sourceforge.net/DTD/sodipodi-0.dtd"
   xmlns:xlink="http://www.w3.org/1999/xlink"
   xmlns="http://www.w3.org/2000/svg"
   xmlns:svg="http://www.w3.org/2000/svg"><sodipodi:namedview
     id="namedview318"
     pagecolor="#7d7d7d"
     bordercolor="#000000"
     borderopacity="0.25"
     inkscape:showpageshadow="2"
     inkscape:pageopacity="0"
     inkscape:pagecheckerboard="0"
     inkscape:deskcolor="#666666"
     inkscape:document-units="mm"
     showgrid="true"
     inkscape:zoom="1.0444209"
     inkscape:cx="126.86456"
     inkscape:cy="264.26128"
     inkscape:window-width="1920"
     inkscape:window-height="1009"
     inkscape:window-x="-8"
     inkscape:window-y="-8"
     inkscape:window-maximized="1"
     inkscape:current-layer="layer2"
     showguides="true"><inkscape:grid
       type="xygrid"
       id="grid6760"
       spacingx="8.4666667"
       spacingy="8.4666667" /></sodipodi:namedview><defs
     id="defs313"><color-profile
       name="Apple-RGB"
       xlink:href="file:///usr/share/color/icc/colord/AppleRGB.icc"
       id="color-profile588" /></defs><g
     inkscape:groupmode="layer"
     id="layer2"
     inkscape:label="Coisas"
     transform="translate(0.37999527,-0.12666509)"
     style="display:inline"><path
       id="rect4338"
       style="fill:#ffffff;fill-opacity:0.376506;fill-rule:evenodd;stroke-width:5.27899;stroke-linecap:square;stroke-miterlimit:0;paint-order:markers fill stroke"
       d="m -35.445236,45.149342 h 22.799713 c 3.6489686,0 6.5865859,2.937617 6.5865859,6.586586 v 22.799713 c 0,3.648968 -2.9376173,6.586586 -6.5865859,6.586586 h -22.799713 c -3.648969,0 -6.586586,-2.937618 -6.586586,-6.586586 V 51.735928 c 0,-3.648969 2.937617,-6.586586 6.586586,-6.586586 z"
       transform="translate(-0.37999527,0.12666509)" /><path
       id="rect29901"
       style="fill:#ffffff;fill-opacity:1;fill-rule:evenodd;stroke:none;stroke-width:5.27899;stroke-linecap:square;stroke-miterlimit:0;stroke-dasharray:none;stroke-opacity:1;paint-order:markers fill stroke"
       d="m -35.755368,45.149107 c -3.648965,0 -6.586678,2.937713 -6.586678,6.586678 v 1.642277 l 7.804174,-8.228955 z m 13.223998,0 -19.810676,20.889682 v 8.49664 c 0,0.35135 0.02762,0.69632 0.0801,1.03249 l 28.848365,-30.418812 z m 16.0465651,5.355229 -29.0369861,30.617773 h 8.893514 l 20.2592281,-21.36201 v -8.024314 c 0,-0.421319 -0.04086,-0.832524 -0.115756,-1.231449 z m 0.115756,21.917013 -8.2516931,8.70076 h 1.665015 c 3.6489651,0 6.5866781,-2.93772 6.5866781,-6.58668 z"
       transform="translate(-0.37999527,0.12666509)" /><path
       id="rect4341"
       style="fill:#ffffff;fill-opacity:0.415663;fill-rule:evenodd;stroke-width:5.20059;stroke-linecap:square;stroke-miterlimit:0;paint-order:markers fill stroke"
       d="m -75.408373,45.65303 h 24.541012 c 3.076404,0 5.553076,2.476672 5.553076,5.553076 v 24.541012 c 0,3.076404 -2.476672,5.553076 -5.553076,5.553076 h -24.541012 c -3.076404,0 -5.553076,-2.476672 -5.553076,-5.553076 V 51.206106 c 0,-3.076404 2.476672,-5.553076 5.553076,-5.553076 z"
       transform="translate(-0.37999527,0.12666509)" /><path
       id="rect23131"
       style="fill:#ffffff;fill-opacity:1;fill-rule:evenodd;stroke:none;stroke-width:5.81098;stroke-linecap:square;stroke-miterlimit:0;stroke-dasharray:none;stroke-opacity:1;paint-order:markers fill stroke"
       d="m -74.447802,46.10623 c -3.929655,0 -7.093107,3.163452 -7.093107,7.093107 v 21.786267 c 0,3.929654 3.163452,7.093624 7.093107,7.093624 h 21.786267 c 3.929653,0 7.093623,-3.16397 7.093623,-7.093624 V 53.199337 c 0,-3.929655 -3.16397,-7.093107 -7.093623,-7.093107 z m 2.957442,9.263517 c 2.418471,0 4.356729,1.166354 5.844604,2.364713 0.774201,0.623554 1.292529,1.170544 1.923914,1.785421 0.656119,-0.620715 1.197683,-1.182346 1.988509,-1.801957 1.5145,-1.186609 3.400875,-2.348177 5.791895,-2.348177 2.247903,0 4.337977,0.922855 6.030638,2.423108 1.69266,1.500253 3.01699,3.744772 2.9993,6.398059 -0.0175,2.626814 -1.220108,4.912863 -2.916617,6.351033 -1.696509,1.438172 -3.80719,2.137338 -5.9123,2.137338 -3.455558,0 -5.851368,-1.967601 -7.982975,-3.927926 -2.015331,1.904034 -4.365071,3.927926 -7.938534,3.927926 -2.214571,0 -4.298301,-0.870165 -5.953642,-2.329574 -1.65534,-1.459406 -2.903182,-3.650276 -2.903182,-6.203756 0,-5.175504 4.445079,-8.776208 9.02839,-8.776208 z m 0,5.366081 c -1.467152,0 -3.662309,1.670648 -3.662309,3.410127 0,0.825727 0.382144,1.557407 1.086239,2.178162 0.704096,0.620756 1.708564,0.98702 2.404504,0.98702 1.36564,0 3.045423,-1.393042 5.0276,-3.178617 -0.824323,-0.798101 -1.669511,-1.647204 -2.378149,-2.217953 -1.03465,-0.833324 -1.810335,-1.178739 -2.477885,-1.178739 z m 15.548922,0 c -0.530073,0 -1.399161,0.357527 -2.48357,1.207161 -0.739134,0.579112 -1.578719,1.405896 -2.400887,2.185913 2.063749,1.815383 3.883259,3.182235 5.085478,3.182235 0.863971,0 1.812951,-0.33034 2.440678,-0.86248 0.627726,-0.532139 1.012593,-1.158764 1.020093,-2.2934 0.0056,-0.846957 -0.416589,-1.660976 -1.189592,-2.34611 -0.773001,-0.685134 -1.868159,-1.073319 -2.4722,-1.073319 z"
       transform="translate(-0.37999527,0.12666509)" /><path
       style="fill:#ffffff;fill-opacity:0.289157;fill-rule:evenodd;stroke:none;stroke-width:1.64976;stroke-linecap:square;stroke-linejoin:miter;stroke-miterlimit:4.8;stroke-dasharray:none;stroke-opacity:1"
       d="m 133.35927,-6.0712824 c -0.64205,-0.641003 -0.61405,-2.651611 -0.61405,-2.651611 l 1.31184,-0.02792 6.44761,-6.9779246 -1.36768,-1.395586 c 0,0 -0.96173,1.179076 -1.6747,-0.05583 -0.69522,-1.204158 0.6978,-1.590967 0.6978,-1.590967 1.24554,0.02861 2.16777,0.542389 3.23775,1.367673 l 11.97133,-16.444993 8.38803,-0.552623 -0.55262,8.309086 -16.46029,12.019562 c 1.01564,1.184361 1.39086,2.352076 1.26315,3.434163 0,0 -0.62942,1.4039526 -1.83551,0.2171 -0.6682,-0.657548 0.25658,-1.480241 0.25658,-1.480241 l -1.36183,-1.322348 -6.88805,6.4735886 -0.0198,1.322349 c 0,0 -2.12198,0.03304 -2.79962,-0.643492 z"
       id="path20296-2"
       transform="translate(-0.37999527,0.12666509)" /><path
       id="path20296"
       style="fill:#ffffff;fill-opacity:0.997239;fill-rule:evenodd;stroke:none;stroke-width:1.76852;stroke-linecap:square;stroke-linejoin:miter;stroke-miterlimit:4.8;stroke-dasharray:none;stroke-opacity:1"
       d="m 163.0808,-35.623342 -8.9917,0.592212 -0.32867,0.451135 -0.9066,3.187664 4.64098,-1.26455 -0.55405,2.352543 2.35123,0.439331 -0.39228,3.466663 3.14084,0.0091 0.44803,-0.327112 z m -25.29562,16.755049 c 0,0 -1.49354,0.414484 -0.74827,1.705322 0.76429,1.32379 1.79524,0.05994 1.79524,0.05994 l 1.46606,1.496033 -6.91173,7.4801626 -1.40611,0.02997 c 0,0 -0.0299,2.155576 0.65836,2.842721 0.72642,0.725216 3.00085,0.689364 3.00085,0.689364 l 0.0212,-1.417485 7.38404,-6.9396276 1.45986,1.418001 c 0,0 -0.99123,0.881587 -0.27492,1.5864666 1.29291,1.272285 1.96732,-0.2325436 1.96732,-0.2325436 0.13692,-1.159978 -0.26517,-2.411815 -1.35392,-3.681429 l 1.2175,-0.888835 -0.81155,-1.863645 -1.59524,-0.632115 0.51226,-2.027875 -1.93112,0.03963 -0.97923,1.802001 c -1.147,-0.884692 -2.13538,-1.4354 -3.47059,-1.46606 z"
       sodipodi:nodetypes="ccccccccccccsccccsccccscccccccccc"
       transform="translate(-0.37999527,0.12666509)" /><path
       id="path20296-8"
       style="fill:#ffffff;fill-opacity:1;fill-rule:evenodd;stroke:none;stroke-width:1.78492;stroke-linecap:square;stroke-linejoin:miter;stroke-miterlimit:4.8;stroke-dasharray:none;stroke-opacity:1"
       d="m 120.50272,-36.890929 -9.07541,0.597896 -5.96605,8.195366 5.117,7.006807 9.32657,-6.810437 z m -25.530222,16.910596 c 0,0 -1.507167,0.418537 -0.754993,1.721342 0.771376,1.336058 1.811776,0.05994 1.811776,0.05994 l 1.479496,1.509986 -6.975802,7.5499273 -1.419035,0.02997 c 0,0 -0.03061,2.17556 0.664043,2.869075 0.733154,0.731931 3.029272,0.696082 3.029272,0.696082 l 0.02119,-1.43092 7.452255,-7.0037073 1.4733,1.430403 c 0,0 -1.00046,0.890551 -0.27751,1.60197 1.30489,1.2840743 1.98593,-0.235128 1.98593,-0.235128 0.13819,-1.170733 -0.26748,-2.434151 -1.36633,-3.715536 l 1.78129,-1.300695 -4.627104,-3.36827 -0.775147,1.065051 c -1.157634,-0.892895 -2.155042,-1.448556 -3.502628,-1.479496 z"
       transform="translate(-0.37999527,0.12666509)" /><path
       style="fill:#ffffff;fill-opacity:1;fill-rule:evenodd;stroke:none;stroke-width:1.78492;stroke-linecap:square;stroke-linejoin:miter;stroke-miterlimit:4.8;stroke-dasharray:none;stroke-opacity:1"
       d="m 119.78511,-6.1874607 c -0.69352,0.694653 -2.86884,0.664362 -2.86884,0.664362 l -0.0302,-1.419323 -7.54957,-6.9758053 -1.50991,1.479717 c 0,0 1.27567,1.040521 -0.0604,1.811898 -1.30281,0.7521753 -1.72131,-0.754955 -1.72131,-0.754955 0.0309,-1.347588 0.58682,-2.345365 1.47972,-3.503 l -17.792208,-12.952045 -0.597895,-9.0752 8.989786,0.59789 13.004227,17.80875 c 1.28139,-1.09885 2.54476,-1.50482 3.7155,-1.36663 0,0 1.51896,0.68098 0.23489,1.98587 -0.71142,0.72295 -1.60151,-0.27759 -1.60151,-0.27759 l -1.43067,1.47339 7.00391,7.4523383 1.43068,0.02137 c 0,0 0.0357,2.295819 -0.69621,3.028974 z"
       id="path19336"
       transform="translate(-0.37999527,0.12666509)" /><path
       id="path20802"
       style="fill:#ffffff;fill-opacity:1;fill-rule:evenodd;stroke:none;stroke-width:1.78492;stroke-linecap:square;stroke-linejoin:miter;stroke-miterlimit:4.8;stroke-dasharray:none;stroke-opacity:1"
       d="m 77.704325,-38.272161 -9.07541,0.597896 -12.84676,17.647502 c 0.91563,0.05477 1.94354,0.722454 2.77295,1.362191 l 12.31863,-17.506942 6.72052,-0.442867 z m -25.53022,16.910596 c 0,0 -1.50716,0.41802 -0.75499,1.720825 0.77138,1.336058 1.81177,0.06046 1.81177,0.06046 l 0.74053,0.756026 c 0.14359,-0.351163 0.4046,-0.67293 0.79581,-0.939994 0.22376,-0.152752 0.46713,-0.2328 0.72244,-0.257349 -1.07921,-0.808654 -2.0417,-1.310722 -3.31556,-1.339968 z m 1.82986,4.055566 -6.26938,6.785632 -1.41904,0.02997 c 0,0 -0.0306,2.1750426 0.66404,2.8685576 0.37036,0.369734 1.13922,0.54325 1.80971,0.624768 -0.2429,-0.886117 -0.22892,-1.990576 -0.22892,-1.990576 l 1.41955,-0.02997 6.15208,-6.5050286 -0.74104,-0.611333 c 0,0 -1.00372,-0.213009 -1.387,-1.17202 z m 5.72368,3.448885 -1.26969,1.193209 c 0.0396,0.113705 0.10922,0.226743 0.22014,0.335897 1.30489,1.284074 1.98593,-0.234611 1.98593,-0.234611 0.0141,-0.119687 0.0212,-0.240709 0.0238,-0.362252 z"
       transform="translate(-0.37999527,0.12666509)" /><path
       style="fill:#ffffff;fill-opacity:1;fill-rule:evenodd;stroke:none;stroke-width:1.78492;stroke-linecap:square;stroke-linejoin:miter;stroke-miterlimit:4.8;stroke-dasharray:none;stroke-opacity:1"
       d="m 50.381415,-5.2321804 c -0.69465,-0.693516 -0.66436,-2.868834 -0.66436,-2.868834 l 1.41932,-0.0302 6.97581,-7.5495706 -1.47972,-1.509917 c 0,0 -1.04052,1.27567 -1.8119,-0.06039 -0.75217,-1.302806 0.75496,-1.721301 0.75496,-1.721301 1.34759,0.03094 2.34536,0.58682 3.503,1.479716 l 12.95204,-17.792208 9.0752,-0.597895 -0.59789,8.989786 -17.80875,13.004231 c 1.09885,1.281386 1.50482,2.54476 1.36663,3.715494 0,0 -0.68098,1.5189656 -1.98587,0.2348896 -0.72295,-0.7114186 0.27759,-1.6015046 0.27759,-1.6015046 l -1.47339,-1.430678 -7.45233,7.0039116 -0.0214,1.430685 c 0,0 -2.29582,0.03572 -3.02898,-0.696211 z"
       id="path19342"
       transform="translate(-0.37999527,0.12666509)" /><path
       id="rect26100"
       style="fill:#ffffff;fill-opacity:1;fill-rule:evenodd;stroke:none;stroke-width:4.82208;stroke-linecap:square;stroke-miterlimit:0;stroke-dasharray:none;stroke-opacity:1;paint-order:markers fill stroke"
       d="m -71.253334,7.4303852 -9.592696,9.5921798 v 2.855643 L -68.398728,7.4303852 Z m 7.344255,0 -16.936951,16.9364328 v 2.67581 L -61.233273,7.4303852 Z m 7.165454,0 -24.102405,24.1018928 v 3.21324 L -53.530384,7.4303852 Z m -19.035014,0.03566 c -2.65007,0.290167 -4.741567,2.381664 -5.031734,5.0317338 z m 26.445414,0.256315 -31.220833,31.2208308 c 0.238974,0.71921 0.617,1.37353 1.102258,1.93218 L -47.40156,8.8246152 c -0.558584,-0.485134 -1.212585,-0.863326 -1.931665,-1.102258 z m 3.675745,3.8478268 -31.049268,31.048754 c 0.495799,0.13993 1.01886,0.216 1.560629,0.216 h 1.257804 L -45.441472,14.3881 v -1.257804 c 0,-0.541595 -0.07617,-1.064454 -0.216008,-1.560112 z m 0.216008,7.307048 -23.957194,23.957706 h 2.854606 l 21.102588,-21.10207 z m 0,7.344776 -16.61294,16.61293 h 3.03444 l 13.5785,-13.57901 z m 0,7.52357 -9.089885,9.08936 h 3.03444 l 6.055445,-6.05544 z"
       transform="translate(-0.37999527,0.12666509)" /><path
       style="fill:none;fill-opacity:1;fill-rule:evenodd;stroke:#000000;stroke-width:5.56709;stroke-linecap:square;stroke-miterlimit:0;stroke-dasharray:none;stroke-opacity:1;paint-order:markers fill stroke"
       d="m -117.9167,54.837021 c -2.50605,2.298249 -4.98267,4.991413 -8.21318,4.991413 -3.01911,0 -6.4045,-2.562914 -6.4045,-6.068208 0,-3.5865 3.44429,-6.319633 6.5824,-6.319633 3.20117,0 5.63249,3.133125 8.03528,5.296843 2.37553,-2.144801 5.06448,-5.296843 8.09457,-5.296843 2.95836,0 6.60661,2.718436 6.58241,6.349283 -0.026,3.901801 -3.29499,6.038558 -6.37485,6.038558 -3.03572,0 -5.66435,-2.550343 -8.30213,-4.991413 z"
       id="path22397"
       sodipodi:nodetypes="cssscsssc"
       transform="translate(-0.37999527,0.12666509)" /></g><g
     inkscape:label="Buff"
     inkscape:groupmode="layer"
     id="layer1"><path
       id="path28203"
       style="fill:#ffffff;fill-opacity:1;fill-rule:evenodd;stroke:none;stroke-width:1.82729;stroke-linecap:square;stroke-linejoin:miter;stroke-miterlimit:4.8;stroke-dasharray:none;stroke-opacity:1"
       d="m 75.533138,46.136945 -9.12193,1.848466 -10.703221,19.830831 c -1.29609,-0.747873 -2.3839,-1.17564 -3.75481,-1.022676 0,0 -1.47112,0.63114 -0.5302,1.850533 0.57807,0.74914 1.1243,0.532921 1.47071,0.239778 0.13362,-0.384469 0.3851,-0.70426 0.69867,-0.951879 0.89908,-0.71004 2.10426,0.1041 3.30729,0.934826 l 13.149881,-18.045927 6.46058,-0.203316 z m -21.425051,24.887887 -5.17488,7.379395 -1.43506,0.224792 c 0,0 0.0999,0.822861 0.35864,1.603003 -0.13442,-0.779677 -0.1695,-1.493449 -0.1695,-1.493449 l 1.41542,-0.104903 6.04769,-6.842477 -0.75086,-0.713651 c 0,0 -0.12269,-0.01481 -0.29145,-0.05271 z m 6.16436,-0.739338 -0.46354,0.377755 c 0.5416,0.568101 0.93152,1.140094 1.18805,1.707906 -0.0433,-0.696367 -0.2751,-1.397771 -0.72451,-2.085661 z m -0.98659,3.012926 c -0.0427,0.281151 0.0198,0.583569 0.34055,0.824239 0.12652,0.09494 0.24524,0.169117 0.3576,0.227376 0.10979,-0.157467 -0.39265,-1.323106 -0.39265,-1.323106 z"
       sodipodi:nodetypes="ccccsccccccccccccccccccccsccc" /><path
       style="fill:#ffffff;fill-opacity:1;fill-rule:evenodd;stroke:none;stroke-width:1.78492;stroke-linecap:square;stroke-linejoin:miter;stroke-miterlimit:4.8;stroke-dasharray:none;stroke-opacity:1"
       d="m 48.599077,81.867695 c -0.67281,-0.714717 -0.57508,-2.888051 -0.57508,-2.888051 l 1.41958,0.01383 7.20656,-7.329628 -1.43219,-1.555076 c 0,0 -1.13492,1.271073 -1.80916,-0.116546 -0.50558,-1.040508 0.28231,-1.736807 0.80798,-1.697063 1.26396,0.09556 2.32603,0.659265 3.45543,1.587629 l 13.497531,-17.382022 9.08937,-0.316194 -0.87636,8.966923 -18.203441,12.445745 c 1.058591,1.314848 1.425191,2.590199 1.250761,3.756081 0,0 -0.72775,1.497123 -1.992201,0.173198 -0.70054,-0.733496 0.32712,-1.592123 0.32712,-1.592123 l -0.92206,-0.952632 -0.50626,-0.523047 -7.66593,6.769452 -0.0658,1.429338 c 0,0 -2.29582,-0.03551 -3.00594,-0.789801 z"
       id="path28201"
       sodipodi:nodetypes="cccccssccccccsccccccc"
       inkscape:export-filename="Nova pasta\path28201.png"
       inkscape:export-xdpi="5.0791678"
       inkscape:export-ydpi="5.0791678" /><path
       id="path1451"
       style="opacity:1;fill:#ffffff;fill-opacity:1;stroke-width:0.487447"
       inkscape:label="escudo"
       d="m 4.0638346,45.025159 c 0,15.878911 3.5465268,33.860003 17.0521894,37.478849 13.776295,-3.691336 17.153475,-21.6636 17.153475,-37.478849 -0.04006,0.195787 -10.662771,6.392503 -17.213937,-0.529167 -7.611741,7.331613 -16.9917274,0.575447 -16.9917274,0.529167 z m 16.9958614,0.701766 c 6.302296,6.658727 16.051951,1.246683 16.090491,1.058333 0,15.214453 -2.77914,30.936709 -16.032096,34.487817 C 8.1254871,77.791703 5.1831462,62.060955 5.1831462,46.785258 c 0,0.04452 8.5539668,5.994764 15.8765498,-1.058333 z m 0.0036,0.553971 c -7.094291,6.833209 -15.5608075,1.15469 -15.5608075,1.11156 0,14.799458 3.0295908,29.953811 15.6171345,33.326648 C 33.9594,77.278705 36.830809,62.13258 36.830809,47.392456 c -0.03734,0.182478 -9.661696,5.339575 -15.767513,-1.11156 z m -5.649785,11.031885 c 2.023076,0 4.127267,1.219244 5.752621,3.367753 1.625396,-2.1488 3.729401,-3.367753 5.75262,-3.367753 1.202395,0 2.376676,0.454182 3.202389,1.36064 0.825713,0.906458 1.274341,2.209112 1.274341,3.768762 0,1.559652 -0.448628,2.861271 -1.274341,3.767729 -0.825713,0.906459 -1.999993,1.360641 -3.202389,1.360641 -2.023219,0 -4.127225,-1.218954 -5.75262,-3.367754 -1.625354,2.148509 -3.729545,3.367754 -5.752621,3.367754 -1.202394,0 -2.375125,-0.454182 -3.200838,-1.360641 -0.825713,-0.906458 -1.274341,-2.208077 -1.274341,-3.767729 0,-1.55965 0.448628,-2.862304 1.274341,-3.768762 0.825713,-0.906458 1.998444,-1.36064 3.200838,-1.36064 z m 0,2.047937 c -0.715075,0 -1.26556,0.230688 -1.686202,0.692464 -0.420641,0.461777 -0.740523,1.212186 -0.740523,2.389001 0,1.176817 0.319882,1.926193 0.740523,2.387968 0.420642,0.461777 0.971127,0.691948 1.686202,0.691948 1.318821,0 3.13315,-0.989374 4.502051,-3.081466 -1.368824,-2.091316 -3.183462,-3.079915 -4.502051,-3.079915 z m 11.505241,0 c -1.318588,0 -3.133225,0.988599 -4.50205,3.079915 1.368901,2.092092 3.18323,3.081466 4.50205,3.081466 0.715077,0 1.267109,-0.230171 1.687753,-0.691948 0.420641,-0.461775 0.739489,-1.211151 0.739489,-2.387968 0,-1.176815 -0.318848,-1.927224 -0.739489,-2.389001 -0.420644,-0.461776 -0.972676,-0.692464 -1.687753,-0.692464 z"
       sodipodi:nodetypes="cccccccccccccccscssssscsssssssssscsscsssss" /><path
       id="rect1583"
       style="opacity:1;fill:#fefefe;fill-opacity:0;stroke-width:0.264583"
       d="M 42.3,42.3 H 84.6832 V 84.683202 H 42.3 Z"
       inkscape:export-filename="../GitHub/Fussionics/assets/svg/passive_effects/double_attack.svg"
       inkscape:export-xdpi="3.8699999"
       inkscape:export-ydpi="3.8699999"
       inkscape:label="exportar" /></g><g
     inkscape:groupmode="layer"
     id="layer3"
     inkscape:label="Debuff"><path
       id="rect38096"
       style="fill:#ffffff;fill-opacity:0.997239;fill-rule:evenodd;stroke:none;stroke-width:5.78258;stroke-linecap:round;stroke-linejoin:miter;stroke-miterlimit:4.8;stroke-dasharray:none;stroke-opacity:1"
       d="m 31.262864,14.930762 c -1.354626,0 -2.445329,1.090186 -2.445329,2.444812 v 1.399914 h -1.363741 c 0.03291,0.726914 0.05116,1.490931 0.05116,2.280998 0,0.373462 -0.0046,0.740479 -0.0124,1.101225 l 1.180289,1.18029 h 0.144694 v 0.144694 l 3.316077,3.316076 h 5.550566 c 1.354625,0 2.445328,-1.090702 2.445328,-2.445329 v -6.977868 c 0,-1.354626 -1.090703,-2.444812 -2.445328,-2.444812 z m -26.608712,0.0031 c -1.4064496,0 -2.5388631,1.132414 -2.5388631,2.538863 v 6.790284 c 0,1.406449 1.1324135,2.538863 2.5388631,2.538863 h 6.234245 c 1.40645,0 2.538863,-1.132414 2.538863,-2.538863 v -0.925008 h 1.288294 c -0.03291,-0.726945 -0.05064,-1.491412 -0.05064,-2.281515 0,-0.359104 0.0043,-0.712061 0.01137,-1.059367 l -1.221631,-1.221631 h -0.02739 v -0.02739 L 9.6130226,14.933862 Z" /><path
       id="path3435"
       style="fill:#ffffff;fill-opacity:0.997239;fill-rule:evenodd;stroke-width:3.76333;stroke-linecap:square;stroke-miterlimit:0;stroke-dasharray:none;paint-order:markers fill stroke"
       d="m 104.98563,2.4644491 c -1.08493,4.5382904 -1.80574,9.7022659 -4.78937,13.1413169 -1.181142,-1.066825 -1.964586,-2.332095 -3.900536,-3.021521 -3.220357,5.973862 -4.387301,11.245812 -3.261944,15.904403 0.181217,-0.43587 0.60001,-1.069383 0.837632,-1.51018 0.914488,0.325662 1.360781,0.411741 1.918715,0.915676 1.409369,-1.6245 1.749901,-3.9298 2.262394,-6.073542 2.412419,2.257504 4.953939,5.452198 4.557349,10.840866 0.7776,-0.446414 1.3577,-0.827288 1.85193,-1.42318 0.79906,2.653145 0.99104,6.522927 -1.04459,7.78084 0.75743,0.14479 1.50427,0.04153 2.32665,0.04153 10.99659,0 14.99932,-8.454218 12.28594,-17.463524 -1.04629,1.261504 -2.74942,2.351385 -4.3956,3.29644 0.83959,-11.407784 -3.54149,-17.6500015 -8.64857,-22.4291249 z"
       sodipodi:nodetypes="ccccccccccsccc" /><path
       style="fill:#ffffff;fill-opacity:0.997239;fill-rule:evenodd;stroke-width:1.66656;stroke-linecap:square;stroke-miterlimit:0;stroke-dasharray:none;paint-order:markers fill stroke"
       d="m 97.973893,39.513815 c 4.869727,-0.335872 6.882857,-2.542368 6.084297,-6.576832 -0.46333,0.558642 -1.50851,1.130872 -2.2375,1.54938 0.3718,-5.051823 -1.07569,-8.196903 -3.33731,-10.313291 -0.480458,2.009737 -1.20268,4.296654 -2.523949,5.819606 -0.523058,-0.472433 -1.094046,-1.167208 -1.951369,-1.472513 -3.224575,5.981695 -0.794538,10.99365 3.965831,10.99365 z"
       id="path4889"
       sodipodi:nodetypes="ccccccc" /><path
       id="rect17222"
       style="fill:#ffffff;fill-opacity:0.997239;fill-rule:evenodd;stroke:none;stroke-width:5.78258;stroke-linecap:round;stroke-linejoin:miter;stroke-miterlimit:4.8;stroke-dasharray:none;stroke-opacity:1"
       d="M 74.024939 14.577922 C 72.670313 14.577922 71.580127 15.668625 71.580127 17.02325 L 71.580127 18.619019 L 67.068258 18.619019 L 71.388924 22.939685 L 71.580127 22.939685 L 71.580127 23.130888 L 74.89517 26.445931 L 80.446769 26.445931 C 81.801395 26.445931 82.891581 25.355228 82.891581 24.000602 L 82.891581 17.02325 C 82.891581 15.668625 81.801395 14.577922 80.446769 14.577922 L 74.024939 14.577922 z M 47.416227 14.581022 C 46.009778 14.581022 44.877881 15.713436 44.877881 17.119885 L 44.877881 23.910168 C 44.877881 25.316618 46.009778 26.449032 47.416227 26.449032 L 53.650472 26.449032 C 55.056922 26.449032 56.189335 25.316618 56.189335 23.910168 L 56.189335 22.939685 L 60.629891 22.939685 L 56.309224 18.619019 L 56.189335 18.619019 L 56.189335 18.499129 L 52.271228 14.581022 L 47.416227 14.581022 z " /><path
       id="rect4344"
       style="fill:#ffffff;fill-opacity:0.997239;fill-rule:evenodd;stroke-width:7.12506;stroke-linecap:square;stroke-miterlimit:0;paint-order:markers fill stroke"
       d="m 87.45356,101.80943 h 5.884247 v 35.30548 H 87.45356 Z"
       transform="rotate(-45)" /><path
       id="rect4350"
       style="fill:#ffffff;fill-opacity:0.997239;fill-rule:evenodd;stroke-width:6.88893;stroke-linecap:square;stroke-miterlimit:0;paint-order:markers fill stroke"
       transform="rotate(-45)"
       d="m 27.610373,42.812027 h 5.689238 v 34.135429 h -5.689238 z" /><path
       id="rect4347"
       style="fill:#ffffff;fill-opacity:0.997239;fill-rule:evenodd;stroke-width:6.88893;stroke-linecap:square;stroke-miterlimit:0;paint-order:markers fill stroke"
       transform="rotate(-45)"
       d="M -2.8397787,12.761488 H 2.8494599 V 46.896917 H -2.8397787 Z" /><path
       id="path31565"
       style="fill:#ffffff;fill-opacity:1;fill-rule:evenodd;stroke:none;stroke-width:1.78492;stroke-linecap:square;stroke-linejoin:miter;stroke-miterlimit:4.8;stroke-dasharray:none;stroke-opacity:1"
       d="M 164.24062 5.9557088 L 155.15125 6.2719686 L 148.43332 14.923637 L 154.49548 20.986316 L 163.36419 14.922603 L 164.24062 5.9557088 z M 143.476 21.307743 L 141.65389 23.653853 C 140.52449 22.72549 139.46224 22.161913 138.19828 22.066353 C 137.67261 22.026609 136.885 22.7229 137.39058 23.763407 C 138.06482 25.151025 139.19977 23.879679 139.19977 23.879679 L 140.63173 25.434623 L 133.42493 32.764408 L 132.00538 32.750456 C 132.00538 32.750456 131.90773 34.923935 132.58054 35.638652 C 133.29066 36.392942 135.58656 36.428267 135.58656 36.428267 L 135.65219 34.998897 L 143.31838 28.229801 L 143.8243 28.752767 L 144.74672 29.705164 C 144.74672 29.705164 143.71907 30.563819 144.41961 31.297314 C 145.68406 32.621238 146.41174 31.124198 146.41174 31.124198 C 146.58616 29.958318 146.21924 28.683202 145.16065 27.368355 L 147.75946 25.591203 L 143.476 21.307743 z " /><path
       id="path356"
       style="fill:#ffffff;fill-rule:evenodd;stroke-width:3.23651;stroke-linecap:square;stroke-miterlimit:0;paint-order:markers fill stroke"
       d="m 187.64087,25.54376 a 5.8206816,5.8206816 0 0 1 -3.19792,-7.584775 5.8206816,5.8206816 0 0 1 7.58453,-3.198498 5.8206816,5.8206816 0 0 1 3.19908,7.584286 5.8206816,5.8206816 0 0 1 -7.58404,3.199657 l 2.19207,-5.392139 z" /><path
       id="path750"
       style="fill:#ffffff;fill-rule:evenodd;stroke-width:5.27899;stroke-linecap:square;stroke-miterlimit:0;paint-order:markers fill stroke"
       d="m 197.98504,5.2841616 -5.24826,9.1611984 a 6.4028587,6.4028587 0 0 1 0.01,0.0052 6.4028587,6.4028587 0 0 1 5.1e-4,5.17e-4 6.4028587,6.4028587 0 0 1 0.14263,0.07493 6.4028587,6.4028587 0 0 1 0.001,5.17e-4 6.4028587,6.4028587 0 0 1 0.009,0.0047 6.4028587,6.4028587 0 0 1 0.007,0.0041 6.4028587,6.4028587 0 0 1 0.009,0.0052 6.4028587,6.4028587 0 0 1 0.11834,0.06615 6.4028587,6.4028587 0 0 1 0.003,0.0015 6.4028587,6.4028587 0 0 1 0.0129,0.0078 6.4028587,6.4028587 0 0 1 0.032,0.0186 6.4028587,6.4028587 0 0 1 0.12247,0.0739 6.4028587,6.4028587 0 0 1 0.014,0.0083 6.4028587,6.4028587 0 0 1 0.004,0.0026 6.4028587,6.4028587 0 0 1 0.004,0.0026 6.4028587,6.4028587 0 0 1 0.14211,0.09147 6.4028587,6.4028587 0 0 1 0.005,0.0031 6.4028587,6.4028587 0 0 1 5.2e-4,5.17e-4 6.4028587,6.4028587 0 0 1 0.002,10e-4 6.4028587,6.4028587 0 0 1 0.15038,0.102836 6.4028587,6.4028587 0 0 1 0.29456,0.220658 6.4028587,6.4028587 0 0 1 0.14262,0.116789 6.4028587,6.4028587 0 0 1 0.13229,0.115238 6.4028587,6.4028587 0 0 1 0.007,0.0057 6.4028587,6.4028587 0 0 1 0.0129,0.01188 6.4028587,6.4028587 0 0 1 0.10387,0.09509 6.4028587,6.4028587 0 0 1 0.0139,0.01292 6.4028587,6.4028587 0 0 1 0.005,0.0047 6.4028587,6.4028587 0 0 1 0.002,0.0021 6.4028587,6.4028587 0 0 1 0.002,0.0021 6.4028587,6.4028587 0 0 1 0.11885,0.115755 6.4028587,6.4028587 0 0 1 0.009,0.0088 6.4028587,6.4028587 0 0 1 0.006,0.0067 6.4028587,6.4028587 0 0 1 0.004,0.0041 6.4028587,6.4028587 0 0 1 0.10077,0.10387 6.4028587,6.4028587 0 0 1 0.003,0.0026 6.4028587,6.4028587 0 0 1 0.0145,0.01499 6.4028587,6.4028587 0 0 1 0.005,0.0057 6.4028587,6.4028587 0 0 1 0.46767,0.559139 6.4028587,6.4028587 0 0 1 0.10801,0.149345 6.4028587,6.4028587 0 0 1 0.10335,0.152446 6.4028587,6.4028587 0 0 1 0.0889,0.139009 6.4028587,6.4028587 0 0 1 0.009,0.01447 6.4028587,6.4028587 0 0 1 0.001,0.0021 6.4028587,6.4028587 0 0 1 10e-4,0.0016 6.4028587,6.4028587 0 0 1 0.003,0.0047 6.4028587,6.4028587 0 0 1 0.0904,0.151929 6.4028587,6.4028587 0 0 1 0.0899,0.160713 6.4028587,6.4028587 0 0 1 0.0858,0.163298 6.4028587,6.4028587 0 0 1 0.15606,0.333313 6.4028587,6.4028587 0 0 1 0.0708,0.170015 6.4028587,6.4028587 0 0 1 0.0661,0.172083 6.4028587,6.4028587 0 0 1 0.061,0.174149 6.4028587,6.4028587 0 0 1 0.0506,0.15813 6.4028587,6.4028587 0 0 1 0.006,0.01705 6.4028587,6.4028587 0 0 1 0.003,0.0098 6.4028587,6.4028587 0 0 1 0.002,0.0052 6.4028587,6.4028587 0 0 1 0.0465,0.162264 6.4028587,6.4028587 0 0 1 0.046,0.178283 6.4028587,6.4028587 0 0 1 0.0408,0.179834 6.4028587,6.4028587 0 0 1 0.108,0.706934 6.4028587,6.4028587 0 0 1 0.005,0.05323 6.4028587,6.4028587 0 0 1 5.1e-4,0.0057 6.4028587,6.4028587 0 0 1 0.009,0.120406 6.4028587,6.4028587 0 0 1 0.001,0.01085 6.4028587,6.4028587 0 0 1 0.001,0.01499 6.4028587,6.4028587 0 0 1 5.2e-4,0.01034 6.4028587,6.4028587 0 0 1 0,0.0015 6.4028587,6.4028587 0 0 1 0.008,0.172083 6.4028587,6.4028587 0 0 1 0.004,0.17725 6.4028587,6.4028587 0 0 1 0,0.0047 6.4028587,6.4028587 0 0 1 0,5.16e-4 6.4028587,6.4028587 0 0 1 0,5.17e-4 6.4028587,6.4028587 0 0 1 0,5.17e-4 6.4028587,6.4028587 0 0 1 0,5.17e-4 6.4028587,6.4028587 0 0 1 0,5.16e-4 6.4028587,6.4028587 0 0 1 0,5.17e-4 6.4028587,6.4028587 0 0 1 0,5.17e-4 6.4028587,6.4028587 0 0 1 0,0.01033 6.4028587,6.4028587 0 0 1 0,0.05529 6.4028587,6.4028587 0 0 1 0,0.03307 6.4028587,6.4028587 0 0 1 -5.1e-4,0.02119 6.4028587,6.4028587 0 0 1 0,0.02326 6.4028587,6.4028587 0 0 1 -5.2e-4,0.0067 6.4028587,6.4028587 0 0 1 0,0.02635 6.4028587,6.4028587 0 0 1 0,0.0041 6.4028587,6.4028587 0 0 1 -5.2e-4,0.01757 6.4028587,6.4028587 0 0 1 -10e-4,0.03359 6.4028587,6.4028587 0 0 1 -5.2e-4,0.01085 6.4028587,6.4028587 0 0 1 -5.1e-4,0.0186 6.4028587,6.4028587 0 0 1 -5.2e-4,0.01447 6.4028587,6.4028587 0 0 1 0,0.0021 6.4028587,6.4028587 0 0 1 -0.001,0.02015 6.4028587,6.4028587 0 0 1 -5.2e-4,0.0186 6.4028587,6.4028587 0 0 1 -5.2e-4,0.01447 6.4028587,6.4028587 0 0 1 0,0.0036 6.4028587,6.4028587 0 0 1 -0.001,0.01809 6.4028587,6.4028587 0 0 1 -0.003,0.05529 6.4028587,6.4028587 0 0 1 -5.2e-4,0.01085 6.4028587,6.4028587 0 0 1 0,0.0016 6.4028587,6.4028587 0 0 1 -0.002,0.03152 6.4028587,6.4028587 0 0 1 -5.1e-4,0.0062 6.4028587,6.4028587 0 0 1 -0.002,0.02687 6.4028587,6.4028587 0 0 1 -10e-4,0.0093 6.4028587,6.4028587 0 0 1 -5.1e-4,0.01292 6.4028587,6.4028587 0 0 1 -5.2e-4,0.0067 6.4028587,6.4028587 0 0 1 -5.2e-4,0.0041 6.4028587,6.4028587 0 0 1 -0.002,0.02222 6.4028587,6.4028587 0 0 1 -0.001,0.01085 h 10.54561 C 206.33626,12.937944 202.69177,8.5591325 197.98504,5.2841616 Z m -15.76338,0.1793172 c -5.26313,2.9553253 -8.81121,7.5957742 -9.27024,15.2709022 h 10.51099 a 6.4028587,6.4028587 0 0 1 0,-0.0016 6.4028587,6.4028587 0 0 1 0,-5.17e-4 6.4028587,6.4028587 0 0 1 -0.0248,-0.761193 6.4028587,6.4028587 0 0 1 0.0641,-0.73949 6.4028587,6.4028587 0 0 1 5.2e-4,-0.0062 6.4028587,6.4028587 0 0 1 0.002,-0.01395 6.4028587,6.4028587 0 0 1 0.001,-0.0078 6.4028587,6.4028587 0 0 1 0.14573,-0.698149 6.4028587,6.4028587 0 0 1 0,-5.17e-4 6.4028587,6.4028587 0 0 1 0.0269,-0.09612 6.4028587,6.4028587 0 0 1 10e-4,-0.0036 6.4028587,6.4028587 0 0 1 0.2248,-0.665593 6.4028587,6.4028587 0 0 1 0.30747,-0.639754 6.4028587,6.4028587 0 0 1 0.0568,-0.104386 6.4028587,6.4028587 0 0 1 0.37569,-0.586528 6.4028587,6.4028587 0 0 1 0.0548,-0.07235 6.4028587,6.4028587 0 0 1 0.45682,-0.551904 6.4028587,6.4028587 0 0 1 5.2e-4,-5.17e-4 6.4028587,6.4028587 0 0 1 0.004,-0.0041 6.4028587,6.4028587 0 0 1 5.2e-4,-5.17e-4 6.4028587,6.4028587 0 0 1 0.54002,-0.510046 6.4028587,6.4028587 0 0 1 0.0512,-0.04341 6.4028587,6.4028587 0 0 1 0.002,-10e-4 6.4028587,6.4028587 0 0 1 1.27744,-0.825273 z m 7.61297,14.6890262 -2.41329,5.930387 a 6.4028587,6.4028587 0 0 1 -0.55345,-0.260966 6.4028587,6.4028587 0 0 1 -0.0827,-0.04496 6.4028587,6.4028587 0 0 1 -0.50901,-0.306441 6.4028587,6.4028587 0 0 1 -0.004,-0.0021 l -5.3051,9.417513 c 5.94116,3.226651 11.88253,3.341076 17.82372,0 l -5.42396,-9.394258 a 6.4028587,6.4028587 0 0 1 -0.60358,0.348816 6.4028587,6.4028587 0 0 1 -0.002,10e-4 6.4028587,6.4028587 0 0 1 -0.11679,0.05995 6.4028587,6.4028587 0 0 1 -0.001,5.17e-4 6.4028587,6.4028587 0 0 1 -0.62942,0.267684 6.4028587,6.4028587 0 0 1 -0.001,5.16e-4 6.4028587,6.4028587 0 0 1 -0.0424,0.01395 6.4028587,6.4028587 0 0 1 -0.0537,0.01809 6.4028587,6.4028587 0 0 1 -0.63872,0.185001 6.4028587,6.4028587 0 0 1 -0.006,0.0016 6.4028587,6.4028587 0 0 1 -0.0258,0.0062 6.4028587,6.4028587 0 0 1 -0.0264,0.0067 6.4028587,6.4028587 0 0 1 -0.68833,0.111104 6.4028587,6.4028587 0 0 1 -5.2e-4,0 6.4028587,6.4028587 0 0 1 -0.12557,0.01292 6.4028587,6.4028587 0 0 1 -0.003,0 6.4028587,6.4028587 0 0 1 -0.6904,0.02687 6.4028587,6.4028587 0 0 1 -0.0687,-0.0036 6.4028587,6.4028587 0 0 1 -0.64802,-0.05323 6.4028587,6.4028587 0 0 1 -0.004,-5.17e-4 6.4028587,6.4028587 0 0 1 -0.11058,-0.01395 6.4028587,6.4028587 0 0 1 -5.2e-4,0 6.4028587,6.4028587 0 0 1 -0.66456,-0.13746 6.4028587,6.4028587 0 0 1 -0.13539,-0.03824 6.4028587,6.4028587 0 0 1 -0.65784,-0.221692 z" /></g></svg>
