<?xml version="1.0" encoding="UTF-8" standalone="no"?>
<!-- Created with Inkscape (http://www.inkscape.org/) -->

<svg
   width="1642.428"
   height="1506.063"
   viewBox="0 0 1642.428 1506.063"
   version="1.1"
   id="SVGRoot"
   xml:space="preserve"
   sodipodi:docname="icons.svg"
   inkscape:export-filename="icons.svg"
   inkscape:export-xdpi="44.829929"
   inkscape:export-ydpi="44.829929"
   inkscape:version="1.2.2 (b0a8486541, 2022-12-01)"
   xmlns:inkscape="http://www.inkscape.org/namespaces/inkscape"
   xmlns:sodipodi="http://sodipodi.sourceforge.net/DTD/sodipodi-0.dtd"
   xmlns="http://www.w3.org/2000/svg"
   xmlns:svg="http://www.w3.org/2000/svg"><sodipodi:namedview
     id="namedview5267"
     pagecolor="#a0a0a0"
     bordercolor="#000000"
     borderopacity="0.25"
     inkscape:showpageshadow="2"
     inkscape:pageopacity="0"
     inkscape:pagecheckerboard="true"
     inkscape:deskcolor="#d1d1d1"
     showgrid="false"
     showguides="true"
     inkscape:zoom="2.4863821"
     inkscape:cx="462.72051"
     inkscape:cy="1058.3651"
     inkscape:window-width="1360"
     inkscape:window-height="709"
     inkscape:window-x="0"
     inkscape:window-y="29"
     inkscape:window-maximized="1"
     inkscape:current-layer="SVGRoot" /><defs
     id="defs2057" /><path
     d="m 97.853925,124.90949 c 0.157642,0.0901 0.279005,0.16689 0.558219,0.34589 0.172482,0.11057 0.36437,0.2328 0.56114,0.34033 0.183079,0.0703 0.375079,0.10822 0.540633,0.13673 0.154222,0.0266 0.371817,0.0575 0.550923,0.0986 0.0799,0.0155 0.1454,0.0285 0.18276,0.036 -0.0374,-0.007 -0.10288,-0.0205 -0.18276,-0.036 -0.179106,-0.041 -0.396701,-0.072 -0.550923,-0.0986 -0.165554,-0.0285 -0.357554,-0.0664 -0.540633,-0.13673 -0.19677,-0.10753 -0.388658,-0.22976 -0.56114,-0.34033 -0.279214,-0.179 -0.400577,-0.25579 -0.558219,-0.34589 z"
     id="path-1"
     style="fill:#ffffff;fill-rule:nonzero;stroke:none;stroke-linecap:square;stroke-miterlimit:4.8"
     inkscape:export-filename="..\..\..\..\GitHub\Fussionics\assets\img\buttons\login\icons.svg"
     inkscape:export-xdpi="2.1285961"
     inkscape:export-ydpi="2.1285961" /><path
     style="fill:#ffffff;fill-rule:evenodd;stroke:none;stroke-linecap:square;stroke-miterlimit:4.8"
     d="m 104.31684,128.5 53.85759,2.39367"
     id="path5832" /><path
     style="fill:#ffffff;fill-rule:evenodd;stroke:none;stroke-linecap:square;stroke-miterlimit:4.8"
     d="m 105.99241,129.45747 -9.814055,-2.15431"
     id="path5841" /><path
     d="m 128.3074,125.2465 c -0.1408,-3.61128 -0.35286,-11.14497 4.85685,-18.82995 1.31755,-1.94355 2.87588,-3.80586 4.66656,-5.51197 2.53969,-2.419746 6.08783,-5.032932 10.64595,-6.758324 0.107,-0.0405 0.21341,-0.08255 0.31919,-0.12613 4.28982,-1.767292 9.27917,-3.062732 14.74525,-3.557188 5.01687,-0.45382 10.25928,-0.213302 15.38156,0.857213 4.92528,1.029342 9.5787,2.79323 13.68482,5.281438 4.05582,2.457729 7.52279,5.586671 10.2497,9.373241 2.2634,3.24991 3.65073,6.83772 4.43241,10.24673 0.77081,3.36164 0.98886,7.18351 0.97933,8.99603 11.42834,0 5.29471,0.0851 11.84485,0.11959 6.55014,0.0345 11.77124,0.78632 11.79078,-2.44004 0.0312,-5.92321 -0.76716,-17.91294 -9.64331,-30.589143 -0.0254,-0.03632 -0.0511,-0.07249 -0.0769,-0.108514 -4.72559,-6.590262 -10.64763,-11.87857 -17.27688,-15.89573 -6.63455,-4.02038 -13.85234,-6.694568 -21.12954,-8.215445 -7.56003,-1.579982 -15.1715,-1.914256 -22.37503,-1.262633 -7.7928,0.704927 -15.05334,2.551765 -21.49121,5.185758 -8.06183,3.081265 -14.15229,7.612701 -18.45269,11.710027 -3.05257,2.908422 -5.70064,6.074087 -7.94002,9.377463 -4.28807,6.325437 -6.85557,12.811487 -8.2341,18.726027 -1.37126,5.88335 -3.31001,11.87097 -0.27764,13.02808 1.01338,0.3867 6.84255,0.4611 11.24424,0.4031 6.44492,-0.0849 6.8852,-0.01 11.91749,-0.01 z"
     id="path15045"
     style="fill:#ffffff;stroke-width:0.836969;stroke-linecap:square;stroke-miterlimit:4.8" /><path
     d="m 470.38279,124.73503 c -0.1408,-3.61128 -0.35286,-11.14497 4.85685,-18.82995 1.31755,-1.94356 2.87588,-3.80586 4.66656,-5.51197 2.53969,-2.419749 6.08783,-5.032935 10.64595,-6.758327 0.107,-0.0405 0.21341,-0.08255 0.31919,-0.12613 4.28983,-1.767292 9.27917,-3.062732 14.74525,-3.557188 5.01687,-0.45382 10.25928,-0.213302 15.38156,0.857213 4.92528,1.029342 9.5787,2.79323 13.68482,5.281438 4.05582,2.457729 7.52279,5.586674 10.2497,9.373244 2.2634,3.2499 3.65073,6.83772 4.43241,10.24673 0.77081,3.36164 0.98886,7.18351 0.97933,8.99603 11.42834,0 5.29471,0.0851 11.84485,0.11959 6.55014,0.0345 11.77124,0.78631 11.79078,-2.44004 0.0312,-5.92321 -0.76716,-17.91295 -9.64331,-30.589146 -0.0254,-0.03632 -0.0511,-0.07249 -0.0769,-0.108514 -4.72559,-6.590262 -10.64763,-11.87857 -17.27688,-15.89573 -6.63455,-4.02038 -13.85234,-6.694568 -21.12954,-8.215445 -7.56003,-1.579982 -15.1715,-1.914256 -22.37503,-1.262633 -7.7928,0.704927 -15.05334,2.551765 -21.49121,5.185758 -8.06183,3.081265 -14.15228,7.612701 -18.45269,11.710027 -3.05257,2.908422 -5.70064,6.074087 -7.94002,9.377463 -4.28807,6.325437 -6.85557,12.81149 -8.2341,18.72603 -1.37126,5.88335 -3.31001,11.87096 -0.27764,13.02808 1.01338,0.38669 6.84255,0.46109 11.24424,0.40309 6.44492,-0.0849 6.8852,-0.01 11.91749,-0.01 z"
     id="path-1-3-1"
     style="fill:#ffffff;stroke-width:0.836969;stroke-linecap:square;stroke-miterlimit:4.8" /><path
     id="rect15048"
     style="fill:#ffffff;fill-rule:evenodd;stroke-width:9.139;stroke-linecap:square;stroke-linejoin:round;stroke-miterlimit:4.8"
     d="m 110.91928,130.42245 h 116.09658 c 14.91328,0 26.91927,12.006 26.91927,26.91928 v 75.47463 c 0,14.91328 -12.00599,26.91928 -26.91927,26.91928 H 110.91928 C 96.005998,259.73564 84,247.72964 84,232.81636 v -75.47463 c 0,-14.91328 12.005998,-26.91928 26.91928,-26.91928 z" /><path
     d="m 340.95841,122.96017 c 0.15764,0.0901 0.279,0.16689 0.55822,0.34589 0.17248,0.11057 0.36437,0.2328 0.56114,0.34033 0.18308,0.0703 0.37508,0.10822 0.54063,0.13673 0.15422,0.0266 0.37182,0.0575 0.55093,0.0986 0.0799,0.0155 0.14533,0.0285 0.18275,0.036 -0.0374,-0.008 -0.10281,-0.0205 -0.18275,-0.036 -0.17911,-0.041 -0.39671,-0.072 -0.55093,-0.0986 -0.16555,-0.0285 -0.35755,-0.0664 -0.54063,-0.13673 -0.19677,-0.10753 -0.38866,-0.22976 -0.56114,-0.34033 -0.27922,-0.179 -0.40058,-0.25579 -0.55822,-0.34589 z"
     id="path-1-1"
     style="fill:#ffffff;fill-rule:nonzero;stroke:none;stroke-linecap:square;stroke-miterlimit:4.8" /><path
     style="fill:#ffffff;fill-rule:evenodd;stroke:none;stroke-linecap:square;stroke-miterlimit:4.8"
     d="m 347.42132,126.55068 53.85759,2.39367"
     id="path5832-1" /><path
     style="fill:#ffffff;fill-rule:evenodd;stroke:none;stroke-linecap:square;stroke-miterlimit:4.8"
     d="m 349.09689,127.50815 -9.81405,-2.15431"
     id="path5841-9" /><path
     id="rect4007-2"
     style="fill:#ffffff;fill-rule:evenodd;stroke-width:9.139;stroke-linecap:square;stroke-linejoin:round;stroke-miterlimit:4.8"
     d="m 354.16211,130.40974 h 116.09658 c 14.91328,0 26.91927,12.006 26.91927,26.91928 v 75.47463 c 0,14.91328 -12.00599,26.91928 -26.91927,26.91928 H 354.16211 c -14.91328,0 -26.91928,-12.006 -26.91928,-26.91928 v -75.47463 c 0,-14.91328 12.006,-26.91928 26.91928,-26.91928 z" /><path
     id="path14269"
     style="fill:#ffffff;fill-rule:nonzero;stroke:none;stroke-width:0;stroke-linecap:square;stroke-linejoin:round;stroke-miterlimit:4.8;stroke-dasharray:none;stroke-opacity:1"
     d="M 167.51562 447.85938 A 83.729173 124.20261 0 0 0 137.69531 456.16016 C 146.22013 462.1672 156.61892 465.70313 167.87109 465.70312 C 179.02966 465.70313 189.35102 462.22853 197.83594 456.3125 A 83.729173 124.20261 0 0 0 167.51562 447.85938 z M 128.63086 462.25391 A 83.729173 124.20261 0 0 0 83.785156 572.0625 L 167.51562 572.0625 L 251.24414 572.0625 A 83.729173 124.20261 0 0 0 206.86328 462.44922 C 196.14452 470.97478 182.59602 476.08789 167.87109 476.08789 C 153.03301 476.08789 139.38791 470.89795 128.63086 462.25391 z " /><path
     id="path6824-1"
     style="fill:#ffffff;fill-rule:evenodd;stroke-width:10.385;stroke-linecap:square;stroke-miterlimit:4.8"
     d="m 226.09039,411.77002 a 57.574905,57.574905 0 0 1 -57.57491,57.57491 57.574905,57.574905 0 0 1 -57.57491,-57.57491 57.574905,57.574905 0 0 1 57.57491,-57.5749 57.574905,57.574905 0 0 1 57.57491,57.5749 z" /><path
     style="fill:#ffffff;fill-opacity:1;fill-rule:evenodd;stroke:none;stroke-width:4.485;stroke-linecap:square;stroke-linejoin:round;stroke-miterlimit:4.8;stroke-dasharray:none;stroke-opacity:1"
     d="m 413.85088,412.59371 c 13.47037,-13.47037 26.05492,-26.9595 46.69523,-26.9595 25.03714,0 51.08195,36.25108 44.60186,60.4351 -12.35719,46.11766 -91.02043,107.89656 -91.02043,107.89656 0,0 -80.17905,-61.79427 -92.68038,-108.44987 -6.37757,-23.8014 19.62424,-59.20478 44.26526,-59.20478 19.29722,0 36.21677,14.3608 48.13846,26.28249 z"
     id="path13849" /><path
     style="fill:#ffffff;fill-opacity:1;fill-rule:evenodd;stroke:none;stroke-width:10.385;stroke-linecap:square;stroke-linejoin:miter;stroke-miterlimit:4.8;stroke-dasharray:none;stroke-opacity:1"
     d="m 547.66714,560.57504 c -4.04165,-4.03502 -3.8654,-16.6915 -3.8654,-16.6915 l 8.2579,-0.1757 40.58672,-43.92502 -8.6093,-8.78501 c 0,0 -6.05397,7.42211 -10.54201,-0.3514 -4.37632,-7.58 4.3925,-10.0149 4.3925,-10.0149 7.84055,0.18007 13.64581,3.41425 20.38121,8.6093 l 75.35776,-103.51883 52.80145,-3.47868 -3.47868,52.30449 -103.61509,75.66138 c 6.39331,7.45537 8.75528,14.80597 7.95128,21.61754 0,0 -3.96205,8.83768 -11.5542,1.36662 -4.20624,-4.13916 1.6151,-9.3179 1.6151,-9.3179 l -8.57247,-8.32399 -43.35931,40.75029 -0.12424,8.324 c 0,0 -13.35758,0.20796 -17.62322,-4.05069 z"
     id="path20296" /><path
     id="path3768"
     style="fill:#ffffff;fill-rule:evenodd;stroke-width:4.94454;stroke-linecap:square;stroke-miterlimit:4.8"
     inkscape:transform-center-x="0.096948014"
     inkscape:transform-center-y="10.187815"
     d="m 936.54677,544.10352 c 0.15938,-0.17098 -35.00582,-15.00388 -34.80945,-15.00256 0.19637,10e-4 -35.10097,14.36116 -34.94263,14.53427 0.15835,0.17311 3.39384,-56.50579 3.45368,-56.22702 0.0598,0.27878 -24.64793,-43.07429 -24.70945,-42.79633 -0.0615,0.27796 37.10332,-21.04804 36.94393,-20.87706 -0.15939,0.17097 19.86772,-39.85312 19.67135,-39.85444 -0.19637,-10e-4 19.53728,40.28971 19.37893,40.1166 -0.15835,-0.1731 36.92685,21.65139 36.86701,21.37261 -0.0598,-0.27877 -25.02862,42.74078 -24.96709,42.46282 0.0615,-0.27796 2.95433,56.44209 3.11372,56.27111 z"
     sodipodi:nodetypes="cscsssssssc" /><path
     id="path7699"
     style="fill:#ffffff;fill-opacity:1;fill-rule:evenodd;stroke-width:16.9746;stroke-linecap:square;stroke-miterlimit:4.8"
     d="M 1130.8633 344.95312 C 1106.7877 346.75757 1096.6073 361.48254 1094.4551 383.67188 C 1094.4551 383.67188 1106.8317 469.49962 1116.2891 504.79492 C 1117.8659 510.6796 1121.7491 515.33008 1130.334 515.33008 C 1139.7253 515.33008 1143.3932 510.36258 1144.8945 504.75977 C 1154.1911 470.0647 1166.4043 384.25 1166.4043 384.25 C 1164.9958 361.83678 1153.8721 347.09776 1130.8633 344.95312 z M 1131.1113 525.66211 A 22.577654 22.577654 0 0 0 1108.418 548.12305 A 22.577654 22.577654 0 0 0 1130.877 570.81641 A 22.577654 22.577654 0 0 0 1153.5723 548.35742 L 1130.9961 548.23828 L 1153.5723 548.35352 A 22.577654 22.577654 0 0 0 1131.1113 525.66211 z " /><path
     style="fill:#b3b3b3;fill-rule:evenodd;stroke:none;stroke-width:10.385;stroke-linecap:square;stroke-miterlimit:4.8"
     d="m 16.47054,151.89191 1,13"
     id="path12373-5" /><rect
     style="opacity:0;fill:#ffffff;fill-opacity:1;fill-rule:evenodd;stroke:none;stroke-width:10.385;stroke-linecap:square;stroke-miterlimit:4.8;stroke-opacity:1"
     id="rect22671"
     width="76.367531"
     height="97.580734"
     x="1283.7994"
     y="316.05383"
     rx="26.919277"
     ry="26.919277" /><path
     id="path23320"
     style="color:#000000;fill:#ffffff;fill-rule:evenodd;stroke-linecap:round;stroke-miterlimit:4.8;-inkscape-stroke:none"
     d="M 910.5957 608.63672 C 897.42294 608.51385 884.56328 613.23653 876.42383 623.41797 L 874.55469 625.75391 L 873.89648 628.67188 C 868.99851 650.37098 868.02618 656.50744 870.51758 678.67578 A 13.0003 13.0003 0 0 0 884.88867 690.14453 A 13.0003 13.0003 0 0 0 896.35547 675.77344 C 894.11729 655.85825 894.45542 655.37114 898.43555 638.0332 C 900.92091 636.02381 904.72639 634.58423 910.35352 634.63672 C 916.41486 634.69332 919.25304 636.43138 920.88672 638.6543 C 926.60042 656.57073 926.20879 674.81278 918.9043 692.88672 C 917.62613 694.81103 916.80676 695.59627 916.08008 695.99414 C 915.24213 696.45293 913.54172 697.07291 909.22266 697.08203 A 13.0003 13.0003 0 0 0 896.25 710.10938 A 13.0003 13.0003 0 0 0 909.27734 723.08203 C 916.20855 723.06743 922.77158 721.97352 928.56641 718.80078 C 934.36123 715.62804 938.53452 710.72399 941.58203 705.76758 L 942.10938 704.91016 L 942.49805 703.98242 C 952.82164 679.34729 953.29195 653.04066 945.04883 628.73438 L 944.63086 627.50195 L 943.97656 626.37695 C 937.33786 614.9545 924.29889 608.76459 910.5957 608.63672 z M 896.20898 691.30273 C 890.72335 696.86705 880.6873 697.64298 872.89062 694.08008 C 875.03234 702.89102 885.80411 714.83951 893.12305 716.08594 C 888.72852 709.7129 893.08757 697.20584 896.20898 691.30273 z M 897.75 721.5 L 896.125 742.375 C 902.08718 739.81709 907.73976 741.90368 913.375 744.25 L 912.25 728.75 C 905.43248 728.14499 900.7352 725.6041 897.75 721.5 z M 916.4375 746.375 C 919.697 752.54166 923.2343 760.89584 923.1875 767.5625 C 928.12317 764.18823 935.4249 761.01281 943.625 759.5625 C 937.32904 750.75156 924.37515 746.64916 916.4375 746.375 z M 900.02344 747.85938 C 889.61608 749.20292 881.87633 756.54892 877.42578 764.27734 C 872.97524 772.00578 870.67374 780.7531 869.41211 789.83789 C 866.88886 808.00748 868.20165 827.1467 875.02539 841.86133 L 875.91797 843.78711 L 877.37695 845.33008 C 887.68715 856.22136 899.83608 860.02138 909.86719 860.65039 L 910.46875 860.6875 L 911.07031 860.66992 C 919.0501 860.43096 927.69447 859.31803 939.27148 851.06055 L 941.32031 849.59961 L 942.67578 847.47656 C 953.63159 830.33059 965.0607 802.65253 952.54883 776.28906 A 13.0003 13.0003 0 0 0 935.23047 770.11719 A 13.0003 13.0003 0 0 0 929.06055 787.43555 C 935.10405 800.16967 929.49229 818.78459 921.85742 831.59961 C 916.06506 835.90418 918.44087 834.56388 911.13281 834.67578 C 911.27331 834.68445 911.34884 834.69206 911.49414 834.70117 L 910.29102 834.68164 C 910.62337 834.67169 910.83434 834.68035 911.13281 834.67578 C 904.62847 834.27431 903.11348 834.28355 898.0957 829.26172 C 895.31021 821.84822 893.39359 806.17704 895.16602 793.41406 C 896.11031 786.61427 898.00924 780.63626 899.95703 777.25391 C 901.90482 773.87154 902.76158 773.7229 903.35352 773.64648 A 13.0003 13.0003 0 0 0 914.58203 759.08789 A 13.0003 13.0003 0 0 0 900.02344 747.85938 z " /><path
     style="color:#000000;fill:#ffffff;fill-rule:evenodd;stroke-linecap:square;stroke-miterlimit:4.8;-inkscape-stroke:none"
     d="m 624.79102,620.13867 c -12.6971,-0.16761 -27.38936,3.4306 -35.1543,16.10547 h 0.002 c -7.98287,13.0301 -10.37488,28.53939 -9.81445,43.48633 0.56043,14.94694 4.08345,29.43186 10.75586,41.1289 3.96781,6.95594 11.3055,11.38272 17.45508,12.80274 5.89611,1.3615 10.86214,1.06675 15.15625,0.92383 3.8546,0.14158 8.4252,0.75186 14.40429,-0.29102 6.08154,-1.06074 13.6672,-5.39027 17.7793,-12.07812 l 0.006,-0.0117 0.008,-0.01 c 14.46016,-23.6238 18.00574,-58.03692 2.73242,-84.3164 -6.6496,-11.44122 -19.68714,-17.56015 -33.33007,-17.74024 z m -0.3418,25.99805 c 6.84652,0.0904 9.68799,2.21653 11.19336,4.80664 8.52566,14.66937 6.31951,43.38083 -2.43164,57.67773 l 0.0137,-0.0234 c -0.0351,0.057 -0.009,0.0496 -0.0312,0.0937 -0.0357,0.003 -0.0185,-0.0178 -0.0644,-0.01 -0.99357,0.1733 -4.43182,0.0652 -9.31055,-0.0937 l -0.40625,-0.0117 -0.40625,0.0117 c -4.45376,0.13393 -7.82703,0.039 -9.12109,-0.25977 -1.29407,-0.29881 -0.2838,0.41096 -0.71875,-0.35156 -3.8274,-6.7096 -6.93956,-18.02393 -7.35938,-29.2207 -0.41982,-11.19677 1.86369,-22.17497 6.00195,-28.92969 1.45565,-2.37608 4.26468,-3.80002 12.64063,-3.68945 z"
     id="path23320-4" /><path
     style="color:#000000;fill:#ffffff;fill-rule:evenodd;stroke-linecap:square;stroke-miterlimit:4.8;-inkscape-stroke:none"
     d="m 623.89258,753.59375 -0.69336,0.0273 c -5.92682,0.23356 -11.97094,0.82974 -18.09375,3.05274 -6.12281,2.223 -12.41864,6.58377 -16.37695,13.04492 -7.98284,13.03011 -10.37487,28.53939 -9.81446,43.48633 0.56041,14.94694 4.08532,29.43183 10.75781,41.1289 3.71434,6.51157 9.84509,11.08686 15.76563,13.29297 5.92054,2.20611 11.55805,2.60598 16.69531,2.69141 4.88668,0.0813 10.32537,0.0265 16.28516,-1.91797 5.95979,-1.94442 12.18529,-6.42856 16.04687,-12.70898 l 0.006,-0.0117 0.008,-0.0117 c 14.46036,-23.62387 18.00784,-58.03696 2.73437,-84.31641 -6.80911,-11.71602 -19.85089,-16.85001 -32.62695,-17.71094 z m -0.40625,26.07422 c 7.11268,0.59345 9.94497,2.51123 11.24609,4.75 8.52437,14.66699 6.32188,43.36873 -2.42578,57.66797 -0.85608,1.39178 -0.7767,1.21384 -1.95312,1.59765 -1.18318,0.38602 -3.89723,0.7014 -7.78711,0.63672 -3.74737,-0.0623 -6.60032,-0.51617 -8.05079,-1.05664 -1.45046,-0.54047 -1.57133,-0.60562 -2.25976,-1.8125 -3.82743,-6.70959 -6.93957,-18.02396 -7.35938,-29.2207 -0.4198,-11.19674 1.86365,-22.17487 6.00196,-28.92969 0.65198,-1.06422 1.04114,-1.44652 3.08203,-2.1875 1.91735,-0.69613 5.29794,-1.22934 9.50586,-1.44531 z"
     id="path23320-3-1" /><g
     id="path24070-1"
     style="fill:#ffffff"><path
       style="color:#000000;fill:#ffffff;fill-opacity:0.555556;fill-rule:evenodd;stroke-width:26.0006;stroke-linecap:round;stroke-linejoin:round;stroke-miterlimit:4.8;-inkscape-stroke:none"
       d="m 623.36507,785.06668 -0.30176,-83.01967"
       id="path571" /><path
       style="color:#000000;fill:#ffffff;fill-rule:evenodd;stroke-linecap:round;stroke-linejoin:round;stroke-miterlimit:4.8;-inkscape-stroke:none"
       d="m 623.01562,689.04687 a 13.0003,13.0003 0 0 0 -12.95312,13.04688 l 0.30273,83.01953 a 13.0003,13.0003 0 0 0 13.04688,12.95313 13.0003,13.0003 0 0 0 12.95312,-13.04688 L 636.06445,702 a 13.0003,13.0003 0 0 0 -13.04883,-12.95313 z"
       id="path573" /></g><path
     style="opacity:1;fill:#ffffff;fill-opacity:1;fill-rule:evenodd;stroke:none;stroke-width:21.8527;stroke-linecap:round;stroke-linejoin:miter;stroke-miterlimit:4.8;stroke-dasharray:none;stroke-opacity:1"
     d="m 165.70563,813.67839 82.57869,-0.6256 v -9.38394 l -18.76788,-18.76789 c -2.47076,-31.57207 8.44168,-64.90509 -14.07591,-93.83943 -8.80016,-10.28053 -19.45995,-18.70141 -34.72059,-22.52146 0,0 3.68804,-21.93381 -15.62419,-21.93381 -16.72465,0 -14.09163,21.62101 -14.09163,21.62101 -15.08501,3.85641 -26.14032,12.54848 -35.34619,23.45986 -21.948893,26.09368 -10.28596,61.60169 -12.82472,92.90103 l -19.706279,19.70629 v 9.07114 z"
     id="path36229"
     sodipodi:nodetypes="ccccccscccccc" /><path
     style="opacity:1;fill:#ffffff;fill-opacity:1;fill-rule:evenodd;stroke:none;stroke-width:43.635;stroke-linecap:round;stroke-linejoin:miter;stroke-miterlimit:4.8;stroke-dasharray:none;stroke-opacity:1"
     d="m 137.32812,815.46285 h 58.08815 c 0,0 -10.39344,20.06374 -30.36109,20.06374 -19.39955,0 -27.72706,-20.06374 -27.72706,-20.06374 z"
     id="path36957"
     sodipodi:nodetypes="ccsc" /><path
     id="path37094"
     style="opacity:1;fill:#ffffff;fill-rule:evenodd;stroke-width:24.7;stroke-linecap:round;stroke-miterlimit:4.8"
     d="m 436.2846,735.50269 a 21.213203,21.213203 0 0 1 -21.32346,21.10128 21.213203,21.213203 0 0 1 -21.10238,-21.32236 21.213203,21.213203 0 0 1 21.32128,-21.10348 21.213203,21.213203 0 0 1 21.10458,21.32018 l -21.21293,-0.10726 z" /><path
     style="color:#000000;fill:#ffffff;fill-rule:evenodd;stroke-width:36.4142;stroke-linecap:round;stroke-miterlimit:4.8;-inkscape-stroke:none;fill-opacity:1"
     d="m 1200.1213,736.47628 -98.0757,-0.15635"
     id="path503" /><path
     id="path505"
     style="color:#000000;fill:#ffffff;fill-rule:evenodd;stroke-linecap:round;stroke-miterlimit:4.8;-inkscape-stroke:none;fill-opacity:1"
     d="m 1207.2637,699.25 c -5.1198,0 -9.2422,4.12233 -9.2422,9.24219 v 9.77343 l -91.2598,-0.14453 v -8.55664 c 0,-5.31571 -4.28,-9.59375 -9.5957,-9.59375 h -50.373 c -5.3158,0 -9.5957,4.27804 -9.5957,9.59375 v 53.79493 c 0,5.31571 4.2799,9.59374 9.5957,9.59374 h 50.373 c 5.3157,0 9.5957,-4.27803 9.5957,-9.59374 v -8.82422 l 91.2598,0.14453 v 8.3125 c 0,5.11985 4.1224,9.24219 9.2422,9.24219 h 51.0801 c 5.1198,-10e-6 9.2402,-4.12234 9.2402,-9.24219 v -54.5 c 0,-5.11986 -4.1204,-9.24219 -9.2402,-9.24219 z" /><path
     id="path508"
     style="color:#000000;display:inline;fill:#fcfcfc;fill-rule:evenodd;stroke-linecap:round;stroke-miterlimit:4.8;-inkscape-stroke:none;fill-opacity:1"
     d="M 1491.7129 698.53906 C 1486.5931 698.53906 1482.4707 702.6614 1482.4707 707.78125 L 1482.4707 717.55469 L 1447.6973 717.5 L 1466.4277 753.94336 L 1482.4707 753.96875 L 1482.4707 762.28125 C 1482.4707 767.40109 1486.5931 771.52344 1491.7129 771.52344 L 1542.793 771.52344 C 1547.9128 771.52343 1552.0332 767.40109 1552.0332 762.28125 L 1552.0332 707.78125 C 1552.0332 702.6614 1547.9128 698.53906 1542.793 698.53906 L 1491.7129 698.53906 z M 1331.2422 699.25977 C 1325.9264 699.25977 1321.6465 703.53781 1321.6465 708.85352 L 1321.6465 762.64844 C 1321.6465 767.96414 1325.9264 772.24219 1331.2422 772.24219 L 1381.6152 772.24219 C 1386.9309 772.24219 1391.2109 767.96414 1391.2109 762.64844 L 1391.2109 753.82422 L 1425.5625 753.87891 L 1406.832 717.43555 L 1391.2109 717.41016 L 1391.2109 708.85352 C 1391.2109 703.53781 1386.9309 699.25977 1381.6152 699.25977 L 1331.2422 699.25977 z " /><path
     style="color:#000000;fill:#ffffff;stroke-width:0.901152;-inkscape-stroke:none"
     d="m 1337.1679,369.69151 c -49.5454,-2e-5 -89.992,40.4448 -89.992,89.99023 0,49.54543 40.4466,89.99201 89.992,89.99198 49.5454,3e-5 89.9902,-40.44655 89.9902,-89.99198 0,-49.54543 -40.4448,-89.99025 -89.9902,-89.99023 z m 0,26.26893 c 35.3483,-2e-5 63.7213,28.37294 63.7213,63.7213 0,35.34836 -28.373,63.72307 -63.7213,63.72305 -35.3484,2e-5 -63.7231,-28.37469 -63.7231,-63.72305 0,-35.34836 28.3747,-63.72132 63.7231,-63.7213 z"
     id="path15061" /><path
     style="color:#000000;fill:#ffffff;stroke-width:0.901152;-inkscape-stroke:none"
     d="m 1291.6896,390.82458 -21.8547,22.93361 114.2228,108.84577 21.8547,-22.93537 z"
     id="path15058" /><path
     id="path20010"
     style="fill:#ffffff;fill-opacity:1;fill-rule:nonzero;stroke:none;stroke-width:34.351;stroke-linecap:square;stroke-linejoin:miter;stroke-miterlimit:3.5;stroke-dasharray:none;stroke-dashoffset:0;stroke-opacity:1;paint-order:stroke fill markers"
     d="M 743.69525 61.688337 C 706.73169 61.752068 739.1611 78.231441 707.18158 96.768415 C 675.20206 115.30539 677.02028 78.975165 658.59369 111.01842 C 640.1671 143.06166 670.65301 123.21696 670.71674 160.18052 C 670.78047 197.14409 640.22664 177.40413 658.76361 209.38365 C 677.30058 241.36317 675.35708 205.03909 707.40033 223.46568 C 739.44358 241.89227 707.07153 258.48449 744.0351 258.42076 C 780.99866 258.35703 748.56925 241.87765 780.54877 223.34068 C 812.52829 204.80371 810.71202 241.13393 829.13861 209.09068 C 847.5652 177.04743 817.07734 196.89213 817.01361 159.92857 C 816.94988 122.96501 847.50566 142.70497 828.96869 110.72545 C 810.43172 78.745929 812.37327 115.07 780.33002 96.643415 C 748.28677 78.216827 780.65882 61.624606 743.69525 61.688337 z M 743.71283 119.11998 A 40.384239 40.384239 0 0 1 783.89056 159.70787 L 743.50775 159.50474 L 783.89056 159.71763 A 40.384239 40.384239 0 0 1 743.29681 199.88756 A 40.384239 40.384239 0 0 1 703.12299 159.29576 A 40.384239 40.384239 0 0 1 743.71283 119.11998 z "
     transform="translate(5.6406852,13.044085)" /><path
     id="path24150"
     style="fill:#ffffff;fill-opacity:1;fill-rule:nonzero;stroke:none;stroke-width:30.2094;stroke-linecap:square;stroke-linejoin:miter;stroke-miterlimit:3.5;stroke-dasharray:none;stroke-dashoffset:0;stroke-opacity:1;paint-order:stroke fill markers"
     d="m 902.05946,358.82794 -79.54895,85.38011 11.40574,19.72875 68.41193,-52.26819 67.47214,53.04409 11.26925,-19.16465 z" /><path
     id="path24150-2"
     style="fill:#ffffff;fill-opacity:1;fill-rule:nonzero;stroke:none;stroke-width:28.1365;stroke-linecap:square;stroke-linejoin:miter;stroke-miterlimit:3.5;stroke-dasharray:none;stroke-dashoffset:0;stroke-opacity:1;paint-order:stroke fill markers"
     d="m 901.95736,415.67988 -74.09044,79.52148 10.62309,18.375 63.71763,-48.68164 62.84231,49.4043 10.496,-17.84961 z" /><path
     style="fill:#ffffff;stroke-width:34.351;stroke-linecap:square;stroke-miterlimit:3.5;paint-order:stroke fill markers"
     d="m 1511.83,575.48559 105.0578,-138.54938 -65.9255,-1.41017 23.9729,-83.90519 -114.5765,137.13914 66.9832,1.4102 z"
     id="path434" /><path
     style="fill:#ffffff;fill-opacity:0.996988;fill-rule:evenodd;stroke-width:1.94999;stroke-linecap:square;stroke-miterlimit:0;paint-order:markers fill stroke"
     d="m 109.9763,897.44693 c -10.773842,18.66096 -10.645042,174.88077 0,193.31857 10.43882,18.0803 137.34794,-79.753 137.34794,-99.82106 0,-24.02691 -125.73043,-113.61945 -137.34794,-93.49751 z"
     id="path421"
     sodipodi:nodetypes="ssss" /><rect
     style="fill:#ffffff;fill-opacity:0.996988;fill-rule:evenodd;stroke-width:1.43995;stroke-linecap:square;stroke-miterlimit:0;paint-order:markers fill stroke"
     id="rect2624"
     width="200.15508"
     height="48.072166"
     x="975.2088"
     y="-854.56598"
     rx="9.8815203"
     ry="9.8815203"
     transform="rotate(45.835352)" /><rect
     style="fill:#ffffff;fill-opacity:0.996988;fill-rule:evenodd;stroke-width:1.43995;stroke-linecap:square;stroke-miterlimit:0;paint-order:markers fill stroke"
     id="rect2628"
     width="200.15508"
     height="48.072166"
     x="-898.16614"
     y="-1123.6156"
     rx="9.8815203"
     ry="9.8815203"
     transform="rotate(134.12617)" /></svg>
