<?xml version="1.0" encoding="UTF-8" standalone="no"?>
<!-- Created with Inkscape (http://www.inkscape.org/) -->

<svg
   width="32"
   height="32"
   viewBox="0 0 8.4666664 8.4666667"
   version="1.1"
   id="svg5"
   inkscape:version="1.2.2 (b0a8486541, 2022-12-01)"
   inkscape:export-filename="action_select.png"
   inkscape:export-xdpi="384"
   inkscape:export-ydpi="384"
   sodipodi:docname="action_select.svg"
   xmlns:inkscape="http://www.inkscape.org/namespaces/inkscape"
   xmlns:sodipodi="http://sodipodi.sourceforge.net/DTD/sodipodi-0.dtd"
   xmlns:xlink="http://www.w3.org/1999/xlink"
   xmlns="http://www.w3.org/2000/svg"
   xmlns:svg="http://www.w3.org/2000/svg">
  <sodipodi:namedview
     id="namedview7"
     pagecolor="#505050"
     bordercolor="#eeeeee"
     borderopacity="1"
     inkscape:showpageshadow="0"
     inkscape:pageopacity="0"
     inkscape:pagecheckerboard="0"
     inkscape:deskcolor="#505050"
     inkscape:document-units="mm"
     showgrid="false"
     inkscape:zoom="15.88044"
     inkscape:cx="12.279257"
     inkscape:cy="16.372343"
     inkscape:window-width="1360"
     inkscape:window-height="710"
     inkscape:window-x="0"
     inkscape:window-y="0"
     inkscape:window-maximized="1"
     inkscape:current-layer="layer1" />
  <defs
     id="defs2">
    <linearGradient
       inkscape:collect="always"
       id="linearGradient2648">
      <stop
         style="stop-color:#215c77;stop-opacity:1;"
         offset="0.84763026"
         id="stop2644" />
      <stop
         style="stop-color:#162945;stop-opacity:1;"
         offset="1"
         id="stop2646" />
    </linearGradient>
    <linearGradient
       inkscape:collect="always"
       id="linearGradient2461">
      <stop
         style="stop-color:#397275;stop-opacity:1;"
         offset="0"
         id="stop2457" />
      <stop
         style="stop-color:#122b43;stop-opacity:1;"
         offset="0.85528684"
         id="stop2459" />
    </linearGradient>
    <radialGradient
       inkscape:collect="always"
       xlink:href="#linearGradient2461"
       id="radialGradient2463"
       cx="4.2955527"
       cy="4.3855119"
       fx="4.2955527"
       fy="4.3855119"
       r="3.3946187"
       gradientUnits="userSpaceOnUse"
       gradientTransform="matrix(6.8411176e-5,-0.98210919,1,6.563937e-5,-0.15324758,8.4517469)"
       spreadMethod="pad" />
    <radialGradient
       inkscape:collect="always"
       xlink:href="#linearGradient2648"
       id="radialGradient2642"
       cx="4.2325587"
       cy="4.2333331"
       fx="4.2325587"
       fy="4.2333331"
       r="4.0979411"
       gradientUnits="userSpaceOnUse"
       gradientTransform="matrix(-0.55088277,-0.81702394,0.82913458,-0.55904906,3.0541991,10.058076)" />
  </defs>
  <g
     inkscape:label="Camada 1"
     inkscape:groupmode="layer"
     id="layer1">
    <path
       id="path1825"
       style="display:inline;fill:url(#radialGradient2642);fill-opacity:1;stroke:none;stroke-width:0.146351;stroke-dasharray:none"
       d="M 4.2333333,0.13539225 C 1.9701212,0.1354364 0.1354364,1.9701212 0.13539225,4.2333333 0.13543638,6.4965454 1.9701212,8.3312302 4.2333333,8.3312744 6.4965454,8.3312303 8.3312303,6.4965454 8.3312744,4.2333333 8.3312302,1.9701212 6.4965454,0.13543638 4.2333333,0.13539225 Z m 0,0.70332232 C 6.1080939,0.83880035 7.6278663,2.3585727 7.6279521,4.2333333 7.6278663,6.108094 6.108094,7.6278663 4.2333333,7.6279521 2.3585727,7.6278663 0.83880035,6.1080939 0.83871457,4.2333333 0.83880039,2.3585727 2.3585727,0.83880039 4.2333333,0.83871457 Z"
       sodipodi:nodetypes="cccccccccc" />
    <path
       id="path1148"
       style="color:#000000;display:inline;fill:#fcfdff;-inkscape-stroke:none"
       d="M 4.2323091,-0.045377 C 3.0501947,-0.04532283 1.9810593,0.43284205 1.2071772,1.2067243 1.0137068,1.4001946 0.81619505,1.5980645 0.68526319,1.839422 l 0.003559,0.2983277 C 0.31290483,2.7721837 0.11417526,3.495892 0.1133766,4.2333333 0.11402334,4.970728 0.31257879,5.6944332 0.68832009,6.328917 l -0.003057,0.2963581 C 0.81619711,6.8667586 1.0137068,7.0648511 1.2071772,7.2584652 1.9810592,8.0329219 3.0501946,8.5119896 4.2323091,8.5120437 5.4144237,8.5119896 6.4835592,8.0329219 7.2574411,7.2584652 7.4509115,7.0648511 7.6494058,6.8667586 7.7803398,6.6252751 L 7.7767812,6.328917 C 8.1523469,5.6943834 8.3507282,4.9706814 8.351223,4.2333333 8.3505763,3.4959387 8.1520209,2.7722335 7.7762796,2.1377497 L 7.7803391,1.839422 C 7.6494078,1.5980645 7.4509115,1.4001946 7.257441,1.2067243 6.483559,0.43284205 5.4144236,-0.04532283 4.2323091,-0.045377 Z m 0.00102,0.38902527 c 0.5578507,9.33e-6 1.0894422,0.11261851 1.5725139,0.31677653 l 0.35295,0.0227376 C 6.2887139,0.69149446 6.3842156,0.81270222 6.4915934,0.88521729 6.7063489,1.0302475 6.9063886,1.1956198 7.088973,1.3782104 7.8193109,2.1085727 8.2703149,3.1176322 8.2702962,4.2333333 8.2702776,5.3490344 7.8188186,6.3586351 7.0884562,7.088973 6.9058658,7.2715574 6.7058368,7.4364263 6.4910767,7.5814494 6.3836965,7.6539608 6.2881973,7.7751761 6.1582804,7.7835042 l -0.35295,0.022738 C 5.3222519,8.0103834 4.791184,8.1230278 4.2333333,8.1230184 3.6754828,8.1230091 3.1440744,8.0103998 2.6608195,7.8062419 l -0.35295,-0.022738 C 2.1779065,7.7751727 2.0819915,7.6539642 1.9745565,7.5814494 1.7596866,7.4364191 1.5598834,7.2710468 1.3771769,7.0884562 0.64635086,6.3580939 0.1942847,5.3490344 0.19430339,4.2333333 0.19432208,3.1176322 0.64632634,2.1085483 1.3771769,1.3782104 1.5598894,1.195626 1.7601987,1.0302403 1.9750732,0.88521729 2.0825106,0.81270581 2.1779063,0.69148986 2.3078695,0.68316243 l 0.35295,-0.0227376 C 3.1440812,0.45628293 3.6754828,0.34363891 4.2333333,0.34364827 Z"
       sodipodi:nodetypes="cscccccscscccccscsccsssssccsccsssssccss" />
    <circle
       style="display:inline;fill:url(#radialGradient2463);fill-opacity:1;stroke:none;stroke-width:0.162565;stroke-dasharray:none;stroke-opacity:1"
       id="path2387"
       cx="4.2333331"
       cy="4.2333331"
       r="3.3946187" />
    <path
       id="path1769"
       style="color:#000000;display:inline;fill:#fcfdff;stroke-width:0.916477;-inkscape-stroke:none"
       d="M 4.2327904,0.77817126 C 6.1403957,0.77825862 7.6869619,2.3248247 7.6870493,4.2324301 7.686962,6.1400354 6.1403958,7.6889247 4.2327904,7.6890122 2.325185,7.6889247 0.77815444,6.1400354 0.77806703,4.2324301 0.77815444,2.3248247 2.3251851,0.77825862 4.2327904,0.77817126 Z m 0,0.12127543 C 3.3117479,0.89948889 2.4785554,1.2722569 1.8755864,1.875226 1.7248441,2.0259682 1.5705623,2.1801734 1.468547,2.3682269 L 1.522912,2.630758 A 3.1501836,3.1501836 0 0 0 1.0833465,4.2333594 3.1501836,3.1501836 0 0 0 1.5224472,5.8359608 l -0.0539,0.2611371 C 1.5705639,6.2852493 1.7248441,6.4397092 1.8755864,6.5905634 2.4785553,7.19398 3.3117478,7.56723 4.2327904,7.5672721 5.1538331,7.56723 5.9870256,7.19398 6.5899945,6.5905634 6.7407367,6.4397092 6.8945523,6.2852493 6.9965692,6.0970979 L 6.942669,5.8359608 A 3.1501836,3.1501836 0 0 0 7.3822344,4.2333594 3.1501836,3.1501836 0 0 0 6.9422044,2.630758 L 6.9965692,2.3682269 C 6.8945539,2.1801734 6.7407367,2.0259682 6.5899945,1.875226 5.9870255,1.2722569 5.153833,0.89948889 4.2327904,0.89944669 Z" />
  </g>
</svg>
