<?xml version="1.0" encoding="UTF-8" standalone="no"?>
<!-- Created with Inkscape (http://www.inkscape.org/) -->

<svg
   width="2000"
   height="2000"
   viewBox="0 0 2000 2000"
   version="1.1"
   id="svg5"
   inkscape:version="1.2.2 (b0a8486541, 2022-12-01)"
   sodipodi:docname="Panel_Containers.svg"
   xml:space="preserve"
   inkscape:export-filename="PcBiel\GitHub\Fussionics\assets\img\elements\Panel_Containers.svg"
   inkscape:export-xdpi="96"
   inkscape:export-ydpi="96"
   xmlns:inkscape="http://www.inkscape.org/namespaces/inkscape"
   xmlns:sodipodi="http://sodipodi.sourceforge.net/DTD/sodipodi-0.dtd"
   xmlns:xlink="http://www.w3.org/1999/xlink"
   xmlns="http://www.w3.org/2000/svg"
   xmlns:svg="http://www.w3.org/2000/svg"><sodipodi:namedview
     id="namedview7"
     pagecolor="#888888"
     bordercolor="#000000"
     borderopacity="0.25"
     inkscape:showpageshadow="true"
     inkscape:pageopacity="0"
     inkscape:pagecheckerboard="true"
     inkscape:deskcolor="#bfbfbf"
     inkscape:document-units="px"
     showgrid="false"
     showguides="false"
     inkscape:zoom="1.4100696"
     inkscape:cx="1133.2774"
     inkscape:cy="869.46064"
     inkscape:window-width="1360"
     inkscape:window-height="710"
     inkscape:window-x="0"
     inkscape:window-y="0"
     inkscape:window-maximized="1"
     inkscape:current-layer="layer10"
     showborder="true"
     borderlayer="false"
     inkscape:lockguides="true" /><defs
     id="defs2"><clipPath
       clipPathUnits="userSpaceOnUse"
       id="clipPath10270"><use
         x="0"
         y="0"
         xlink:href="#g10266"
         id="use10272" /></clipPath><clipPath
       clipPathUnits="userSpaceOnUse"
       id="clipPath10287"><use
         x="0"
         y="0"
         xlink:href="#g10283"
         id="use10289" /></clipPath><clipPath
       clipPathUnits="userSpaceOnUse"
       id="clipPath10304"><use
         x="0"
         y="0"
         xlink:href="#g10300"
         id="use10306" /></clipPath><clipPath
       clipPathUnits="userSpaceOnUse"
       id="clipPath10321"><use
         x="0"
         y="0"
         xlink:href="#g10317"
         id="use10323" /></clipPath><clipPath
       clipPathUnits="userSpaceOnUse"
       id="clipPath10335"><use
         x="0"
         y="0"
         xlink:href="#g10331"
         id="use10337" /></clipPath><clipPath
       clipPathUnits="userSpaceOnUse"
       id="clipPath14536"><g
         id="g14540"><g
           inkscape:label="Clip"
           id="use14538"
           clip-path="url(#clipPath14536)"><path
             id="path14542"
             style="fill:#1b114a;fill-opacity:1;stroke-width:4.61398;stroke-linecap:square;paint-order:fill markers stroke"
             d="m 865,796 7.50195,17.49219 h 7.08203 l 1.47461,3.35547 h -7.11718 l 1.8164,4.23632 h 7.16211 l 1.47266,3.35352 h -7.19531 l 1.8164,4.23633 h 7.24024 l 1.47461,3.35547 h -7.2754 l 1.81641,4.23632 h 7.32227 l 1.47265,3.35547 h -7.35547 l 22.98438,53.58789 0.88086,85.12891 13.47851,14.18555 v -64.84766 l 21.92774,-21.92773 h 190.74023 v -20.22657 h -64.8867 l -17.0313,10 h -42.289 l -28.27737,-20.69726 h -65.67969 l -27.62305,-61.09375 h 44.89453 L 948.93945,804 h 184.78125 v -8 z" /><path
             id="path14544"
             style="fill:#478bff;fill-opacity:1;stroke:none;stroke-width:2;stroke-linecap:square;stroke-linejoin:miter;stroke-dasharray:none;stroke-opacity:1;paint-order:fill markers stroke"
             d="m 905.26758,884.05664 v 92.42969 l 17.1875,18.91211 -0.25586,-9.81836 -11.10352,-12.50586 v -77.9336 z m 8.59375,70.0293 v 5.35742 l 9.50781,10.46289 -0.14062,-5.43164 z m 0,10 v 5.35742 l 9.50781,10.46289 -0.14062,-5.43164 z"
             sodipodi:nodetypes="ccccccccccccccccc" /><path
             id="path14546"
             style="fill:#478bff;fill-opacity:1;stroke:none;stroke-width:2;stroke-linecap:square;stroke-linejoin:miter;stroke-dasharray:none;stroke-opacity:1;paint-order:fill markers stroke"
             d="m 942.23633,903.51172 -18.67578,17.6289 h 6.20703 l 14.02148,-14.02343 h 18.64844 l -3.6055,-3.60547 z"
             sodipodi:nodetypes="ccccccc" /><path
             id="path14548"
             style="fill:#478bff;fill-opacity:1;stroke:none;stroke-width:2;stroke-linecap:square;stroke-linejoin:miter;stroke-dasharray:none;stroke-opacity:1;paint-order:fill markers stroke"
             d="m 978.13628,881.32119 -59.59798,0.28906 12.93622,11.24872 62.93978,0.24805 z"
             sodipodi:nodetypes="ccccc" /><path
             id="path14550"
             style="fill:#3b3b73;fill-opacity:1;stroke:none;stroke-width:2.19138;stroke-linecap:square;stroke-linejoin:miter;stroke-dasharray:none;stroke-opacity:1;paint-order:fill markers stroke"
             d="m 994.55108,881.52148 14.96952,10.95691 h 41.9528 l 18.6611,-10.95691 z"
             sodipodi:nodetypes="ccccc" /><path
             style="fill:#478bff;fill-opacity:1;stroke:none;stroke-width:2;stroke-linecap:square;stroke-linejoin:miter;stroke-dasharray:none;stroke-opacity:1;paint-order:fill markers stroke"
             d="m 885.4525,809.88144 h 46.4295 l 16.08123,-8.96305 h -67.20369 z"
             id="path14552"
             sodipodi:nodetypes="ccccc" /><path
             id="path14554"
             style="fill:#d6edff;fill-opacity:1;stroke:none;stroke-width:2;stroke-linecap:square;stroke-linejoin:miter;stroke-dasharray:none;stroke-opacity:1;paint-order:fill markers stroke"
             d="m 902.72588,829.70029 -1.29102,6.27344 6.42969,13.84961 v 17.69336 l -10.49414,9.5332 v 76.04297 l 4.42774,7.98828 v -81.35742 l 11.39843,-9.60742 h 13.45312 l 12.72657,6.62684 h 30.1056 l -6,-4.07422 h -22.1056 l -15.4729,-7.74927 h -12.70679 v -14.74671 z"
             sodipodi:nodetypes="cccccccccccccccccc" /><path
             style="fill:#d6edff;fill-opacity:1;stroke:none;stroke-width:2;stroke-linecap:square;stroke-linejoin:miter;stroke-dasharray:none;stroke-opacity:1;paint-order:fill markers stroke"
             d="m 890.22576,863.68674 -27.23643,-65.46316 -0.29781,9.71112 19.82186,48.88389 z"
             id="path14556"
             sodipodi:nodetypes="ccccc" /></g></g></clipPath></defs><path
     id="path14941-7"
     style="display:inline;opacity:0.547667;fill:#131853;fill-opacity:0.270588;fill-rule:evenodd;stroke-width:2.84847;stroke-linecap:square;stroke-miterlimit:0;paint-order:markers fill stroke"
     d="m 44.39765,941.40979 -19.46159,24.14889 v 447.08942 l 19.46159,24.1457 H 69.4866 l 6.23889,-7.5108 h 60.64871 l 6.36575,7.5108 h 345.24057 l 19.7295,-24.1457 V 965.55868 l -19.7295,-24.14889 z"
     sodipodi:nodetypes="ccccccccccccc" /><g
     id="layer2"
     inkscape:label="Paineis"
     inkscape:highlight-color="#efc4fc"
     inkscape:groupmode="layer"><g
       inkscape:groupmode="layer"
       id="layer1"
       inkscape:label="Super_Grande"><g
         inkscape:groupmode="layer"
         id="layer7"
         inkscape:label="Um"><g
           id="g10319"
           clip-path="url(#clipPath10321)"
           style="display:inline"><g
             inkscape:label="Clip"
             id="g10317"><path
               id="path25162"
               style="opacity:1;fill:#1b114a;fill-opacity:1;fill-rule:evenodd;stroke-width:1.751;stroke-linecap:square;stroke-miterlimit:0;paint-order:markers fill stroke"
               d="m 1419.5235,347.09993 -14.5664,10.5 v 195.55383 l 14.5664,15.0957 h 457.8375 l -9.8554,-10.3457 h 74.9804 l -9.3359,10.3457 h 31.1992 l 4.0566,-4.0586 -11.4238,-13.6133 2.7754,-2.3301 11.2207,13.3731 13.5195,-13.5215 V 357.59993 l -14.83,-10.5 h -0.6211 v 190.46793 l -14.4981,14.498 h -460.4411 l 5.0176,5.9199 h -53.9179 l 4.916,-5.9199 h -15.0645 l -14.498,-14.498 V 347.09993 Z m 564.9742,206.12413 -11.1836,11.1816 2.0254,2.4141 9.1582,-9.1582 z m 0,9.5625 -5.4765,5.4766 5.4765,0.01 z m -13.7539,4.1895 -1.2734,1.2734 h 0.1973 2.1464 z"
               sodipodi:nodetypes="ccccccccccccccccccccccccccccccccccccccccc" /><path
               id="path25164"
               style="opacity:1;fill:#d6edff;fill-opacity:1;fill-rule:evenodd;stroke-width:1.751;stroke-linecap:square;stroke-miterlimit:0;paint-order:markers fill stroke"
               d="m 1431.8926,23.393104 -14.8437,14.84375 V 540.75926 l 14.8437,14.8437 h 15.293 l 2.9375,-3.5371 h -15.0645 l -11.6696,-14.498 V 41.428264 l 11.6696,-14.5 h 519.4899 l 11.8731,14.5 V 537.56786 l -11.8731,14.498 h -460.4411 l 2.9981,3.5371 h 460.609 l 14.8418,-14.8437 V 38.236854 l -14.8418,-14.84375 z"
               sodipodi:nodetypes="ccccccccccccccccccccc" /><path
               id="path25166"
               style="opacity:1;fill:#131853;fill-opacity:0.270588;fill-rule:evenodd;stroke-width:1.71034;stroke-linecap:square;stroke-miterlimit:0;paint-order:markers fill stroke"
               d="m 1435.0586,26.928264 -11.6855,14.5 V 537.56786 l 11.6855,14.498 h 15.0645 l 3.7461,-4.5098 h 36.416 l 3.8222,4.5098 h 460.4411 l 11.8464,-14.498 V 41.428264 l -11.8464,-14.5 z"
               sodipodi:nodetypes="ccccccccccccc" /><path
               id="path25168"
               style="opacity:1;fill:#1b114a;fill-opacity:1;fill-rule:evenodd;stroke-width:1.75059;stroke-linecap:square;stroke-miterlimit:0;paint-order:markers fill stroke"
               d="m 1431.9239,23.428264 -14.8399,14.83984 v 49.7793 h 6.2715 v -46.05664 l 11.7031,-10.6875 h 519.4899 l 11.9063,10.125 v 47.820309 h 6.0664 V 38.268104 l -14.8399,-14.83984 z M 1417.084,345.67805 v 195.04801 l 14.8399,14.8398 h 15.2929 l 5.2481,-6.125 h -17.4063 l -11.7031,-11.873 V 345.67805 Z m 549.3708,0 v 191.88981 l -11.9063,11.873 h -462.65 l 5.1757,6.125 h 460.6071 l 14.8399,-14.8398 V 345.67805 Z"
               sodipodi:nodetypes="ccccccccccccccccccccccccccccccc" /><path
               id="path25170"
               style="opacity:1;fill:#478bff;fill-opacity:1;fill-rule:evenodd;stroke-width:1.75059;stroke-linecap:square;stroke-miterlimit:0;paint-order:markers fill stroke"
               d="m 1431.9239,23.428264 -14.8399,14.83984 v 25.80387 l 4.5391,-10.6066 v -11.53711 l 13.4355,-12.52513 h 519.4899 l 13.3106,11.15013 v 22.32049 l 4.6621,5.48008 v -30.08573 l -14.8399,-14.83984 z M 1417.084,513.96626 v 26.7598 l 14.8399,14.8398 h 15.2929 l 2.9063,-3.5 h -15.0645 l -14.498,-14.498 v -18.9141 z m 551.9626,4.6875 v 18.9141 l -14.4981,14.498 h -460.4411 l 2.9668,3.5 h 460.6071 l 14.8399,-14.8398 v -27.4473 z"
               sodipodi:nodetypes="ccccccccccccccccccccccccccccccc" /><path
               id="path25172"
               style="opacity:1;fill:#478bff;fill-opacity:1;fill-rule:evenodd;stroke-width:1.751;stroke-linecap:square;stroke-miterlimit:0;paint-order:markers fill stroke"
               d="m 1453.8614,547.56786 -8.6622,10.4296 h 53.918 l -8.8398,-10.4296 z m 1.6523,1.4609 h 33.1113 l 6.6875,7.5078 h -46.1328 z"
               sodipodi:nodetypes="cccccccccc" /><path
               id="path25174"
               style="opacity:1;fill:#3b3b73;fill-opacity:1;fill-rule:evenodd;stroke-width:1.29242;stroke-linecap:square;stroke-miterlimit:0;paint-order:markers fill stroke"
               d="m 1456.4579,549.47076 h 31.243 l 6.3095,6.6229 h -43.5285 z"
               sodipodi:nodetypes="ccccc" /><path
               id="path25176"
               style="opacity:1;fill:#3b3b73;fill-opacity:1;fill-rule:evenodd;stroke-width:1.8451;stroke-linecap:square;stroke-miterlimit:0;paint-order:markers fill stroke"
               d="m 1928.7588,568.59256 h -47.0244 l -9.4967,-8.9682 h 65.5156 z"
               sodipodi:nodetypes="ccccc" /><path
               id="path25178"
               style="opacity:1;fill:#bed2ea;fill-opacity:1;fill-rule:evenodd;stroke-width:1.83249;stroke-linecap:square;stroke-miterlimit:0;paint-order:markers fill stroke"
               d="m 1425.5469,16.307175 -15.5332,15.533199 v 26.875 l 3.6387,5.48008 v -29.04649 l 15.1758,-15.177729 h 531.9508 l 15.1758,15.177729 v 33.31641 l 3.6367,-4.59619 v -32.02881 l -15.5332,-15.533199 z m 550.4079,64.658199 v 53.994136 l 3.6367,4.06586 V 76.369184 Z M 1410.0137,356.2776 v 190.87616 l 15.5332,15.5332 h 446.5153 l -3.4902,-3.6641 h -439.7438 l -15.1758,-15.1757 v -190.3096 z m 565.9411,-9.89251 v 197.46207 l -15.1758,15.1757 h -19.3027 l -3.3067,3.6641 h 25.8887 l 15.5332,-15.5332 V 349.03674 Z"
               sodipodi:nodetypes="cccccccccccccccccccccccccccccccccccc" /></g></g></g><g
         inkscape:groupmode="layer"
         id="layer8"
         inkscape:label="Dois"><g
           id="g10333"
           clip-path="url(#clipPath10335)"
           style="display:inline"><g
             inkscape:label="Clip"
             id="g10331"><path
               id="path23700"
               style="opacity:1;fill:#d6edff;fill-opacity:1;fill-rule:evenodd;stroke-width:1.5634;stroke-linecap:square;stroke-miterlimit:0;paint-order:markers fill stroke"
               d="M 816.79721,23.305147 804.08625,36.016084 V 500.08249 l 12.71096,12.71094 h 552.12109 l 12.7109,-12.71094 V 36.016084 l -12.7109,-12.710937 z m 7.5683,7.5 h 536.98439 l 12.2344,12.232422 V 493.05905 l -12.2344,12.23438 H 824.36551 l -12.2343,-12.23438 V 43.037569 Z"
               sodipodi:nodetypes="cccccccccccccccccc" /><path
               id="path22826"
               style="opacity:1;fill:#131853;fill-opacity:0.270588;fill-rule:evenodd;stroke-width:1.5047;stroke-linecap:square;stroke-miterlimit:0;paint-order:markers fill stroke"
               d="m 824.36571,30.804583 h 536.98399 l 12.2337,12.233729 V 493.05946 l -12.2337,12.23374 H 824.36571 l -12.2338,-12.23374 V 43.038312 Z"
               sodipodi:nodetypes="ccccccccc" /><path
               id="path22815"
               style="opacity:1;fill:#3b3b73;fill-opacity:1;fill-rule:evenodd;stroke-width:1.56576;stroke-linecap:square;stroke-miterlimit:0;paint-order:markers fill stroke"
               d="M 816.49051,23.000459 803.76203,35.730928 V 247.49655 l 8.36918,11.5625 V 43.037569 l 12.2343,-12.232422 h 536.98439 l 12.2344,12.232422 v 17.458984 l 8.3692,9.369165 V 35.730928 L 1369.223,23.000459 Z M 1373.5843,202.49655 V 457.9653 l 8.3008,-5.09375 c 0.02,-0.0122 0.068,45.002 0.068,0.002 v -261.377 z m 8.3692,266.12305 c -0.023,8e-5 -0.047,-0.006 -0.068,0.002 l -8.3008,3.0625 v 21.375 l -12.2344,12.23438 H 824.36551 l -12.2343,-12.23443 v -31.0625 l -8.36918,7.5 v 30.86914 l 12.72848,12.73047 H 1369.223 l 12.7305,-12.73047 z"
               sodipodi:nodetypes="cccccccccccccccsccccscccccccccccc" /><path
               id="rect21665"
               style="opacity:1;fill:#478bff;fill-opacity:1;fill-rule:evenodd;stroke-width:1.522;stroke-linecap:square;stroke-miterlimit:0;paint-order:markers fill stroke"
               d="m 822.13511,28.594209 -12.37308,12.375 V 251.55905 l 2.77538,-4.0625 V 43.393037 l 12.2109,-12.208984 h 536.21879 l 12.211,12.208984 V 62.79465 l 2.7754,2.828427 V 40.969209 l -12.3731,-12.375 z M 1373.1781,200.30905 v 263.0625 l 2.7754,3.28125 V 196.68405 Z m 0,265.21875 v 27.17773 l -12.211,12.20899 H 824.74831 l -12.2109,-12.20899 v -25.77224 l -2.77538,2.56326 v 25.63281 l 12.37308,12.37305 h 541.44529 l 12.3731,-12.37305 v -26.50781 z"
               sodipodi:nodetypes="ccccccccccccccccccccccccccccccc" /><path
               id="path22822"
               style="opacity:1;fill:#1b114a;fill-opacity:1;fill-rule:evenodd;stroke-width:1.55197;stroke-linecap:square;stroke-miterlimit:0;paint-order:markers fill stroke"
               d="m 818.27181,24.766084 -12.6172,12.619141 V 264.37155 l 2.83008,4.125 V 39.855928 l 12.45112,-12.449219 h 543.84379 l 12.4512,12.449219 v 39.787518 l 2.8301,4.684582 V 37.385225 L 1367.4437,24.766084 Z M 1377.2308,177.68652 v 279.02992 l 2.8301,3.97748 v -286.6949 z m 0,283.28944 v 31.77534 l -12.4512,15.94056 H 820.93581 l -12.45112,-12.44922 v -36.91075 l -2.83008,2.43068 v 36.95078 l 12.6172,12.61718 549.17189,-3.49134 12.6172,-12.61718 v -30.0918 z"
               sodipodi:nodetypes="ccccccccccccccccccccccccccccccc" /></g></g></g></g><g
       inkscape:groupmode="layer"
       id="layer3"
       inkscape:label="Grande"><g
         id="g10285"
         clip-path="url(#clipPath10287)"><g
           inkscape:label="Clip"
           id="g10283"><path
             id="path21657"
             style="fill:#131853;fill-opacity:0.270588;stroke-width:1.82023;stroke-linecap:square;stroke-miterlimit:0;paint-order:markers fill stroke"
             d="m 42.82549,28.749919 412.97342,-0.04734 0.88388,635.430521 H 40.716733 Z"
             sodipodi:nodetypes="ccccc" /><path
             id="rect47652"
             style="fill:#d6edff;fill-opacity:0.847059;fill-rule:evenodd;stroke:none;stroke-width:1.751;stroke-linecap:square;stroke-miterlimit:0;stroke-dasharray:none;stroke-opacity:1;paint-order:markers fill stroke"
             d="M 37,25 V 678.1026 H 462.05546 V 25 Z m 6,6.514719 412,0.441942 V 663.1026 H 43 Z"
             sodipodi:nodetypes="cccccccccc" /><path
             id="path21645"
             style="fill:#3b3b73;fill-opacity:1;stroke-width:1.71933;stroke-linecap:square;stroke-miterlimit:0;paint-order:markers fill stroke"
             d="m 38.51592,371.20898 -4.312795,12.17383 v 288.34375 l 11.737416,12.17188 H 457.29962 l 7.22772,-8.12811 V 383.38281 l -7.23553,-12.17383 h -3.45611 l -0.25,292.41179 H 43.110236 V 371.20898 Z"
             sodipodi:nodetypes="ccccccccccccc" /><path
             id="path21650"
             style="fill:#d6edff;fill-opacity:0.847059;stroke:none;stroke-width:1.522;stroke-linecap:square;stroke-miterlimit:0;stroke-dasharray:none;stroke-opacity:1;paint-order:markers fill stroke"
             d="m 453.44731,608.75 v 55.4011 H 397.375 v 19.77468 h 59.9684 l 7.18785,-8.01238 0.0195,-67.1634 z"
             sodipodi:nodetypes="cccccccc" /><path
             id="path8995"
             style="fill:#478bff;fill-opacity:1;stroke-width:33.7141;stroke-linecap:square;stroke-miterlimit:3.5;paint-order:stroke fill markers"
             d="m 42.949198,31.703125 -2.564831,1.275376 v 4.376317 l 7.405041,-5.651693 z m 7.926442,0 -10.491273,8.482976 V 265.05935 H 46.89996 L 46.742773,37.573346 444.8003,37.563546 438.58707,31.703101 Z m 401.16018,12.884901 -0.95811,220.471324 h 7.18637 L 458.11263,49.920882 Z M 40.384367,485.52177 v 169.53407 l 6.78396,7.34754 -0.116931,-176.88161 z m 6.78396,176.88161 -4.105121,-4.38455 z m -4.105205,-4.38422 7.332199,7.94178 H 444.53896 l 11.06635,-11.15261 -0.1246,-169.28656 h -6.09962 l -0.23961,171.11721 z m -2.678755,-1.11756 v 6.40825 l 2.741188,2.65109 h 5.651064 z"
             sodipodi:nodetypes="ccccccccccccccccccccccccccccccccccccccc" /><path
             id="rect531"
             style="fill:#1b114a;fill-opacity:1;stroke-width:34.351;stroke-linecap:square;stroke-miterlimit:3.5;paint-order:stroke fill markers"
             d="M 39.050781,24.703125 36.4375,27.021484 v 4.458985 l 7.544922,-6.777344 z m 8.076172,0 L 36.4375,34.365234 V 263.48633 h 6.638672 l -0.160156,-231.783205 395.664854,-0.01 -7.04767,-6.990039 z m 391.453917,7 16.60873,15.882813 0.0254,-15.715998 z m 16.60873,15.617648 -0.30078,216.165557 h 7.32212 L 462.05664,53.019531 Z M 36.4375,488.11328 v 166.07227 l 6.912109,7.48633 -0.11914,-173.5586 z m 6.912109,173.5586 0.002,2.20507 2.029297,-0.008 z m 2.03125,2.19726 7.470703,8.0918 H 448.22656 L 459.50195,660.59766 459.375,488.11328 h -6.21484 l -0.24414,174.34961 z M 36.4375,662.73047 v 6.5293 l 2.792969,2.70117 h 5.757812 z"
             sodipodi:nodetypes="cccccccccccccccccccccccccccccccccccccccccccc" /><path
             id="rect47797"
             style="fill:#d6edff;fill-opacity:0.847059;fill-rule:evenodd;stroke:none;stroke-width:17.9288;stroke-linecap:square;stroke-miterlimit:0;stroke-dasharray:none;stroke-opacity:1;paint-order:markers fill stroke"
             d="m 30.738281,16.887096 c -1.52349,0 -2.75,1.22651 -2.75,2.75 V 157 h 5.458985 V 22.210938 H 410.17969 V 16.887096 Z M 449.5,17.351562 v 4.859376 h 16.06641 V 70 h 5.02539 V 20.101562 c 0,-1.52349 -1.2265,-2.75 -2.75,-2.75 z M 25.695388,384 v 304.87984 c 0,1.5235 1.22651,2.75 2.75,2.75 H 254.62891 v -5.34499 H 30.904373 V 384 Z"
             sodipodi:nodetypes="sscccccscccccssccssccccc" /><path
             style="color:#000000;fill:#1b114a;fill-opacity:1;stroke:none;stroke-linecap:square;stroke-miterlimit:0;stroke-opacity:1;-inkscape-stroke:none;paint-order:markers fill stroke"
             d="m 214.39062,-49.101827 -0.0531,443.206187 4.87496,-9.51164 0.0193,-439.557757 z"
             id="path10473-53-6-2-7"
             sodipodi:nodetypes="ccccc"
             transform="matrix(1.0648181,0,0,0.39630942,-191.91852,105.38823)" /><path
             style="color:#000000;fill:#276b96;fill-opacity:1;stroke:none;stroke-width:2.44192;stroke-linecap:square;stroke-miterlimit:0;stroke-opacity:1;-inkscape-stroke:none;paint-order:markers fill stroke"
             d="m 221.76763,383.35769 -6.15638,14.2479 z"
             id="path10476-5"
             sodipodi:nodetypes="ccc"
             transform="matrix(0.32235554,0,0,0.51014538,-31.455463,320.272)" /></g></g></g><g
       inkscape:groupmode="layer"
       id="layer4"
       inkscape:label="Pequeno"><g
         id="g10302"
         clip-path="url(#clipPath10304)"
         style="display:inline"><g
           inkscape:label="Clip"
           id="g10300"><path
             id="rect16541"
             style="opacity:1;fill:#1b114a;fill-opacity:1;fill-rule:evenodd;stroke-width:1.751;stroke-linecap:square;stroke-miterlimit:0;paint-order:markers fill stroke"
             d="m 502.30248,692.73351 -14.56641,10.5 v 130.5 l 14.56641,15.0957 h 204.69336 l -9.85547,-10.3457 h 74.98047 l -9.33594,10.3457 h 31.19922 l 4.05664,-4.05859 -11.42383,-13.61328 2.77539,-2.33008 11.22071,13.37305 13.51953,-13.52149 V 703.23351 l -14.83008,-10.5 h -0.62109 v 125.41406 l -14.49805,14.49805 H 576.88646 l 5.01758,5.91992 h -53.91797 l 4.91602,-5.91992 H 517.83764 L 503.33959,818.14757 V 692.73351 Z m 311.83008,141.07031 -11.1836,11.18164 2.0254,2.41407 9.1582,-9.15821 z m 0,9.5625 -5.47656,5.47657 5.47656,0.006 z m -13.75391,4.18946 -1.27344,1.27343 h 0.19727 l 2.14648,0.002 z" /><path
             id="rect14937"
             style="opacity:1;fill:#d6edff;fill-opacity:1;fill-rule:evenodd;stroke-width:1.751;stroke-linecap:square;stroke-miterlimit:0;paint-order:markers fill stroke"
             d="m 514.67162,531.66124 -14.84375,14.84375 v 274.83399 l 14.84375,14.84375 h 15.29297 l 2.9375,-3.53711 H 517.83764 L 506.16802,818.14757 V 549.6964 l 11.66962,-14.5 h 266.3457 l 11.87305,14.5 v 268.45117 l -11.87305,14.49805 H 576.88646 l 2.99805,3.53711 h 207.46485 l 14.84179,-14.84375 V 546.50499 l -14.84179,-14.84375 z"
             sodipodi:nodetypes="ccccccccccccccccccccc" /><path
             id="path14941"
             style="opacity:1;fill:#131853;fill-opacity:0.270588;fill-rule:evenodd;stroke-width:1.71034;stroke-linecap:square;stroke-miterlimit:0;paint-order:markers fill stroke"
             d="m 517.83764,535.1964 -11.68555,14.5 v 268.45117 l 11.68555,14.49805 h 15.06445 l 3.74609,-4.50977 h 36.41602 l 3.82226,4.50977 h 207.29688 l 11.8464,-14.49805 V 549.6964 l -11.8464,-14.5 z"
             sodipodi:nodetypes="ccccccccccccc" /><path
             id="path15695"
             style="opacity:1;fill:#1b114a;fill-opacity:1;fill-rule:evenodd;stroke-width:1.75059;stroke-linecap:square;stroke-miterlimit:0;paint-order:markers fill stroke"
             d="m 514.70287,531.6964 -14.83984,14.83984 v 49.7793 h 6.27148 V 550.2589 l 11.70313,-10.6875 h 266.3457 l 11.90625,10.125 v 47.82031 H 802.156 V 546.53624 L 787.31615,531.6964 Z m -14.83984,159.61523 v 129.99415 l 14.83984,14.83984 h 15.29297 l 5.24805,-6.125 H 517.83764 L 506.13451,818.14757 V 691.31163 Z m 296.22656,0 v 126.83594 l -11.90625,11.87305 H 574.67748 l 5.17578,6.125 H 787.31615 L 802.156,821.30578 V 691.31163 Z"
             sodipodi:nodetypes="ccccccccccccccccccccccccccccccc" /><path
             id="path17275"
             style="opacity:1;fill:#478bff;fill-opacity:1;fill-rule:evenodd;stroke-width:1.75059;stroke-linecap:square;stroke-miterlimit:0;paint-order:markers fill stroke"
             d="m 514.70287,531.6964 -14.83984,14.83984 v 25.80387 l 4.53906,-10.6066 V 550.1964 l 13.43555,-12.52513 h 266.3457 l 13.31055,11.15013 v 22.32049 l 4.66211,5.48008 V 546.53624 L 787.31615,531.6964 Z m -14.83984,262.84961 v 26.75977 l 14.83984,14.83984 h 15.29297 l 2.90625,-3.5 h -15.06445 l -14.49805,-14.49805 v -18.91406 z m 298.81836,4.6875 v 18.91406 l -14.49805,14.49805 H 576.88646 l 2.9668,3.5 H 787.31615 L 802.156,821.30578 v -27.44727 z"
             sodipodi:nodetypes="ccccccccccccccccccccccccccccccc" /><path
             id="path18754"
             style="opacity:1;fill:#478bff;fill-opacity:1;fill-rule:evenodd;stroke-width:1.751;stroke-linecap:square;stroke-miterlimit:0;paint-order:markers fill stroke"
             d="m 536.64037,828.14757 -8.66211,10.42969 h 53.91797 l -8.83984,-10.42969 z m 1.65234,1.46094 h 33.11133 l 6.6875,7.50781 h -46.13281 z" /><path
             id="path18764"
             style="opacity:1;fill:#3b3b73;fill-opacity:1;fill-rule:evenodd;stroke-width:1.29242;stroke-linecap:square;stroke-miterlimit:0;paint-order:markers fill stroke"
             d="m 539.23692,830.05056 h 31.24295 l 6.30959,6.62285 h -43.52852 z"
             sodipodi:nodetypes="ccccc" /><path
             id="path19498"
             style="opacity:1;fill:#3b3b73;fill-opacity:1;fill-rule:evenodd;stroke-width:1.8451;stroke-linecap:square;stroke-miterlimit:0;paint-order:markers fill stroke"
             d="m 758.39358,849.17235 h -47.0244 l -9.49669,-8.96819 h 65.51566 z"
             sodipodi:nodetypes="ccccc" /><path
             id="path19794"
             style="opacity:1;fill:#d6edff;fill-opacity:1;fill-rule:evenodd;stroke-width:1.83249;stroke-linecap:square;stroke-miterlimit:0;paint-order:markers fill stroke"
             d="m 508.32592,524.57531 -15.53321,15.5332 v 26.875 l 3.63868,5.48008 V 543.4171 l 15.17578,-15.17773 h 278.80664 l 15.17578,15.17773 v 33.31641 l 3.63672,-4.59619 v -32.02881 l -15.53321,-15.5332 z m 297.26367,64.6582 v 53.99414 l 3.63672,4.06586 V 584.63732 Z M 492.79271,701.91118 v 125.82233 l 15.53321,15.5332 h 193.37109 l -3.49023,-3.66406 H 511.60717 L 496.43139,824.42687 V 699.17114 Z m 312.79688,-9.89251 v 132.4082 l -15.17578,15.17578 h -19.30274 l -3.30664,3.66406 h 25.88867 l 15.53321,-15.5332 V 694.67032 Z"
             sodipodi:nodetypes="cccccccccccccccccccccccccccccccccccc" /></g></g></g><g
       inkscape:groupmode="layer"
       id="layer5"
       inkscape:label="Medio"><g
         id="g10268"
         clip-path="url(#clipPath10270)"><g
           inkscape:label="Clip"
           id="g10266"><path
             id="path21639-0"
             style="fill:#131853;fill-opacity:0.270588;stroke-width:1.06885;stroke-linecap:square;stroke-miterlimit:0;paint-order:markers fill stroke"
             d="M 521.83269,32.9584 H 749.91401 V 394.63692 H 521.83269 Z"
             sodipodi:nodetypes="ccccc" /><path
             id="rect15700-5"
             style="fill:#478bff;fill-opacity:1;stroke-width:0.983577;stroke-linecap:square;stroke-miterlimit:0;paint-order:markers fill stroke"
             d="m 514.49778,250.84741 -7.28906,6.41323 v 142.47088 l 14.53906,15.87175 h 236.61624 l 7.29101,-6.41496 V 259.01064 l -7.29101,-6.41323 h -7.78669 v 144.9099 H 522.35858 v -146.6599 z"
             sodipodi:nodetypes="ccccccccccccc" /><path
             id="rect17905-1"
             style="fill:#d6edff;fill-opacity:0.847059;stroke:none;stroke-width:0.922367;stroke-linecap:square;stroke-miterlimit:0;stroke-dasharray:none;stroke-opacity:1;paint-order:markers fill stroke"
             d="m 519.79771,13.04057 -17.79297,16.69532 v 106.73632 l 5.65626,7.95495 V 33.27104 l 13.73046,-13.73828 h 164.83789 v -6.49219 z m 208.52149,0.60938 v 6.49219 h 22.45703 l 19.97656,20.59179 -0.35351,95.73828 h 5.65625 V 36.98393 L 753.25084,13.64995 Z m -229.56446,296.0625 v 61.51953 l 5.65626,9.01561 v -79.9043 z m 269.1211,0 -0.5,79.67578 -1.73242,1.82813 v 13.33789 l 7.38867,-8.49805 0.5,-86.34375 z m -2.23242,94.8418 -11.53711,11.10937 h 4.16406 l 7.36133,-6.51562 v 6.51562 h 0.0117 z m -11.53711,11.10937 h -11.64258 l -3.44727,3.63672 -168.38086,-0.35352 v 6.49024 h 174.03711 z m -11.64258,0 23.17969,-24.44726 v -21.11719 h -19.00391 v 24.9375 h -26.5625 v 20.62695 z"
             sodipodi:nodetypes="cccccccccccccccccccccccccccccccccccccccccccccccccccc" /><path
             id="rect531-7-6"
             style="fill:#d6edff;fill-opacity:0.847059;stroke-width:20.5118;stroke-linecap:square;stroke-miterlimit:3.5;paint-order:stroke fill markers"
             d="m 524.28404,21.12651 -9.1869,14.89453 v 363.49414 l 6.79628,6.86719 H 745.77107 L 758.74257,396.04839 758.46523,33.48198 747.07115,21.3101 Z M 523.0692,36.67534 H 750.28795 V 393.61479 H 523.0692 Z"
             sodipodi:nodetypes="cccccccccccccc" /><path
             id="path13183"
             style="fill:#1b114a;fill-opacity:1;stroke-width:20.5118;stroke-linecap:square;stroke-miterlimit:3.5;paint-order:stroke fill markers"
             d="M 522.30162,21.63042 509.7606,34.16948 v 6.10156 L 527.911,21.63042 Z m 13.22656,0 -25.76758,26.28125 v 96.75781 h 13.3086 V 36.67534 h 226.96875 v 107.99414 h 12.15429 l -0.0762,-96.80078 -25.3164,-26.23828 h -72.41016 l -8.36719,10.27929 h -66.94336 l -7.79882,-10.27929 z m 209.60938,0 16.97265,17.77734 -0.004,-5.23828 -12.53907,-12.53906 z M 515.0106,293.44851 v 88.96875 l 22.74824,23.98437 H 751.2588 l 10.37485,-10.81613 -0.0371,-47.72266 -9.17383,-6.51367 V 299.4937 l 5.60937,-5.82422 h -7.99414 v 99.94531 L 523.0692,393.39382 v -99.94531 z m 0.0808,97.04335 v 8.99415 l 6.70003,6.9011 h 8.6875 z"
             sodipodi:nodetypes="cccccccccccccccccccccccccccccccccccccccccccc" /><path
             id="path13178-0"
             style="fill:#3b3b73;fill-opacity:1;stroke-width:1.2844;stroke-linecap:square;stroke-miterlimit:0;paint-order:markers fill stroke"
             d="m 754.0576,300.86223 7.63031,-9.4051 v 54.27599 l -7.63031,-5.63767 z"
             sodipodi:nodetypes="ccccc" /><path
             id="path22437"
             style="fill:#3b3b73;fill-opacity:1;stroke-width:1.61969;stroke-linecap:square;stroke-miterlimit:0;paint-order:markers fill stroke"
             d="m 591.0121,30.737 -7.36779,-9.56026 h 78.60598 l -8.16096,9.56023 z"
             sodipodi:nodetypes="ccccc" /><path
             style="color:#000000;fill:#3b3b73;fill-opacity:1;stroke:none;stroke-linecap:square;stroke-miterlimit:0;stroke-opacity:1;-inkscape-stroke:none;paint-order:markers fill stroke"
             d="m 214.39062,107.34159 -0.0531,357.16014 8.63147,-9.51164 0.0193,-356.245602 z"
             id="path10473-53-6-2-2"
             sodipodi:nodetypes="ccccc"
             transform="matrix(1.3617288e-8,0.59787396,-0.57903245,1.8236866e-8,801.99644,272.90114)" /><path
             style="color:#000000;fill:#478bff;fill-opacity:1;fill-rule:evenodd;stroke:none;stroke-linecap:square;stroke-miterlimit:0;stroke-opacity:1;-inkscape-stroke:none;paint-order:markers fill stroke"
             d="m 214.39062,113.4017 -0.0531,282.32582 8.63147,-0.0973 0.0193,-296.885722 z"
             id="path47586"
             sodipodi:nodetypes="ccccc"
             transform="matrix(0.59787395,0,0,0.34034059,382.32853,9.9857725)" /><path
             style="color:#000000;fill:#3b3b73;fill-opacity:1;stroke:none;stroke-width:1.07683;stroke-linecap:square;stroke-miterlimit:0;stroke-opacity:1;-inkscape-stroke:none;paint-order:markers fill stroke"
             d="m 213.73003,384.23004 -0.0572,111.90505 9.29466,-3.70022 0.0208,-96.89404 z"
             id="path10473-53-6-3"
             sodipodi:nodetypes="ccccc"
             transform="matrix(0.79788069,0,0,0.77273616,592.34049,-11.25836)" /><path
             style="color:#000000;fill:#3b3b73;fill-opacity:1;stroke:none;stroke-width:1.07683;stroke-linecap:square;stroke-miterlimit:0;stroke-opacity:1;-inkscape-stroke:none;paint-order:markers fill stroke"
             d="m 213.73003,65.233715 -0.0572,137.301805 9.29466,-3.70022 0.0208,-122.290797 z"
             id="path47592"
             sodipodi:nodetypes="ccccc"
             transform="matrix(0.79788069,0,0,0.77273616,592.34049,-11.25836)" /><path
             style="color:#000000;fill:#478bff;fill-opacity:1;stroke:none;stroke-linecap:square;stroke-miterlimit:0;stroke-opacity:1;-inkscape-stroke:none;paint-order:markers fill stroke"
             d="m 214.39062,113.79384 -0.0531,280.31052 8.63147,0.13465 0.0193,-295.494522 z"
             id="path22481"
             sodipodi:nodetypes="ccccc"
             transform="matrix(-0.61589083,0,0,0.33902879,893.48382,10.11531)" /><path
             style="color:#000000;fill:#d6edff;fill-opacity:0.847059;stroke:none;stroke-linecap:square;stroke-miterlimit:0;stroke-opacity:1;-inkscape-stroke:none;paint-order:markers fill stroke"
             d="m 220.89548,97.117955 -0.0531,300.394285 8.63147,-15.75942 0.0193,-290.965385 z"
             id="path10473-53-6"
             sodipodi:nodetypes="ccccc"
             transform="matrix(0.59787395,0,0,0.31123768,374.86474,122.79765)" /><path
             style="color:#000000;fill:#3b3b73;fill-opacity:1;stroke:none;stroke-linecap:square;stroke-miterlimit:0;stroke-opacity:1;-inkscape-stroke:none;paint-order:markers fill stroke"
             d="m 214.39062,365.24627 -0.0531,94.84172 10.17545,1.5594 0.004,-97.6652 z"
             id="path22463"
             sodipodi:nodetypes="ccccc"
             transform="matrix(1.3617288e-8,0.06780118,-0.57903245,0,797.11726,14.43616)" /><path
             style="color:#000000;fill:#478bff;fill-opacity:1;stroke:none;stroke-linecap:square;stroke-miterlimit:0;stroke-opacity:1;-inkscape-stroke:none;paint-order:markers fill stroke"
             d="m 214.39061,374.95213 -0.0531,77.47957 8.63147,8.42945 0.0193,-92.79909 z"
             id="path22479"
             sodipodi:nodetypes="ccccc"
             transform="matrix(1.3617288e-8,0.59787396,-0.57903245,1.8236866e-8,798.28093,-105.16648)" /><path
             style="color:#000000;fill:#478bff;fill-opacity:1;stroke:none;stroke-linecap:square;stroke-miterlimit:0;stroke-opacity:1;-inkscape-stroke:none;paint-order:markers fill stroke"
             d="m 214.39062,107.90725 -0.0531,121.92583 8.63147,7.05544 0.0193,-137.201258 z"
             id="path22468"
             sodipodi:nodetypes="ccccc"
             transform="matrix(1.3617288e-8,0.59787396,-0.57903245,1.8236866e-8,798.28093,-105.16648)" /><path
             style="color:#000000;fill:#3b3b73;fill-opacity:1;stroke:none;stroke-linecap:square;stroke-miterlimit:0;stroke-opacity:1;-inkscape-stroke:none;paint-order:markers fill stroke"
             d="m 214.39062,62.009949 -0.0531,332.094411 8.63147,-9.51164 0.0193,-313.980515 z"
             id="path10473-53-6-7"
             sodipodi:nodetypes="ccccc"
             transform="matrix(0,0.59787395,-0.57903247,0,781.42571,281.04061)" /></g></g></g><g
       inkscape:groupmode="layer"
       id="layer6"
       inkscape:label="Others"><path
         id="rect23989"
         style="fill:#f4fea8;fill-opacity:1;stroke:none;stroke-width:1.751;stroke-linecap:square;stroke-miterlimit:0;stroke-dasharray:none;stroke-opacity:1;paint-order:markers fill stroke"
         d="m 28.018066,736.49969 c -2.94568,0 -5.31641,2.37074 -5.31641,5.31641 v 0.7207 l 6.03711,-6.03711 z m 7.68164,0 -12.99805,12.99805 v 2.05468 l 15.05274,-15.05273 z m 6.45117,0 -6.5,6.5 h 59.691408 c 2.96943,0 5.359366,2.38995 5.359366,5.35937 v 16.89063 h 6.5 V 741.8161 c 0,-2.94567 -2.37074,-5.31641 -5.3164,-5.31641 z m -12.94922,12.94922 -6.5,6.5 v 9.30078 h 6.5 z m -6.5,42.80078 v 23.43361 c 0,2.9456 2.37073,5.3164 5.31641,5.3164 h 58.259758 l 6.5,-6.5 H 34.561036 c -2.96945,0 -5.35938,-2.39 -5.35938,-5.3594 v -16.89061 z m 77.999994,0 v 14.32811 l 6.5,-6.5 v -7.82811 z m 6.5,14.36711 -14.380856,14.3829 h 3.48828 l 10.892576,-10.8946 z m 0,7.5547 -6.82617,6.8282 h 1.50977 c 2.94566,0 5.3164,-2.3708 5.3164,-5.3164 z" /><path
         id="rect23991"
         style="fill:#e6f76f;fill-opacity:0.291667;stroke:none;stroke-width:1.48162;stroke-linecap:square;stroke-miterlimit:0;stroke-dasharray:none;stroke-opacity:1;paint-order:markers fill stroke"
         d="m 35.651216,743.00033 -6.44922,6.44922 v 59.69135 c 0,2.9695 2.38993,5.3594 5.35938,5.3594 h 60.781238 c 2.96945,0 5.359376,-2.3899 5.359376,-5.3594 v -60.78119 c 0,-2.96944 -2.389926,-5.35938 -5.359376,-5.35938 z" /><path
         id="rect23989-5"
         style="fill:#fca3a3;fill-opacity:1;stroke:none;stroke-width:1.751;stroke-linecap:square;stroke-miterlimit:0;stroke-dasharray:none;stroke-opacity:1;paint-order:markers fill stroke"
         d="m 35.781736,836.0934 -1.50586,1.5059 1.02735,1.0273 2.5332,-2.5332 z m 6.45117,0 -4.73047,4.7305 1.76953,1.7695 h 48.646488 l 6.5,-6.5 z m 65.050774,5.8731 -6.5,6.5 v 16.3769 h 6.5 z m -82.374994,5 -2.125,2.125 v 2.0546 l 3.15235,-3.1523 z m 3.22461,3.2265 -5.34961,5.3496 v 9.3008 h 6.5 v -13.5 z m -5.34961,41.6504 v 15.8848 l 6.5,-6.5 v -9.3848 z m 77.999994,0 v 12.2617 l 6.5,6.5 v -18.7617 z m -65.626944,22.25 -6.5,6.5 h 69.876948 l -6.5,-6.5 z" /><path
         id="rect23991-3"
         style="fill:#f22e2e;fill-opacity:0.291667;stroke:none;stroke-width:1.48162;stroke-linecap:square;stroke-miterlimit:0;stroke-dasharray:none;stroke-opacity:1;paint-order:markers fill stroke"
         d="m 39.271966,842.5934 61.511714,61.5117 v -56.1523 c 0,-2.9694 -2.389916,-5.3594 -5.359366,-5.3594 z m -9.98828,8.75 v 57.3906 c 0,2.9695 2.38993,5.3594 5.35938,5.3594 h 57.390618 z" /></g></g><g
     inkscape:groupmode="layer"
     id="layer9"
     inkscape:label="gui"><path
       id="path13183-3"
       style="display:none;fill:#1b114a;fill-opacity:1;stroke-width:20.5118;stroke-linecap:square;stroke-miterlimit:3.5;paint-order:stroke fill markers"
       d="m 259.08203,1363.1934 -12.54101,12.541 v 6.0996 l 18.15039,-18.6406 z m 13.22656,0 -25.76757,26.2832 v 9.5527 h 13.30859 v -20.791 h 188.75 v -15.0449 h -47.42969 l -8.36719,10.2793 h -66.94335 l -7.79883,-10.2793 z" /><rect
       style="display:none;fill:#800000;fill-opacity:1;stroke:none;stroke-width:4.8574;stroke-linecap:round;stroke-linejoin:round;stroke-dasharray:none;stroke-opacity:1;paint-order:stroke fill markers"
       id="rect3660"
       width="232.93555"
       height="93.556641"
       x="-448.59961"
       y="1305.4727"
       transform="scale(-1,1)" /><g
       id="g9815"
       transform="matrix(1.0003829,0,0,1.0043558,591.58867,-691.12349)"><path
         id="rect6752"
         style="fill:#121651;fill-opacity:0.231673;stroke:#6d94c0;stroke-width:1.99527642;stroke-linecap:square;stroke-linejoin:miter;stroke-dasharray:none;stroke-opacity:1;paint-order:fill markers stroke"
         d="m 281.16016,1296 -24.85157,22.8516 v 63.0234 H 464.57617 V 1296 Z"
         sodipodi:nodetypes="cccccc" /><path
         style="display:inline;fill:#1b114a;fill-opacity:1;stroke-width:20.5118;stroke-linecap:square;stroke-miterlimit:3.5;paint-order:stroke fill markers"
         d="m 1216.576,1307.7637 -26.9511,-27.3475 -637.80317,-0.3384 -4.56746,2.951 H 477.31055 L 446.57617,1308 v 61.0293 l -19.40696,0.165 -8.36719,10.2793 h -66.94336 l -7.79882,-10.2793 h -79.75193 l -15.76758,16.2813 v 13.5537 H 1216.576 Z"
         id="path3664"
         sodipodi:nodetypes="cccccccccccccccc" /><path
         style="color:#000000;fill:#bed2ea;fill-opacity:1;stroke:none;stroke-width:0.588378;stroke-linecap:square;stroke-miterlimit:0;stroke-opacity:1;-inkscape-stroke:none;paint-order:markers fill stroke"
         d="m 331.95121,1370.576 -44.86318,-0.032 -4.88093,5.1606 53.73369,0.012 z"
         id="path22479-3"
         sodipodi:nodetypes="ccccc" /><path
         id="path22463-9"
         style="color:#000000;fill:#3b3b73;fill-opacity:1;stroke:none;stroke-width:0.198139;stroke-linecap:square;stroke-miterlimit:0;stroke-opacity:1;-inkscape-stroke:none;paint-order:markers fill stroke"
         d="m 344.95704,1368.1902 7.91724,10.1106 h 64.72826 l 8.7102,-10.1106 z m -63.46681,8.345 -0.90234,0.6914 h 56.55078 l -0.73047,-0.6914 z"
         sodipodi:nodetypes="cccccccccc" /><path
         id="path4293"
         style="fill:#478bff;fill-opacity:1;stroke:none;stroke-width:6;stroke-linecap:round;stroke-linejoin:round;stroke-dasharray:none;stroke-opacity:1;paint-order:stroke fill markers"
         d="m 266.5616,1368.2194 -18.24535,18.7926 v 12.0173 h 27.07828 941.18147 v -3.3643 h -3.1931 -853.49496 l -4.70744,-5.364 H 275.316 v -11.1912 l 10.91488,-10.8904 z m 3.13761,2.9329 h 9.57226 l -8.15234,7.959 c 0,0 -0.0788,11.875 0,11.875 h -8.76367 c 0.002,-1.9861 0.0312,-12.6855 0.0312,-12.6855 z"
         sodipodi:nodetypes="cccccccccccccccccccc" /><path
         style="fill:#bed2ea;fill-opacity:1;stroke:none;stroke-width:2.2116;stroke-linecap:round;stroke-linejoin:round;stroke-dasharray:none;stroke-opacity:1;paint-order:stroke fill markers"
         d="m 446.57617,1334.0359 h 23.91881 v 34.9934 h -23.91881 z"
         id="path4904"
         sodipodi:nodetypes="ccccc" /><path
         id="path5047"
         style="fill:#bed2ea;fill-opacity:1;stroke:none;stroke-width:6;stroke-linecap:round;stroke-linejoin:round;stroke-dasharray:none;stroke-opacity:1;paint-order:stroke fill markers"
         d="m 476.53711,1278.3359 -14.81445,11.9942 -0.0117,0.012 h -0.002 l -16.70507,13.5273 v 16.875 l 3.63867,5.4805 v -19.0469 l 20.84765,-16.8359 h 70.97852 L 552.24609,1282 H 669.9707 l -4.21289,-3.6641 H 557.41797 551.4375 Z m 547.29149,0 -3.1855,3.6641 h 172.0424 l 25.6211,25.6211 v 33.3164 l 3.6368,-4.5957 v -32.0293 l -25.9786,-25.9766 z M 479.81836,1282 h 66.25781 l -6.61328,4.6875 h -65.32227 z"
         sodipodi:nodetypes="cccccccccccccccccccccccccccccc" /><path
         style="fill:#bed2ea;fill-opacity:1;stroke:none;stroke-width:2.41751;stroke-linecap:round;stroke-linejoin:round;stroke-dasharray:none;stroke-opacity:1;paint-order:stroke fill markers"
         d="m 1203.431,1350.3965 h 13.145 v 40.6436 h -13.145 z"
         id="path5119"
         sodipodi:nodetypes="ccccc" /><path
         id="rect5121"
         style="fill:#1f2a3a;fill-opacity:1;stroke:none;stroke-width:29.0798;stroke-linecap:round;stroke-linejoin:round;stroke-dasharray:none;stroke-opacity:1;paint-order:stroke fill markers"
         d="m 484.0625,1300.2852 -20.78516,19.9511 v 75.4278 h 736.69926 v -77.8887 l -16.7891,-17.4902 z"
         sodipodi:nodetypes="ccccccc" /><path
         id="path5265"
         style="fill:#478bff;fill-opacity:1;stroke:none;stroke-width:6;stroke-linecap:round;stroke-linejoin:round;stroke-dasharray:none;stroke-opacity:1;paint-order:stroke fill markers"
         d="m 1138.375,1284.5469 15.3555,16.373 45.289,-0.07 10.1914,10.1914 v 84.6231 H 359.88867 l -4.70898,-5.3633 h -79.86328 v -11.1914 l 10.91406,-10.8906 H 266.5625 l -18.24609,18.7929 v 12.0176 h 27.07812 941.18167 v -3.3652 h -3.1211 v -86.8438 l -24.5469,-24.2734 z m 8.4727,3.8457 h 39.7148 l 8.6992,8.6992 h -40.3008 z m -877.14848,82.7597 h 9.57226 l -8.15234,7.959 c 0,0 -0.0788,11.875 0,11.875 h -8.76367 c 0.002,-1.9861 0.0312,-12.6855 0.0312,-12.6855 z"
         sodipodi:nodetypes="cccccccccccccccccccccccccccccccc" /><path
         id="path5613"
         style="fill:#478bff;fill-opacity:1;stroke:none;stroke-width:5.39889;stroke-linecap:round;stroke-linejoin:round;stroke-dasharray:none;stroke-opacity:1;paint-order:stroke fill markers"
         d="m 553.92773,1284.4189 -7.79254,6.0439 -2.23196,1.7749 h 63.01865 l -9.82767,-7.8188 z"
         sodipodi:nodetypes="cccccc" /><path
         id="path5856"
         style="fill:#3b3b73;fill-opacity:1;stroke:none;stroke-width:4.21771;stroke-linecap:round;stroke-linejoin:round;stroke-dasharray:none;stroke-opacity:1;paint-order:stroke fill markers"
         d="m 693.24203,1294.1318 c -2.61743,2.0273 -5.24007,4.0476 -7.83132,6.1082 h 319.79239 l -7.67756,-6.1082 z"
         sodipodi:nodetypes="ccccc" /><path
         id="rect9004"
         style="fill:#bed2ea;fill-opacity:1;stroke:none;stroke-width:2.40633;stroke-linecap:square;stroke-linejoin:miter;stroke-dasharray:none;stroke-opacity:1;paint-order:fill markers stroke"
         d="m 797.24488,1277.5587 -15.74458,12.2807 v 4.9982 l 15.74458,-12.2806 h 82.23605 l 15.43674,12.2806 v -4.9982 l -15.43674,-12.2807 z"
         sodipodi:nodetypes="ccccccccc" /><path
         id="path5694"
         style="fill:#478bff;fill-opacity:1;stroke:none;stroke-width:8.47966;stroke-linecap:round;stroke-linejoin:round;stroke-dasharray:none;stroke-opacity:1;paint-order:stroke fill markers"
         d="m 804.46351,1287.9595 -12.23921,9.4929 -3.50557,2.7876 h 98.97897 l -15.43564,-12.2805 z"
         sodipodi:nodetypes="cccccc" /><path
         style="fill:#3b3b73;fill-opacity:1;stroke:none;stroke-width:2;stroke-linecap:square;stroke-linejoin:miter;stroke-dasharray:none;stroke-opacity:1;paint-order:fill markers stroke"
         d="m 1146.8477,1288.3926 8.1132,8.6992 h 40.3008 l -8.6992,-8.6992 z"
         id="path7394"
         sodipodi:nodetypes="ccccc" /></g><path
       id="rect9985"
       style="fill:#cccccc;fill-opacity:1;stroke:none;stroke-width:1.54918;stroke-linecap:square;stroke-linejoin:miter;stroke-dasharray:none;stroke-opacity:1;paint-order:fill markers stroke"
       d="m 851.79019,740 -0.0121,0.0187 30.54847,29.98125 h 8.88657 l -24.93764,-24.47461 h 9.88461 l 24.93959,24.47461 h 6.00967 l -24.93961,-24.47459 h 9.88461 L 916.99395,770 h 6.00966 l -24.93766,-24.47462 h 9.8846 L 932.89014,770 h 612.10336 l -24.9376,-24.47462 h 9.8846 L 1554.88,770 h 10.1132 l -24.9376,-24.47462 h 9.8846 L 1574.8797,770 h 26.8983 v -30 z"
       sodipodi:nodetypes="cccccccccccccccccccccccccc" /></g><g
     inkscape:groupmode="layer"
     id="layer10"
     inkscape:label="letreiro"><g
       id="g14745"
       transform="matrix(0.74108385,0,0,0.74433185,222.67332,203.51184)"><path
         id="rect10753"
         style="display:inline;fill:#11164e;fill-opacity:0.231373;stroke:#6d94c0;stroke-width:2;stroke-linecap:square;stroke-dasharray:none;stroke-opacity:1;paint-order:fill markers stroke"
         d="m 879.05322,797.74902 h 509.33418 l -38,83.38674 -4,105.38673 -212.6671,10 -212.66708,-10 -4,-105.38673 z"
         sodipodi:nodetypes="cccccccc" /><path
         id="rect10581"
         style="display:inline;fill:#1b114a;fill-opacity:1;stroke-width:4.61398;stroke-linecap:square;paint-order:fill markers stroke"
         d="m 865,796 7.50195,17.49219 h 7.08203 l 1.47461,3.35547 h -7.11718 l 1.8164,4.23632 h 7.16211 l 1.47266,3.35352 h -7.19531 l 1.8164,4.23633 h 7.24024 l 1.47461,3.35547 h -7.2754 l 1.81641,4.23632 h 7.32227 l 1.47265,3.35547 h -7.35547 l 22.98438,53.58789 0.88086,85.12891 13.47851,14.18555 v -64.84766 l 21.92774,-21.92773 h 190.74023 190.7402 l 21.9278,21.92773 v 64.84766 l 13.4785,-14.18555 0.8808,-85.12891 22.9844,-53.58789 h -7.3554 l 1.4726,-3.35547 h 7.3223 l 1.8164,-4.23632 h -7.2754 l 1.4746,-3.35547 h 7.2402 l 1.8164,-4.23633 h -7.1953 l 1.4727,-3.35352 h 7.1621 l 1.8164,-4.23632 h -7.1172 l 1.4746,-3.35547 h 7.0821 L 1402.4414,796 h -268.7207 z m 83.93945,8 h 184.78125 184.7813 l 16.1113,9.73047 h 44.8945 l -27.623,61.09375 h -65.6797 l -28.2774,20.69726 h -42.289 l -17.0313,-10 h -64.8867 -64.8867 l -17.0313,10 h -42.289 l -28.27737,-20.69726 h -65.67969 l -27.62305,-61.09375 h 44.89453 z" /><path
         id="path11874"
         style="display:inline;fill:#478bff;fill-opacity:1;stroke:none;stroke-width:2;stroke-linecap:square;stroke-linejoin:miter;stroke-dasharray:none;stroke-opacity:1;paint-order:fill markers stroke"
         d="m 880.75977,800.91797 4.69335,8.96289 h 46.42969 l 16.08008,-8.96289 z m 438.71873,0 16.0801,8.96289 h 46.4297 l 4.6933,-8.96289 z m -341.34178,80.40234 -59.59766,0.28907 12.93555,11.25 62.93945,0.24804 z m 311.16798,0 -16.2774,11.78711 62.9395,-0.24804 12.9355,-11.25 z m -384.03712,2.73633 v 92.42969 l 17.1875,18.91211 -0.25586,-9.81836 -11.10352,-12.50586 v -77.9336 z m 456.90622,0 -5.8281,11.08398 v 77.9336 l -11.1035,12.50586 -0.2559,9.81836 17.1875,-18.91211 z m -419.93747,19.45508 -18.67578,17.6289 h 6.20703 l 14.02148,-14.02343 h 18.64844 l -3.60547,-3.60547 z m 366.37307,0 -3.6055,3.60547 h 18.6484 l 14.0215,14.02343 h 6.2071 l -18.6758,-17.6289 z m -394.74807,50.57422 v 5.35742 l 9.50781,10.46289 -0.14062,-5.43164 z m 439.71877,0 -9.3672,10.38867 -0.1406,5.43164 9.5078,-10.46289 z m -439.71877,10 v 5.35742 l 9.50781,10.46289 -0.14062,-5.43164 z m 439.71877,0 -9.3672,10.38867 -0.1406,5.43164 9.5078,-10.46289 z" /><path
         id="path12533"
         style="display:inline;fill:#3b3b73;fill-opacity:1;stroke:none;stroke-width:2.19138;stroke-linecap:square;stroke-linejoin:miter;stroke-dasharray:none;stroke-opacity:1;paint-order:fill markers stroke"
         d="m 994.55078,881.52148 14.97072,10.95704 h 41.9512 l 18.6621,-10.95704 z m 202.75582,0 18.6622,10.95704 h 41.9511 l 14.9707,-10.95704 z" /><path
         id="path13962"
         style="fill:#d6edff;fill-opacity:1;stroke:none;stroke-width:2;stroke-linecap:square;stroke-linejoin:miter;stroke-dasharray:none;stroke-opacity:1;paint-order:fill markers stroke"
         d="m 862.99023,798.22266 -0.29882,9.71289 19.82226,48.88281 7.71289,6.86914 z m 501.72457,31.47851 -10.4707,20.47266 v 14.74609 h -12.707 l -15.4726,7.74805 h -22.1055 l -6,4.07422 h 30.1055 l 12.7265,-6.625 h 13.4531 l 11.3985,9.60742 v 81.35742 l 4.4277,-7.98828 v -76.04297 l -10.4941,-9.5332 v -17.69336 l 6.4297,-13.84961 z" /></g></g></svg>
