<?xml version="1.0" encoding="UTF-8" standalone="no"?>
<!-- Created with Inkscape (http://www.inkscape.org/) -->

<svg
   width="2000"
   height="2000"
   viewBox="0 0 2000 2000"
   version="1.1"
   id="svg5"
   inkscape:version="1.2.2 (732a01da63, 2022-12-09)"
   sodipodi:docname="Panel_Containers.svg"
   xml:space="preserve"
   inkscape:export-filename="PcBiel\GitHub\Fussionics\assets\img\elements\Panel_Containers.svg"
   inkscape:export-xdpi="96"
   inkscape:export-ydpi="96"
   xmlns:inkscape="http://www.inkscape.org/namespaces/inkscape"
   xmlns:sodipodi="http://sodipodi.sourceforge.net/DTD/sodipodi-0.dtd"
   xmlns="http://www.w3.org/2000/svg"
   xmlns:svg="http://www.w3.org/2000/svg"><sodipodi:namedview
     id="namedview7"
     pagecolor="#ffffff"
     bordercolor="#000000"
     borderopacity="0.25"
     inkscape:showpageshadow="2"
     inkscape:pageopacity="0.0"
     inkscape:pagecheckerboard="0"
     inkscape:deskcolor="#d1d1d1"
     inkscape:document-units="px"
     showgrid="false"
     showguides="true"
     inkscape:zoom="0.125"
     inkscape:cx="-1140"
     inkscape:cy="1368"
     inkscape:window-width="1920"
     inkscape:window-height="1009"
     inkscape:window-x="-8"
     inkscape:window-y="-8"
     inkscape:window-maximized="1"
     inkscape:current-layer="layer5" /><defs
     id="defs2" /><g
     inkscape:groupmode="layer"
     id="layer2"
     inkscape:label="Paineis"
     inkscape:highlight-color="#efc4fc"><g
       inkscape:groupmode="layer"
       id="layer1"
       inkscape:label="Super_Grande"><g
         inkscape:groupmode="layer"
         id="layer7"
         inkscape:label="Um"><path
           id="path25162"
           style="opacity:1;fill:#1b114a;fill-opacity:1;fill-rule:evenodd;stroke-width:1.751;stroke-linecap:square;stroke-miterlimit:0;paint-order:markers fill stroke"
           d="m 898.32803,878.23507 -14.5664,10.5 v 195.55383 l 14.5664,15.0957 h 457.83747 l -9.8554,-10.3457 h 74.9804 l -9.3359,10.3457 h 31.1992 l 4.0566,-4.0586 -11.4238,-13.6133 2.7754,-2.3301 11.2207,13.3731 13.5195,-13.5215 V 888.73507 l -14.83,-10.5 h -0.6211 V 1068.703 l -14.4981,14.498 H 972.91193 l 5.0176,5.9199 h -53.9179 l 4.916,-5.9199 h -15.0645 l -14.498,-14.498 V 878.23507 Z m 564.97417,206.12413 -11.1836,11.1816 2.0254,2.4141 9.1582,-9.1582 z m 0,9.5625 -5.4765,5.4766 5.4765,0.01 z m -13.7539,4.1895 -1.2734,1.2734 h 0.1973 2.1464 z"
           sodipodi:nodetypes="ccccccccccccccccccccccccccccccccccccccccc" /><path
           id="path25164"
           style="opacity:1;fill:#d6edff;fill-opacity:1;fill-rule:evenodd;stroke-width:1.751;stroke-linecap:square;stroke-miterlimit:0;paint-order:markers fill stroke"
           d="m 910.69713,554.52824 -14.8437,14.84375 v 502.52241 l 14.8437,14.8437 h 15.293 l 2.9375,-3.5371 h -15.0645 l -11.6696,-14.498 V 572.5634 l 11.6696,-14.5 H 1433.353 l 11.8731,14.5 v 496.1396 l -11.8731,14.498 H 972.91193 l 2.9981,3.5371 H 1436.519 l 14.8418,-14.8437 V 569.37199 l -14.8418,-14.84375 z"
           sodipodi:nodetypes="ccccccccccccccccccccc" /><path
           id="path25166"
           style="opacity:1;fill:#131853;fill-opacity:0.270588;fill-rule:evenodd;stroke-width:1.71034;stroke-linecap:square;stroke-miterlimit:0;paint-order:markers fill stroke"
           d="m 913.86313,558.0634 -11.6855,14.5 v 496.1396 l 11.6855,14.498 h 15.0645 l 3.7461,-4.5098 h 36.416 l 3.8222,4.5098 H 1433.353 l 11.8464,-14.498 V 572.5634 l -11.8464,-14.5 z"
           sodipodi:nodetypes="ccccccccccccc" /><path
           id="path25168"
           style="opacity:1;fill:#1b114a;fill-opacity:1;fill-rule:evenodd;stroke-width:1.75059;stroke-linecap:square;stroke-miterlimit:0;paint-order:markers fill stroke"
           d="m 910.72843,554.5634 -14.8399,14.83984 v 49.7793 h 6.2715 V 573.1259 l 11.7031,-10.6875 H 1433.353 l 11.9063,10.125 v 47.82031 h 6.0664 v -50.98047 l -14.8399,-14.83984 z m -14.8399,322.24979 v 195.04801 l 14.8399,14.8398 h 15.2929 l 5.2481,-6.125 h -17.4063 l -11.7031,-11.873 V 876.81319 Z m 549.37077,0 V 1068.703 l -11.9063,11.873 H 970.70303 l 5.1757,6.125 h 460.60707 l 14.8399,-14.8398 V 876.81319 Z"
           sodipodi:nodetypes="ccccccccccccccccccccccccccccccc" /><path
           id="path25170"
           style="opacity:1;fill:#478bff;fill-opacity:1;fill-rule:evenodd;stroke-width:1.75059;stroke-linecap:square;stroke-miterlimit:0;paint-order:markers fill stroke"
           d="m 910.72843,554.5634 -14.8399,14.83984 v 25.80387 l 4.5391,-10.6066 V 573.0634 l 13.4355,-12.52513 H 1433.353 l 13.3106,11.15013 v 22.32049 l 4.6621,5.48008 v -30.08573 l -14.8399,-14.83984 z m -14.8399,490.538 v 26.7598 l 14.8399,14.8398 h 15.2929 l 2.9063,-3.5 h -15.0645 l -14.498,-14.498 v -18.9141 z m 551.96257,4.6875 v 18.9141 l -14.4981,14.498 H 972.91193 l 2.9668,3.5 h 460.60707 l 14.8399,-14.8398 v -27.4473 z"
           sodipodi:nodetypes="ccccccccccccccccccccccccccccccc" /><path
           id="path25172"
           style="opacity:1;fill:#478bff;fill-opacity:1;fill-rule:evenodd;stroke-width:1.751;stroke-linecap:square;stroke-miterlimit:0;paint-order:markers fill stroke"
           d="m 932.66593,1078.703 -8.6622,10.4296 h 53.918 l -8.8398,-10.4296 z m 1.6523,1.4609 h 33.1113 l 6.6875,7.5078 h -46.1328 z"
           sodipodi:nodetypes="cccccccccc" /><path
           id="path25174"
           style="opacity:1;fill:#3b3b73;fill-opacity:1;fill-rule:evenodd;stroke-width:1.29242;stroke-linecap:square;stroke-miterlimit:0;paint-order:markers fill stroke"
           d="m 935.26243,1080.6059 h 31.243 l 6.3095,6.6229 h -43.5285 z"
           sodipodi:nodetypes="ccccc" /><path
           id="path25176"
           style="opacity:1;fill:#3b3b73;fill-opacity:1;fill-rule:evenodd;stroke-width:1.8451;stroke-linecap:square;stroke-miterlimit:0;paint-order:markers fill stroke"
           d="m 1407.5633,1099.7277 h -47.0244 l -9.4967,-8.9682 h 65.5156 z"
           sodipodi:nodetypes="ccccc" /><path
           id="path25178"
           style="opacity:1;fill:#d6edff;fill-opacity:1;fill-rule:evenodd;stroke-width:1.83249;stroke-linecap:square;stroke-miterlimit:0;paint-order:markers fill stroke"
           d="m 904.35143,547.44231 -15.5332,15.5332 v 26.875 l 3.6387,5.48008 V 566.2841 l 15.1758,-15.17773 h 531.95077 l 15.1758,15.17773 v 33.31641 l 3.6367,-4.59619 v -32.02881 l -15.5332,-15.5332 z m 550.40787,64.6582 v 53.99414 l 3.6367,4.06586 V 607.50432 Z M 888.81823,887.41274 v 190.87616 l 15.5332,15.5332 h 446.51527 l -3.4902,-3.6641 H 907.63273 l -15.1758,-15.1757 V 884.6727 Z m 565.94107,-9.89251 v 197.46207 l -15.1758,15.1757 h -19.3027 l -3.3067,3.6641 h 25.8887 l 15.5332,-15.5332 V 880.17188 Z"
           sodipodi:nodetypes="cccccccccccccccccccccccccccccccccccc" /></g><g
         inkscape:groupmode="layer"
         id="layer8"
         inkscape:label="Dois"><path
           id="path23700"
           style="opacity:1;fill:#d6edff;fill-opacity:1;fill-rule:evenodd;stroke-width:1.5634;stroke-linecap:square;stroke-miterlimit:0;paint-order:markers fill stroke"
           d="M 895.16211,34.308594 882.45117,47.019531 V 511.08594 l 12.71094,12.71094 h 552.12109 l 12.7109,-12.71094 V 47.019531 l -12.7109,-12.710937 z m 7.56836,7.5 h 536.98433 l 12.2344,12.232422 V 504.0625 l -12.2344,12.23438 H 902.73047 L 890.49609,504.0625 V 54.041016 Z"
           sodipodi:nodetypes="cccccccccccccccccc" /><path
           id="path22826"
           style="opacity:1;fill:#131853;fill-opacity:0.270588;fill-rule:evenodd;stroke-width:1.5047;stroke-linecap:square;stroke-miterlimit:0;paint-order:markers fill stroke"
           d="m 902.73062,41.80803 h 536.98398 l 12.2337,12.233729 V 504.06291 l -12.2337,12.23374 H 902.73062 L 890.49688,504.06291 V 54.041759 Z"
           sodipodi:nodetypes="ccccccccc" /><path
           id="path22815"
           style="opacity:1;fill:#3b3b73;fill-opacity:1;fill-rule:evenodd;stroke-width:1.56576;stroke-linecap:square;stroke-miterlimit:0;paint-order:markers fill stroke"
           d="M 894.85547,34.003906 882.12695,46.734375 V 258.5 l 8.36914,11.5625 V 54.041016 l 12.23438,-12.232422 h 536.98433 l 12.2344,12.232422 V 71.5 l 8.3692,9.369165 V 46.734375 L 1447.5879,34.003906 Z M 1451.9492,213.5 v 255.46875 l 8.3008,-5.09375 c 0.02,-0.0122 0.068,45.002 0.068,0.002 V 202.5 Z m 8.3692,266.12305 c -0.023,8e-5 -0.047,-0.006 -0.068,0.002 l -8.3008,3.0625 v 21.375 l -12.2344,12.23438 H 902.73047 L 890.49609,504.0625 V 473 l -8.36914,7.5 v 30.86914 l 12.72852,12.73047 h 552.73243 l 12.7305,-12.73047 z"
           sodipodi:nodetypes="cccccccccccccccsccccscccccccccccc" /><path
           id="rect21665"
           style="opacity:1;fill:#478bff;fill-opacity:1;fill-rule:evenodd;stroke-width:1.522;stroke-linecap:square;stroke-miterlimit:0;paint-order:markers fill stroke"
           d="m 900.5,39.597656 -12.37305,12.375 V 262.5625 L 890.90234,258.5 V 54.396484 L 903.11328,42.1875 H 1439.332 l 12.211,12.208984 v 19.401613 l 2.7754,2.828427 V 51.972656 l -12.3731,-12.375 z M 1451.543,211.3125 V 474.375 l 2.7754,3.28125 V 207.6875 Z m 0,265.21875 v 27.17773 l -12.211,12.20899 H 903.11328 L 890.90234,503.70898 V 477.93674 L 888.12695,480.5 v 25.63281 L 900.5,518.50586 h 541.4453 l 12.3731,-12.37305 V 479.625 Z"
           sodipodi:nodetypes="ccccccccccccccccccccccccccccccc" /><path
           id="path22822"
           style="opacity:1;fill:#1b114a;fill-opacity:1;fill-rule:evenodd;stroke-width:1.55197;stroke-linecap:square;stroke-miterlimit:0;paint-order:markers fill stroke"
           d="M 896.63672,35.769531 884.01953,48.388672 V 275.375 l 2.83008,4.125 V 50.859375 l 12.45117,-12.449219 h 543.84372 l 12.4512,12.449219 v 39.787518 l 2.8301,4.684582 V 48.388672 L 1445.8086,35.769531 Z M 1455.5957,188.68997 v 279.02992 l 2.8301,3.97748 v -286.6949 z m 0,283.28944 v 31.77534 l -12.4512,15.94056 H 899.30078 l -12.45117,-12.44922 v -36.91075 l -2.83008,2.43068 v 36.95078 l 12.61719,12.61718 549.17188,-3.49134 12.6172,-12.61718 v -30.0918 z"
           sodipodi:nodetypes="ccccccccccccccccccccccccccccccc" /></g></g><g
       inkscape:groupmode="layer"
       id="layer3"
       inkscape:label="Grande"><path
         id="path21657"
         style="fill:#131853;fill-opacity:0.270588;stroke-width:1.82023;stroke-linecap:square;stroke-miterlimit:0;paint-order:markers fill stroke"
         d="m 42.82549,28.749919 412.97342,-0.04734 0.88388,635.430521 H 40.716733 Z"
         sodipodi:nodetypes="ccccc" /><path
         id="rect47652"
         style="fill:#d6edff;fill-opacity:0.847059;fill-rule:evenodd;stroke:none;stroke-width:1.751;stroke-linecap:square;stroke-miterlimit:0;stroke-dasharray:none;stroke-opacity:1;paint-order:markers fill stroke"
         d="M 37,25 V 678.1026 H 462.05546 V 25 Z m 6,6.514719 412,0.441942 V 663.1026 H 43 Z"
         sodipodi:nodetypes="cccccccccc" /><path
         id="path21645"
         style="fill:#3b3b73;fill-opacity:1;stroke-width:1.71933;stroke-linecap:square;stroke-miterlimit:0;paint-order:markers fill stroke"
         d="m 38.51592,371.20898 -4.312795,12.17383 v 288.34375 l 11.737416,12.17188 H 457.29962 l 7.22772,-8.12811 V 383.38281 l -7.23553,-12.17383 h -3.45611 l -0.25,292.41179 H 43.110236 V 371.20898 Z"
         sodipodi:nodetypes="ccccccccccccc" /><path
         id="path21650"
         style="fill:#d6edff;fill-opacity:0.847059;stroke:none;stroke-width:1.522;stroke-linecap:square;stroke-miterlimit:0;stroke-dasharray:none;stroke-opacity:1;paint-order:markers fill stroke"
         d="m 453.44731,608.75 v 55.4011 H 397.375 v 19.77468 h 59.9684 l 7.18785,-8.01238 0.0195,-67.1634 z"
         sodipodi:nodetypes="cccccccc" /><path
         id="path8995"
         style="fill:#478bff;fill-opacity:1;stroke-width:33.7141;stroke-linecap:square;stroke-miterlimit:3.5;paint-order:stroke fill markers"
         d="m 42.949198,31.703125 -2.564831,1.275376 v 4.376317 l 7.405041,-5.651693 z m 7.926442,0 -10.491273,8.482976 V 265.05935 H 46.89996 L 46.742773,37.573346 444.8003,37.563546 438.58707,31.703101 Z m 401.16018,12.884901 -0.95811,220.471324 h 7.18637 L 458.11263,49.920882 Z M 40.384367,485.52177 v 169.53407 l 6.78396,7.34754 -0.116931,-176.88161 z m 6.78396,176.88161 -4.105121,-4.38455 z m -4.105205,-4.38422 7.332199,7.94178 H 444.53896 l 11.06635,-11.15261 -0.1246,-169.28656 h -6.09962 l -0.23961,171.11721 z m -2.678755,-1.11756 v 6.40825 l 2.741188,2.65109 h 5.651064 z"
         sodipodi:nodetypes="ccccccccccccccccccccccccccccccccccccccc" /><path
         id="rect531"
         style="fill:#1b114a;fill-opacity:1;stroke-width:34.351;stroke-linecap:square;stroke-miterlimit:3.5;paint-order:stroke fill markers"
         d="M 39.050781,24.703125 36.4375,27.021484 v 4.458985 l 7.544922,-6.777344 z m 8.076172,0 L 36.4375,34.365234 V 263.48633 h 6.638672 l -0.160156,-231.783205 395.664854,-0.01 -7.04767,-6.990039 z m 391.453917,7 16.60873,15.882813 0.0254,-15.715998 z m 16.60873,15.617648 -0.30078,216.165557 h 7.32212 L 462.05664,53.019531 Z M 36.4375,488.11328 v 166.07227 l 6.912109,7.48633 -0.11914,-173.5586 z m 6.912109,173.5586 0.002,2.20507 2.029297,-0.008 z m 2.03125,2.19726 7.470703,8.0918 H 448.22656 L 459.50195,660.59766 459.375,488.11328 h -6.21484 l -0.24414,174.34961 z M 36.4375,662.73047 v 6.5293 l 2.792969,2.70117 h 5.757812 z"
         sodipodi:nodetypes="cccccccccccccccccccccccccccccccccccccccccccc" /><path
         id="rect47797"
         style="fill:#d6edff;fill-opacity:0.847059;fill-rule:evenodd;stroke:none;stroke-width:17.9288;stroke-linecap:square;stroke-miterlimit:0;stroke-dasharray:none;stroke-opacity:1;paint-order:markers fill stroke"
         d="m 30.738281,16.887096 c -1.52349,0 -2.75,1.22651 -2.75,2.75 V 157 h 5.458985 V 22.210938 H 410.17969 V 16.887096 Z M 449.5,17.351562 v 4.859376 h 16.06641 V 70 h 5.02539 V 20.101562 c 0,-1.52349 -1.2265,-2.75 -2.75,-2.75 z M 25.695388,384 v 304.87984 c 0,1.5235 1.22651,2.75 2.75,2.75 H 254.62891 v -5.34499 H 30.904373 V 384 Z"
         sodipodi:nodetypes="sscccccscccccssccssccccc" /><path
         style="color:#000000;fill:#1b114a;fill-opacity:1;stroke:none;stroke-linecap:square;stroke-miterlimit:0;stroke-opacity:1;-inkscape-stroke:none;paint-order:markers fill stroke"
         d="m 214.39062,-49.101827 -0.0531,443.206187 4.87496,-9.51164 0.0193,-439.557757 z"
         id="path10473-53-6-2-7"
         sodipodi:nodetypes="ccccc"
         transform="matrix(1.0648181,0,0,0.39630942,-191.91852,105.38823)" /><path
         style="color:#000000;fill:#276b96;fill-opacity:1;stroke:none;stroke-width:2.44192;stroke-linecap:square;stroke-miterlimit:0;stroke-opacity:1;-inkscape-stroke:none;paint-order:markers fill stroke"
         d="m 221.76763,383.35769 -6.15638,14.2479 z"
         id="path10476-5"
         sodipodi:nodetypes="ccc"
         transform="matrix(0.32235554,0,0,0.51014538,-31.455463,320.272)" /></g><g
       inkscape:groupmode="layer"
       id="layer4"
       inkscape:label="Pequeno"><path
         id="rect16541"
         style="opacity:1;fill:#1b114a;fill-opacity:1;fill-rule:evenodd;stroke-width:1.751;stroke-linecap:square;stroke-miterlimit:0;paint-order:markers fill stroke"
         d="m 517.90455,612.36292 -14.56641,10.5 v 130.5 l 14.56641,15.0957 h 204.69336 l -9.85547,-10.3457 h 74.98047 l -9.33594,10.3457 h 31.19922 l 4.05664,-4.05859 -11.42383,-13.61328 2.77539,-2.33008 11.22071,13.37305 13.51953,-13.52149 V 622.86292 l -14.83008,-10.5 h -0.62109 v 125.41406 l -14.49805,14.49805 H 592.48853 l 5.01758,5.91992 h -53.91797 l 4.91602,-5.91992 H 533.43971 L 518.94166,737.77698 V 612.36292 Z m 311.83008,141.07031 -11.1836,11.18164 2.0254,2.41407 9.1582,-9.15821 z m 0,9.5625 -5.47656,5.47657 5.47656,0.006 z m -13.75391,4.18946 -1.27344,1.27343 h 0.19727 l 2.14648,0.002 z" /><path
         id="rect14937"
         style="opacity:1;fill:#d6edff;fill-opacity:1;fill-rule:evenodd;stroke-width:1.751;stroke-linecap:square;stroke-miterlimit:0;paint-order:markers fill stroke"
         d="m 530.27369,451.29065 -14.84375,14.84375 v 274.83399 l 14.84375,14.84375 h 15.29297 l 2.9375,-3.53711 H 533.43971 L 521.77009,737.77698 V 469.32581 l 11.66962,-14.5 h 266.3457 l 11.87305,14.5 v 268.45117 l -11.87305,14.49805 H 592.48853 l 2.99805,3.53711 h 207.46485 l 14.84179,-14.84375 V 466.1344 l -14.84179,-14.84375 z"
         sodipodi:nodetypes="ccccccccccccccccccccc" /><path
         id="path14941"
         style="opacity:1;fill:#131853;fill-opacity:0.270588;fill-rule:evenodd;stroke-width:1.71034;stroke-linecap:square;stroke-miterlimit:0;paint-order:markers fill stroke"
         d="m 533.43971,454.82581 -11.68555,14.5 v 268.45117 l 11.68555,14.49805 h 15.06445 l 3.74609,-4.50977 h 36.41602 l 3.82226,4.50977 h 207.29688 l 11.8464,-14.49805 V 469.32581 l -11.8464,-14.5 z"
         sodipodi:nodetypes="ccccccccccccc" /><path
         id="path15695"
         style="opacity:1;fill:#1b114a;fill-opacity:1;fill-rule:evenodd;stroke-width:1.75059;stroke-linecap:square;stroke-miterlimit:0;paint-order:markers fill stroke"
         d="m 530.30494,451.32581 -14.83984,14.83984 v 49.7793 h 6.27148 v -46.05664 l 11.70313,-10.6875 h 266.3457 l 11.90625,10.125 v 47.82031 h 6.06641 V 466.16565 L 802.91822,451.32581 Z M 515.4651,610.94104 v 129.99415 l 14.83984,14.83984 h 15.29297 l 5.24805,-6.125 H 533.43971 L 521.73658,737.77698 V 610.94104 Z m 296.22656,0 v 126.83594 l -11.90625,11.87305 H 590.27955 l 5.17578,6.125 h 207.46289 l 14.83985,-14.83984 V 610.94104 Z"
         sodipodi:nodetypes="ccccccccccccccccccccccccccccccc" /><path
         id="path17275"
         style="opacity:1;fill:#478bff;fill-opacity:1;fill-rule:evenodd;stroke-width:1.75059;stroke-linecap:square;stroke-miterlimit:0;paint-order:markers fill stroke"
         d="m 530.30494,451.32581 -14.83984,14.83984 v 25.80387 l 4.53906,-10.6066 v -11.53711 l 13.43555,-12.52513 h 266.3457 l 13.31055,11.15013 v 22.32049 l 4.66211,5.48008 V 466.16565 L 802.91822,451.32581 Z M 515.4651,714.17542 v 26.75977 l 14.83984,14.83984 h 15.29297 l 2.90625,-3.5 h -15.06445 l -14.49805,-14.49805 v -18.91406 z m 298.81836,4.6875 v 18.91406 l -14.49805,14.49805 H 592.48853 l 2.9668,3.5 h 207.46289 l 14.83985,-14.83984 v -27.44727 z"
         sodipodi:nodetypes="ccccccccccccccccccccccccccccccc" /><path
         id="path18754"
         style="opacity:1;fill:#478bff;fill-opacity:1;fill-rule:evenodd;stroke-width:1.751;stroke-linecap:square;stroke-miterlimit:0;paint-order:markers fill stroke"
         d="m 552.24244,747.77698 -8.66211,10.42969 h 53.91797 l -8.83984,-10.42969 z m 1.65234,1.46094 h 33.11133 l 6.6875,7.50781 H 547.5608 Z" /><path
         id="path18764"
         style="opacity:1;fill:#3b3b73;fill-opacity:1;fill-rule:evenodd;stroke-width:1.29242;stroke-linecap:square;stroke-miterlimit:0;paint-order:markers fill stroke"
         d="m 554.83899,749.67997 h 31.24295 l 6.30959,6.62285 h -43.52852 z"
         sodipodi:nodetypes="ccccc" /><path
         id="path19498"
         style="opacity:1;fill:#3b3b73;fill-opacity:1;fill-rule:evenodd;stroke-width:1.8451;stroke-linecap:square;stroke-miterlimit:0;paint-order:markers fill stroke"
         d="m 773.99565,768.80176 h -47.0244 l -9.49669,-8.96819 h 65.51566 z"
         sodipodi:nodetypes="ccccc" /><path
         id="path19794"
         style="opacity:1;fill:#d6edff;fill-opacity:1;fill-rule:evenodd;stroke-width:1.83249;stroke-linecap:square;stroke-miterlimit:0;paint-order:markers fill stroke"
         d="m 523.92799,444.20472 -15.53321,15.5332 v 26.875 l 3.63868,5.48008 v -29.04649 l 15.17578,-15.17773 h 278.80664 l 15.17578,15.17773 v 33.31641 l 3.63672,-4.59619 v -32.02881 l -15.53321,-15.5332 z m 297.26367,64.6582 v 53.99414 l 3.63672,4.06586 V 504.26673 Z M 508.39478,621.54059 v 125.82233 l 15.53321,15.5332 h 193.37109 l -3.49023,-3.66406 H 527.20924 L 512.03346,744.05628 V 618.80055 Z m 312.79688,-9.89251 v 132.4082 l -15.17578,15.17578 h -19.30274 l -3.30664,3.66406 h 25.88867 l 15.53321,-15.5332 V 614.29973 Z"
         sodipodi:nodetypes="cccccccccccccccccccccccccccccccccccc" /><path
         id="path14941-7"
         style="display:none;opacity:0.547667;fill:#131853;fill-opacity:0.270588;fill-rule:evenodd;stroke-width:2.84847;stroke-linecap:square;stroke-miterlimit:0;paint-order:markers fill stroke"
         d="M 885.93413,35.390273 866.47254,59.539159 V 506.6286 l 19.46159,24.14564 h 25.08895 l 6.23889,-7.51076 h 60.64871 l 6.36575,7.51076 H 1329.517 l 19.7295,-24.14564 V 59.539159 L 1329.517,35.390273 Z"
         sodipodi:nodetypes="ccccccccccccc" /></g><g
       inkscape:groupmode="layer"
       id="layer5"
       inkscape:label="Medio"><path
         id="path21639-0"
         style="fill:#131853;fill-opacity:0.270588;stroke-width:1.06885;stroke-linecap:square;stroke-miterlimit:0;paint-order:markers fill stroke"
         d="M 521.83269,32.9584 H 749.91401 V 394.63692 H 521.83269 Z"
         sodipodi:nodetypes="ccccc" /><path
         id="rect15700-5"
         style="fill:#478bff;fill-opacity:1;stroke-width:0.983577;stroke-linecap:square;stroke-miterlimit:0;paint-order:markers fill stroke"
         d="m 514.49778,250.84741 -7.28906,6.41323 v 142.47088 l 14.53906,15.87175 h 236.61624 l 7.29101,-6.41496 V 259.01064 l -7.29101,-6.41323 h -7.78669 v 144.9099 H 522.35858 v -146.6599 z"
         sodipodi:nodetypes="ccccccccccccc" /><path
         id="rect17905-1"
         style="fill:#d6edff;fill-opacity:0.847059;stroke:none;stroke-width:0.922367;stroke-linecap:square;stroke-miterlimit:0;stroke-dasharray:none;stroke-opacity:1;paint-order:markers fill stroke"
         d="m 519.79771,13.04057 -17.79297,16.69532 v 106.73632 l 5.65626,7.95495 V 33.27104 l 13.73046,-13.73828 h 164.83789 v -6.49219 z m 208.52149,0.60938 v 6.49219 h 22.45703 l 19.97656,20.59179 -0.35351,95.73828 h 5.65625 V 36.98393 L 753.25084,13.64995 Z m -229.56446,296.0625 v 61.51953 l 5.65626,9.01561 v -79.9043 z m 269.1211,0 -0.5,79.67578 -1.73242,1.82813 v 13.33789 l 7.38867,-8.49805 0.5,-86.34375 z m -2.23242,94.8418 -11.53711,11.10937 h 4.16406 l 7.36133,-6.51562 v 6.51562 h 0.0117 z m -11.53711,11.10937 h -11.64258 l -3.44727,3.63672 -168.38086,-0.35352 v 6.49024 h 174.03711 z m -11.64258,0 23.17969,-24.44726 v -21.11719 h -19.00391 v 24.9375 h -26.5625 v 20.62695 z"
         sodipodi:nodetypes="cccccccccccccccccccccccccccccccccccccccccccccccccccc" /><path
         id="rect531-7-6"
         style="fill:#d6edff;fill-opacity:0.847059;stroke-width:20.5118;stroke-linecap:square;stroke-miterlimit:3.5;paint-order:stroke fill markers"
         d="m 524.28404,21.12651 -9.1869,14.89453 v 363.49414 l 6.79628,6.86719 H 745.77107 L 758.74257,396.04839 758.46523,33.48198 747.07115,21.3101 Z M 523.0692,36.67534 H 750.28795 V 393.61479 H 523.0692 Z"
         sodipodi:nodetypes="cccccccccccccc" /><path
         id="path13183"
         style="fill:#1b114a;fill-opacity:1;stroke-width:20.5118;stroke-linecap:square;stroke-miterlimit:3.5;paint-order:stroke fill markers"
         d="M 522.30162,21.63042 509.7606,34.16948 v 6.10156 L 527.911,21.63042 Z m 13.22656,0 -25.76758,26.28125 v 96.75781 h 13.3086 V 36.67534 h 226.96875 v 107.99414 h 12.15429 l -0.0762,-96.80078 -25.3164,-26.23828 h -72.41016 l -8.36719,10.27929 h -66.94336 l -7.79882,-10.27929 z m 209.60938,0 16.97265,17.77734 -0.004,-5.23828 -12.53907,-12.53906 z M 515.0106,293.44851 v 88.96875 l 22.74824,23.98437 H 751.2588 l 10.37485,-10.81613 -0.0371,-47.72266 -9.17383,-6.51367 V 299.4937 l 5.60937,-5.82422 h -7.99414 v 99.94531 L 523.0692,393.39382 v -99.94531 z m 0.0808,97.04335 v 8.99415 l 6.70003,6.9011 h 8.6875 z"
         sodipodi:nodetypes="cccccccccccccccccccccccccccccccccccccccccccc" /><path
         id="path13178-0"
         style="fill:#3b3b73;fill-opacity:1;stroke-width:1.2844;stroke-linecap:square;stroke-miterlimit:0;paint-order:markers fill stroke"
         d="m 754.0576,300.86223 7.63031,-9.4051 v 54.27599 l -7.63031,-5.63767 z"
         sodipodi:nodetypes="ccccc" /><path
         id="path22437"
         style="fill:#3b3b73;fill-opacity:1;stroke-width:1.61969;stroke-linecap:square;stroke-miterlimit:0;paint-order:markers fill stroke"
         d="m 591.0121,30.737 -7.36779,-9.56026 h 78.60598 l -8.16096,9.56023 z"
         sodipodi:nodetypes="ccccc" /><path
         style="color:#000000;fill:#3b3b73;fill-opacity:1;stroke:none;stroke-linecap:square;stroke-miterlimit:0;stroke-opacity:1;-inkscape-stroke:none;paint-order:markers fill stroke"
         d="m 214.39062,107.34159 -0.0531,357.16014 8.63147,-9.51164 0.0193,-356.245602 z"
         id="path10473-53-6-2-2"
         sodipodi:nodetypes="ccccc"
         transform="matrix(1.3617288e-8,0.59787396,-0.57903245,1.8236866e-8,801.99644,272.90114)" /><path
         style="color:#000000;fill:#478bff;fill-opacity:1;fill-rule:evenodd;stroke:none;stroke-linecap:square;stroke-miterlimit:0;stroke-opacity:1;-inkscape-stroke:none;paint-order:markers fill stroke"
         d="m 214.39062,113.4017 -0.0531,282.32582 8.63147,-0.0973 0.0193,-296.885722 z"
         id="path47586"
         sodipodi:nodetypes="ccccc"
         transform="matrix(0.59787395,0,0,0.34034059,382.32853,9.9857725)" /><path
         style="color:#000000;fill:#3b3b73;fill-opacity:1;stroke:none;stroke-width:1.07683;stroke-linecap:square;stroke-miterlimit:0;stroke-opacity:1;-inkscape-stroke:none;paint-order:markers fill stroke"
         d="m 213.73003,384.23004 -0.0572,111.90505 9.29466,-3.70022 0.0208,-96.89404 z"
         id="path10473-53-6-3"
         sodipodi:nodetypes="ccccc"
         transform="matrix(0.79788069,0,0,0.77273616,592.34049,-11.25836)" /><path
         style="color:#000000;fill:#3b3b73;fill-opacity:1;stroke:none;stroke-width:1.07683;stroke-linecap:square;stroke-miterlimit:0;stroke-opacity:1;-inkscape-stroke:none;paint-order:markers fill stroke"
         d="m 213.73003,65.233715 -0.0572,137.301805 9.29466,-3.70022 0.0208,-122.290797 z"
         id="path47592"
         sodipodi:nodetypes="ccccc"
         transform="matrix(0.79788069,0,0,0.77273616,592.34049,-11.25836)" /><path
         style="color:#000000;fill:#478bff;fill-opacity:1;stroke:none;stroke-linecap:square;stroke-miterlimit:0;stroke-opacity:1;-inkscape-stroke:none;paint-order:markers fill stroke"
         d="m 214.39062,113.79384 -0.0531,280.31052 8.63147,0.13465 0.0193,-295.494522 z"
         id="path22481"
         sodipodi:nodetypes="ccccc"
         transform="matrix(-0.61589083,0,0,0.33902879,893.48382,10.11531)" /><path
         style="color:#000000;fill:#d6edff;fill-opacity:0.847059;stroke:none;stroke-linecap:square;stroke-miterlimit:0;stroke-opacity:1;-inkscape-stroke:none;paint-order:markers fill stroke"
         d="m 220.89548,97.117955 -0.0531,300.394285 8.63147,-15.75942 0.0193,-290.965385 z"
         id="path10473-53-6"
         sodipodi:nodetypes="ccccc"
         transform="matrix(0.59787395,0,0,0.31123768,374.86474,122.79765)" /><path
         style="color:#000000;fill:#3b3b73;fill-opacity:1;stroke:none;stroke-linecap:square;stroke-miterlimit:0;stroke-opacity:1;-inkscape-stroke:none;paint-order:markers fill stroke"
         d="m 214.39062,365.24627 -0.0531,94.84172 10.17545,1.5594 0.004,-97.6652 z"
         id="path22463"
         sodipodi:nodetypes="ccccc"
         transform="matrix(1.3617288e-8,0.06780118,-0.57903245,0,797.11726,14.43616)" /><path
         style="color:#000000;fill:#478bff;fill-opacity:1;stroke:none;stroke-linecap:square;stroke-miterlimit:0;stroke-opacity:1;-inkscape-stroke:none;paint-order:markers fill stroke"
         d="m 214.39061,374.95213 -0.0531,77.47957 8.63147,8.42945 0.0193,-92.79909 z"
         id="path22479"
         sodipodi:nodetypes="ccccc"
         transform="matrix(1.3617288e-8,0.59787396,-0.57903245,1.8236866e-8,798.28093,-105.16648)" /><path
         style="color:#000000;fill:#478bff;fill-opacity:1;stroke:none;stroke-linecap:square;stroke-miterlimit:0;stroke-opacity:1;-inkscape-stroke:none;paint-order:markers fill stroke"
         d="m 214.39062,107.90725 -0.0531,121.92583 8.63147,7.05544 0.0193,-137.201258 z"
         id="path22468"
         sodipodi:nodetypes="ccccc"
         transform="matrix(1.3617288e-8,0.59787396,-0.57903245,1.8236866e-8,798.28093,-105.16648)" /><path
         style="color:#000000;fill:#3b3b73;fill-opacity:1;stroke:none;stroke-linecap:square;stroke-miterlimit:0;stroke-opacity:1;-inkscape-stroke:none;paint-order:markers fill stroke"
         d="m 214.39062,62.009949 -0.0531,332.094411 8.63147,-9.51164 0.0193,-313.980515 z"
         id="path10473-53-6-7"
         sodipodi:nodetypes="ccccc"
         transform="matrix(0,0.59787395,-0.57903247,0,781.42571,281.04061)" /></g><g
       inkscape:groupmode="layer"
       id="layer6"
       inkscape:label="Others"><path
         id="rect23989"
         style="fill:#f4fea8;fill-opacity:1;stroke:none;stroke-width:1.751;stroke-linecap:square;stroke-miterlimit:0;stroke-dasharray:none;stroke-opacity:1;paint-order:markers fill stroke"
         d="m 28.018066,939.91806 c -2.94568,0 -5.31641,2.37074 -5.31641,5.31641 v 0.7207 l 6.03711,-6.03711 z m 7.68164,0 -12.99805,12.99805 v 2.05468 l 15.05274,-15.05273 z m 6.45117,0 -6.5,6.5 h 59.691408 c 2.96943,0 5.359366,2.38995 5.359366,5.35937 v 16.89063 h 6.5 v -23.43359 c 0,-2.94567 -2.37074,-5.31641 -5.3164,-5.31641 z m -12.94922,12.94922 -6.5,6.5 v 9.30078 h 6.5 z m -6.5,42.80078 v 23.43364 c 0,2.9456 2.37073,5.3164 5.31641,5.3164 h 58.259758 l 6.5,-6.5 H 34.561036 c -2.96945,0 -5.35938,-2.39 -5.35938,-5.3594 v -16.89064 z m 77.999994,0 v 14.32814 l 6.5,-6.5 v -7.82814 z m 6.5,14.36714 -14.380856,14.3829 h 3.48828 l 10.892576,-10.8946 z m 0,7.5547 -6.82617,6.8282 h 1.50977 c 2.94566,0 5.3164,-2.3708 5.3164,-5.3164 z" /><path
         id="rect23991"
         style="fill:#e6f76f;fill-opacity:0.291667;stroke:none;stroke-width:1.48162;stroke-linecap:square;stroke-miterlimit:0;stroke-dasharray:none;stroke-opacity:1;paint-order:markers fill stroke"
         d="m 35.651216,946.4187 -6.44922,6.44922 v 59.69138 c 0,2.9695 2.38993,5.3594 5.35938,5.3594 h 60.781238 c 2.96945,0 5.359376,-2.3899 5.359376,-5.3594 v -60.78122 c 0,-2.96944 -2.389926,-5.35938 -5.359376,-5.35938 z" /><path
         id="rect23989-5"
         style="fill:#fca3a3;fill-opacity:1;stroke:none;stroke-width:1.751;stroke-linecap:square;stroke-miterlimit:0;stroke-dasharray:none;stroke-opacity:1;paint-order:markers fill stroke"
         d="m 35.781736,1039.5118 -1.50586,1.5059 1.02735,1.0273 2.5332,-2.5332 z m 6.45117,0 -4.73047,4.7305 1.76953,1.7695 h 48.646488 l 6.5,-6.5 z m 65.050774,5.8731 -6.5,6.5 v 16.3769 h 6.5 z m -82.374994,5 -2.125,2.125 v 2.0546 l 3.15235,-3.1523 z m 3.22461,3.2265 -5.34961,5.3496 v 9.3008 h 6.5 v -13.5 z m -5.34961,41.6504 v 15.8848 l 6.5,-6.5 v -9.3848 z m 77.999994,0 v 12.2617 l 6.5,6.5 v -18.7617 z m -65.626944,22.25 -6.5,6.5 h 69.876948 l -6.5,-6.5 z" /><path
         id="rect23991-3"
         style="fill:#f22e2e;fill-opacity:0.291667;stroke:none;stroke-width:1.48162;stroke-linecap:square;stroke-miterlimit:0;stroke-dasharray:none;stroke-opacity:1;paint-order:markers fill stroke"
         d="m 39.271966,1046.0118 61.511714,61.5117 v -56.1523 c 0,-2.9694 -2.389916,-5.3594 -5.359366,-5.3594 z m -9.98828,8.75 v 57.3906 c 0,2.9695 2.38993,5.3594 5.35938,5.3594 h 57.390618 z" /></g></g></svg>
