<?xml version="1.0" encoding="UTF-8" standalone="no"?>
<!-- Created with Inkscape (http://www.inkscape.org/) -->

<svg
   width="135.33212mm"
   height="79.04351mm"
   viewBox="0 0 135.33212 79.04351"
   version="1.1"
   id="svg4283"
   xml:space="preserve"
   inkscape:version="1.2.2 (732a01da63, 2022-12-09)"
   sodipodi:docname="menu.svg"
   inkscape:export-filename="menu.svg"
   inkscape:export-xdpi="159.51199"
   inkscape:export-ydpi="159.51199"
   xmlns:inkscape="http://www.inkscape.org/namespaces/inkscape"
   xmlns:sodipodi="http://sodipodi.sourceforge.net/DTD/sodipodi-0.dtd"
   xmlns="http://www.w3.org/2000/svg"
   xmlns:svg="http://www.w3.org/2000/svg"><sodipodi:namedview
     id="namedview4285"
     pagecolor="#777777"
     bordercolor="#000000"
     borderopacity="0.25"
     inkscape:showpageshadow="2"
     inkscape:pageopacity="0"
     inkscape:pagecheckerboard="0"
     inkscape:deskcolor="#2f2f2f"
     inkscape:document-units="mm"
     showgrid="false"
     inkscape:zoom="0.25"
     inkscape:cx="554"
     inkscape:cy="852"
     inkscape:window-width="1920"
     inkscape:window-height="1009"
     inkscape:window-x="-8"
     inkscape:window-y="-8"
     inkscape:window-maximized="1"
     inkscape:current-layer="layer1" /><defs
     id="defs4280" /><g
     inkscape:groupmode="layer"
     id="layer3"
     inkscape:label="Panel"
     transform="translate(-286.7003,-86.06599)"><path
       id="path36084"
       style="fill:#131853;fill-opacity:0.270588;fill-rule:evenodd;stroke-width:0.459375;stroke-linecap:square;stroke-miterlimit:0;paint-order:markers fill stroke"
       d="m 292.00163,87.479603 -3.99967,3.894515 v 68.427762 l 3.99967,3.89399 h 4.04612 l 1.00615,-0.095 h 3.75337 l 1.02662,0.095 h 115.03304 l 4.04286,-3.89399 V 91.374118 l -4.04286,-3.894515 z"
       sodipodi:nodetypes="ccccccccccccc"
       inkscape:export-filename="main_image\panel.svg"
       inkscape:export-xdpi="159.51199"
       inkscape:export-ydpi="159.51199" /><path
       id="path36086"
       style="fill:#d6edff;fill-opacity:1;fill-rule:evenodd;stroke-width:0.470296;stroke-linecap:square;stroke-miterlimit:0;paint-order:markers fill stroke"
       d="m 291.15128,86.53011 -3.98684,3.986843 v 70.142107 l 3.98684,3.98682 h 4.1075 l 0.78897,-0.95001 h -4.04612 l -3.94754,-3.89399 V 91.374118 l 3.94754,-3.894515 h 124.8653 l 3.91241,3.894515 v 68.427762 l -3.91241,3.89399 H 301.83389 l 0.80522,0.95001 h 115.07817 l 3.98631,-3.98682 V 90.516953 l -3.98631,-3.986843 z"
       sodipodi:nodetypes="ccccccccccccccccccccc" /><path
       id="path36088"
       style="fill:#1b114a;fill-opacity:1;fill-rule:evenodd;stroke-width:0.470186;stroke-linecap:square;stroke-miterlimit:0;paint-order:markers fill stroke"
       d="m 291.15967,86.065991 -4.3917,4.459357 v 27.248142 h 2.64208 V 91.525212 l 2.9998,-2.870533 H 416.5953 l 3.19785,2.719453 v 12.987098 h 2.23927 V 90.525348 l -4.32407,-4.459357 z m -4.45936,58.332359 v 16.25178 l 4.45936,4.45936 h 4.10749 l 1.40957,-1.69844 h -4.26688 l -3.56144,-3.60917 v -15.40353 z m 132.95311,-6.89002 v 22.51279 l -3.1592,3.30771 -119.84754,0.0822 -1.3836,1.69844 h 122.568 l 4.20134,-4.45936 v -23.1418 z"
       sodipodi:nodetypes="ccccccccccccccccccccccccccccccc" /><path
       id="path36090"
       style="fill:#478bff;fill-opacity:1;fill-rule:evenodd;stroke-width:0.470186;stroke-linecap:square;stroke-miterlimit:0;paint-order:markers fill stroke"
       d="m 291.15967,86.539556 -3.98579,3.985785 v 26.586969 l 1.62735,-0.0264 V 91.508438 l 3.60862,-3.364084 H 416.5953 l 3.42282,2.994783 0.15222,12.798713 1.52381,-0.006 V 90.525109 l -3.9858,-3.985785 z m -3.98579,58.523944 v 15.58663 l 3.98579,3.98579 h 4.10749 l 0.78059,-0.94005 h -3.6379 l -3.89399,-3.89399 v -14.72315 z m 133.3154,-6.99977 v 22.13864 l -3.42889,3.4935 h -115.2265 l 0.79684,0.94005 H 417.8117 l 3.88245,-3.98579 v -22.58442 z"
       sodipodi:nodetypes="ccccccccccccccccccccccccccccccc" /></g></svg>
