<?xml version="1.0" encoding="UTF-8" standalone="no"?>
<!-- Created with Inkscape (http://www.inkscape.org/) -->

<svg
   width="42.383202mm"
   height="42.383202mm"
   viewBox="0 0 42.383202 42.383202"
   version="1.1"
   id="svg316"
   xml:space="preserve"
   inkscape:version="1.2.2 (732a01da63, 2022-12-09)"
   sodipodi:docname="Buff and debuff.svg"
   inkscape:export-filename="Nova pasta\Buff and debuff.png"
   inkscape:export-xdpi="3.8699999"
   inkscape:export-ydpi="3.8699999"
   xmlns:inkscape="http://www.inkscape.org/namespaces/inkscape"
   xmlns:sodipodi="http://sodipodi.sourceforge.net/DTD/sodipodi-0.dtd"
   xmlns:xlink="http://www.w3.org/1999/xlink"
   xmlns="http://www.w3.org/2000/svg"
   xmlns:svg="http://www.w3.org/2000/svg"><sodipodi:namedview
     id="namedview318"
     pagecolor="#7d7d7d"
     bordercolor="#000000"
     borderopacity="0.25"
     inkscape:showpageshadow="2"
     inkscape:pageopacity="0"
     inkscape:pagecheckerboard="0"
     inkscape:deskcolor="#666666"
     inkscape:document-units="mm"
     showgrid="true"
     inkscape:zoom="0.73851712"
     inkscape:cx="149.62416"
     inkscape:cy="82.59795"
     inkscape:window-width="1920"
     inkscape:window-height="1009"
     inkscape:window-x="-8"
     inkscape:window-y="-8"
     inkscape:window-maximized="1"
     inkscape:current-layer="layer1"><inkscape:grid
       type="xygrid"
       id="grid6760"
       spacingx="8.4666667"
       spacingy="8.4666667" /></sodipodi:namedview><defs
     id="defs313"><color-profile
       name="Apple-RGB"
       xlink:href="file:///usr/share/color/icc/colord/AppleRGB.icc"
       id="color-profile4142" /></defs><g
     inkscape:label="Camada 1"
     inkscape:groupmode="layer"
     id="layer1"
     transform="translate(-126.9)"><rect
       style="fill:#ffffff;fill-opacity:0.997239;fill-rule:evenodd;stroke-width:7.12506;stroke-linecap:square;stroke-miterlimit:0;stroke-dasharray:none;paint-order:markers fill stroke"
       id="rect23912"
       width="5.8842468"
       height="35.305477"
       x="87.45356"
       y="101.80943"
       transform="rotate(-45)" /><path
       id="path31565"
       style="fill:#ffffff;fill-opacity:1;fill-rule:evenodd;stroke:none;stroke-width:1.78492;stroke-linecap:square;stroke-linejoin:miter;stroke-miterlimit:4.8;stroke-dasharray:none;stroke-opacity:1"
       d="m 164.24062,5.9557088 -9.08937,0.3162598 -6.71793,8.6516684 6.06216,6.062679 8.86871,-6.063713 z M 143.476,21.307743 l -1.82211,2.34611 c -1.1294,-0.928363 -2.19165,-1.49194 -3.45561,-1.5875 -0.52567,-0.03974 -1.31328,0.656547 -0.8077,1.697054 0.67424,1.387618 1.80919,0.116272 1.80919,0.116272 l 1.43196,1.554944 -7.2068,7.329785 -1.41955,-0.01395 c 0,0 -0.0977,2.173479 0.57516,2.888196 0.71012,0.75429 3.00602,0.789615 3.00602,0.789615 l 0.0656,-1.42937 7.66619,-6.769096 0.50592,0.522966 0.92242,0.952397 c 0,0 -1.02765,0.858655 -0.32711,1.59215 1.26445,1.323924 1.99213,-0.173116 1.99213,-0.173116 0.17442,-1.16588 -0.1925,-2.440996 -1.25109,-3.755843 l 2.59881,-1.777152 z" /><path
       id="rect1583"
       style="opacity:1;fill:#fefefe;fill-opacity:0;stroke-width:0.264583"
       d="m 126.9,0 h 42.3832 V 42.383202 H 126.9 Z"
       inkscape:export-filename="../GitHub/Fussionics/assets/svg/passive_effects/burning.svg"
       inkscape:export-xdpi="3.8699999"
       inkscape:export-ydpi="3.8699999" /></g></svg>
