<?xml version="1.0" encoding="UTF-8" standalone="no"?>
<!-- Created with Inkscape (http://www.inkscape.org/) -->

<svg
   width="42.383202mm"
   height="42.383202mm"
   viewBox="0 0 42.383202 42.383202"
   version="1.1"
   id="svg316"
   xml:space="preserve"
   inkscape:version="1.2.2 (732a01da63, 2022-12-09)"
   sodipodi:docname="Buff and debuff.svg"
   inkscape:export-filename="Nova pasta\Buff and debuff.png"
   inkscape:export-xdpi="3.8699999"
   inkscape:export-ydpi="3.8699999"
   xmlns:inkscape="http://www.inkscape.org/namespaces/inkscape"
   xmlns:sodipodi="http://sodipodi.sourceforge.net/DTD/sodipodi-0.dtd"
   xmlns:xlink="http://www.w3.org/1999/xlink"
   xmlns="http://www.w3.org/2000/svg"
   xmlns:svg="http://www.w3.org/2000/svg"><sodipodi:namedview
     id="namedview318"
     pagecolor="#7d7d7d"
     bordercolor="#000000"
     borderopacity="0.25"
     inkscape:showpageshadow="2"
     inkscape:pageopacity="0"
     inkscape:pagecheckerboard="0"
     inkscape:deskcolor="#666666"
     inkscape:document-units="mm"
     showgrid="true"
     inkscape:zoom="0.73851712"
     inkscape:cx="149.62416"
     inkscape:cy="82.59795"
     inkscape:window-width="1920"
     inkscape:window-height="1009"
     inkscape:window-x="-8"
     inkscape:window-y="-8"
     inkscape:window-maximized="1"
     inkscape:current-layer="layer1"><inkscape:grid
       type="xygrid"
       id="grid6760"
       spacingx="8.4666667"
       spacingy="8.4666667" /></sodipodi:namedview><defs
     id="defs313"><color-profile
       name="Apple-RGB"
       xlink:href="file:///usr/share/color/icc/colord/AppleRGB.icc"
       id="color-profile4054" /></defs><g
     inkscape:label="Camada 1"
     inkscape:groupmode="layer"
     id="layer1"
     transform="translate(-84.599993)"><path
       id="path3435"
       style="fill:#ffffff;fill-opacity:0.997239;fill-rule:evenodd;stroke-width:3.76333;stroke-linecap:square;stroke-miterlimit:0;stroke-dasharray:none;paint-order:markers fill stroke"
       d="m 104.98563,2.4644491 c -1.08493,4.5382904 -1.80574,9.7022659 -4.78937,13.1413169 -1.181142,-1.066825 -1.964586,-2.332095 -3.900536,-3.021521 -3.220357,5.973862 -4.387301,11.245812 -3.261944,15.904403 0.181217,-0.43587 0.60001,-1.069383 0.837632,-1.51018 0.914488,0.325662 1.360781,0.411741 1.918715,0.915676 1.409369,-1.6245 1.749901,-3.9298 2.262394,-6.073542 2.412419,2.257504 4.953939,5.452198 4.557349,10.840866 0.7776,-0.446414 1.3577,-0.827288 1.85193,-1.42318 0.79906,2.653145 0.99104,6.522927 -1.04459,7.78084 0.75743,0.14479 1.50427,0.04153 2.32665,0.04153 10.99659,0 14.99932,-8.454218 12.28594,-17.463524 -1.04629,1.261504 -2.74942,2.351385 -4.3956,3.29644 0.83959,-11.407784 -3.54149,-17.6500015 -8.64857,-22.4291249 z"
       sodipodi:nodetypes="ccccccccccsccc" /><path
       style="fill:#ffffff;fill-opacity:0.997239;fill-rule:evenodd;stroke-width:1.66656;stroke-linecap:square;stroke-miterlimit:0;stroke-dasharray:none;paint-order:markers fill stroke"
       d="m 97.973893,39.513815 c 4.869727,-0.335872 6.882857,-2.542368 6.084297,-6.576832 -0.46333,0.558642 -1.50851,1.130872 -2.2375,1.54938 0.3718,-5.051823 -1.07569,-8.196903 -3.33731,-10.313291 -0.480458,2.009737 -1.20268,4.296654 -2.523949,5.819606 -0.523058,-0.472433 -1.094046,-1.167208 -1.951369,-1.472513 -3.224575,5.981695 -0.794538,10.99365 3.965831,10.99365 z"
       id="path4889"
       sodipodi:nodetypes="ccccccc" /><path
       id="rect1583"
       style="opacity:1;fill:#fefefe;fill-opacity:0;stroke-width:0.264583"
       d="m 84.6,0 h 42.3832 V 42.383202 H 84.6 Z"
       inkscape:export-filename="../GitHub/Fussionics/assets/svg/passive_effects/unlink_block.svg"
       inkscape:export-xdpi="3.8699999"
       inkscape:export-ydpi="3.8699999" /></g></svg>
