<?xml version="1.0" encoding="UTF-8" standalone="no"?>
<!-- Created with Inkscape (http://www.inkscape.org/) -->

<svg
   width="42.383202mm"
   height="42.383202mm"
   viewBox="0 0 42.383202 42.383202"
   version="1.1"
   id="svg316"
   xml:space="preserve"
   inkscape:version="1.2.2 (732a01da63, 2022-12-09)"
   sodipodi:docname="Buff and debuff.svg"
   inkscape:export-filename="Nova pasta\Buff and debuff.png"
   inkscape:export-xdpi="3.8699999"
   inkscape:export-ydpi="3.8699999"
   xmlns:inkscape="http://www.inkscape.org/namespaces/inkscape"
   xmlns:sodipodi="http://sodipodi.sourceforge.net/DTD/sodipodi-0.dtd"
   xmlns:xlink="http://www.w3.org/1999/xlink"
   xmlns="http://www.w3.org/2000/svg"
   xmlns:svg="http://www.w3.org/2000/svg"><sodipodi:namedview
     id="namedview318"
     pagecolor="#7d7d7d"
     bordercolor="#000000"
     borderopacity="0.25"
     inkscape:showpageshadow="2"
     inkscape:pageopacity="0"
     inkscape:pagecheckerboard="0"
     inkscape:deskcolor="#666666"
     inkscape:document-units="mm"
     showgrid="true"
     inkscape:zoom="0.73851712"
     inkscape:cx="149.62416"
     inkscape:cy="82.59795"
     inkscape:window-width="1920"
     inkscape:window-height="1009"
     inkscape:window-x="-8"
     inkscape:window-y="-8"
     inkscape:window-maximized="1"
     inkscape:current-layer="layer1"><inkscape:grid
       type="xygrid"
       id="grid6760"
       spacingx="8.4666667"
       spacingy="8.4666667" /></sodipodi:namedview><defs
     id="defs313"><color-profile
       name="Apple-RGB"
       xlink:href="file:///usr/share/color/icc/colord/AppleRGB.icc"
       id="color-profile3878" /></defs><g
     inkscape:label="Camada 1"
     inkscape:groupmode="layer"
     id="layer1"><path
       id="rect38096"
       style="fill:#ffffff;fill-opacity:0.997239;fill-rule:evenodd;stroke:none;stroke-width:5.78258;stroke-linecap:round;stroke-linejoin:miter;stroke-miterlimit:4.8;stroke-dasharray:none;stroke-opacity:1"
       d="m 31.262864,14.930762 c -1.354626,0 -2.445329,1.090186 -2.445329,2.444812 v 1.399914 h -1.363741 c 0.03291,0.726914 0.05116,1.490931 0.05116,2.280998 0,0.373462 -0.0046,0.740479 -0.0124,1.101225 l 1.180289,1.18029 h 0.144694 v 0.144694 l 3.316077,3.316076 h 5.550566 c 1.354625,0 2.445328,-1.090702 2.445328,-2.445329 v -6.977868 c 0,-1.354626 -1.090703,-2.444812 -2.445328,-2.444812 z m -26.608712,0.0031 c -1.4064496,0 -2.5388631,1.132414 -2.5388631,2.538863 v 6.790284 c 0,1.406449 1.1324135,2.538863 2.5388631,2.538863 h 6.234245 c 1.40645,0 2.538863,-1.132414 2.538863,-2.538863 v -0.925008 h 1.288294 c -0.03291,-0.726945 -0.05064,-1.491412 -0.05064,-2.281515 0,-0.359104 0.0043,-0.712061 0.01137,-1.059367 l -1.221631,-1.221631 h -0.02739 v -0.02739 L 9.6130226,14.933862 Z" /><rect
       style="fill:#ffffff;fill-opacity:0.997239;fill-rule:evenodd;stroke-width:6.88893;stroke-linecap:square;stroke-miterlimit:0;stroke-dasharray:none;paint-order:markers fill stroke"
       id="rect31537"
       width="5.6892385"
       height="34.135429"
       x="-2.8397787"
       y="12.761488"
       transform="rotate(-45)" /><path
       id="rect1583"
       style="opacity:1;fill:#fefefe;fill-opacity:0;stroke-width:0.264583"
       d="M 0,0 H 42.383202 V 42.383202 H 0 Z" /></g></svg>
