<?xml version="1.0" encoding="UTF-8" standalone="no"?>
<!-- Created with Inkscape (http://www.inkscape.org/) -->

<svg
   width="134.18588mm"
   height="76.792114mm"
   viewBox="0 0 134.18588 76.792114"
   version="1.1"
   id="svg4283"
   xml:space="preserve"
   inkscape:version="1.2.2 (732a01da63, 2022-12-09)"
   sodipodi:docname="menu.svg"
   inkscape:export-filename="menu.svg"
   inkscape:export-xdpi="159.51199"
   inkscape:export-ydpi="159.51199"
   xmlns:inkscape="http://www.inkscape.org/namespaces/inkscape"
   xmlns:sodipodi="http://sodipodi.sourceforge.net/DTD/sodipodi-0.dtd"
   xmlns="http://www.w3.org/2000/svg"
   xmlns:svg="http://www.w3.org/2000/svg"><sodipodi:namedview
     id="namedview4285"
     pagecolor="#777777"
     bordercolor="#000000"
     borderopacity="0.25"
     inkscape:showpageshadow="2"
     inkscape:pageopacity="0"
     inkscape:pagecheckerboard="0"
     inkscape:deskcolor="#2f2f2f"
     inkscape:document-units="mm"
     showgrid="false"
     inkscape:zoom="0.25"
     inkscape:cx="554"
     inkscape:cy="852"
     inkscape:window-width="1920"
     inkscape:window-height="1009"
     inkscape:window-x="-8"
     inkscape:window-y="-8"
     inkscape:window-maximized="1"
     inkscape:current-layer="layer1" /><defs
     id="defs4280" /><g
     inkscape:groupmode="layer"
     id="layer2"
     inkscape:label="Button"
     transform="translate(-286.62382,-166.81386)"><path
       id="path52272"
       style="opacity:1;fill:#1b114a;fill-opacity:1;fill-rule:evenodd;stroke-width:7.8959;stroke-linecap:square;stroke-miterlimit:0;paint-order:markers fill stroke"
       d="m 286.62846,166.83219 v 5.2679 h 1.36684 v 22.39419 h -1.36684 v 38.77262 h 1.30276 v 9.17308 h 5.63376 v 1.12035 h -6.93652 v 0.0367 h 9.88932 v -1.09606 H 347.53 v 1.09606 h 14.3378 v -1.09606 h 58.9326 v 1.09606 h 0.004 v -46.91239 h -1.08262 v -25.4372 -3.16673 h -3.26595 -40.17533 v -1.24851 h 0.063 v 1.24851 h -1.90909 v -1.24851 h -37.32186 v 1.24851 h -44.58626 v -1.24851 z m 4.0473,3.67988 h 126.50597 v 69.50584 H 290.67576 Z m 129.04638,37.12435 h 1.06505 v 34.8646 h -1.06505 z"
       inkscape:export-filename="main_image\button\button_pressed.svg"
       inkscape:export-xdpi="191.41078"
       inkscape:export-ydpi="191.41078"
       sodipodi:nodetypes="ccccccccccccccccccccccccccccccccccccccccccccccc" /><path
       id="path52274"
       style="opacity:1;fill:#d6edff;fill-opacity:1;fill-rule:evenodd;stroke-width:5.28836;stroke-linecap:square;stroke-miterlimit:0;paint-order:markers fill stroke"
       d="m 380.04934,166.81387 v 1.26659 h 36.40685 3.26595 v 3.16673 36.39261 h 1.08556 V 172.536 l 0.002,-5.70611 -4.22179,-0.016 z m -8.393,0.003 v 1.26401 h 8.39173 v -1.26401 z m -83.66179,0.009 v 1.25471 h 52.82217 v -1.2547 z m -1.36764,0.005 v 32.17972 h 1.36839 V 166.8309 Z m 133.09523,40.80528 v 34.8646 h 1.07849 v -34.8646 z m -133.09833,-0.99471 v 36.91862 h 9.90097 v -1.12035 h -8.59356 v -35.79827 z m 9.89397,35.85925 v 1.09606 h 51.80597 v -1.09606 z m 64.7087,0 v 1.09606 h 59.57392 v -1.09606 z"
       sodipodi:nodetypes="cccccccccccccccccccccccccccccccccccccccccccccccc" /><path
       id="path52276"
       style="opacity:1;fill:#3740d3;fill-opacity:0.433735;fill-rule:evenodd;stroke-width:7.59305;stroke-linecap:square;stroke-miterlimit:0;paint-order:markers fill stroke"
       d="m 288.69153,168.79233 h 130.34219 v 73.07742 H 288.69153 Z"
       inkscape:export-filename="main_image\button\button_normal.svg"
       inkscape:export-xdpi="191.41078"
       inkscape:export-ydpi="191.41078"
       sodipodi:nodetypes="ccccc" /><path
       id="path52278"
       style="opacity:1;fill:#1b114a;fill-opacity:1;fill-rule:evenodd;stroke-width:5.28836;stroke-linecap:square;stroke-miterlimit:0;paint-order:markers fill stroke"
       d="m 378.916,166.82271 v 1.97721 h 37.52938 2.58775 v 2.45611 36.39261 h 1.76376 v -35.1038 l 0.002,-5.70611 -4.22179,-0.016 z m -8.393,0.003 v 1.97463 h 8.39173 v -1.97463 z m 48.51013,40.81971 v 34.23621 h 1.75669 v -34.23621 z m -59.50127,34.23611 v 1.72445 h 61.25773 v -1.72445 z"
       sodipodi:nodetypes="cccccccccccccccccccccccccc" /></g></svg>
