<?xml version="1.0" encoding="UTF-8" standalone="no"?>
<!-- Created with Inkscape (http://www.inkscape.org/) -->

<svg
   width="134.18588mm"
   height="76.783142mm"
   viewBox="0 0 134.18588 76.783142"
   version="1.1"
   id="svg4283"
   xml:space="preserve"
   inkscape:version="1.2.2 (732a01da63, 2022-12-09)"
   sodipodi:docname="menu.svg"
   inkscape:export-filename="menu.svg"
   inkscape:export-xdpi="159.51199"
   inkscape:export-ydpi="159.51199"
   xmlns:inkscape="http://www.inkscape.org/namespaces/inkscape"
   xmlns:sodipodi="http://sodipodi.sourceforge.net/DTD/sodipodi-0.dtd"
   xmlns="http://www.w3.org/2000/svg"
   xmlns:svg="http://www.w3.org/2000/svg"><sodipodi:namedview
     id="namedview4285"
     pagecolor="#777777"
     bordercolor="#000000"
     borderopacity="0.25"
     inkscape:showpageshadow="2"
     inkscape:pageopacity="0"
     inkscape:pagecheckerboard="0"
     inkscape:deskcolor="#2f2f2f"
     inkscape:document-units="mm"
     showgrid="false"
     inkscape:zoom="0.25"
     inkscape:cx="554"
     inkscape:cy="852"
     inkscape:window-width="1920"
     inkscape:window-height="1009"
     inkscape:window-x="-8"
     inkscape:window-y="-8"
     inkscape:window-maximized="1"
     inkscape:current-layer="layer1" /><defs
     id="defs4280" /><g
     inkscape:groupmode="layer"
     id="layer2"
     inkscape:label="Button"
     transform="translate(-3.806486,-5.4180367)"><path
       id="path46113"
       style="opacity:1;fill:#1b114a;fill-opacity:1;fill-rule:evenodd;stroke-width:7.8959;stroke-linecap:square;stroke-miterlimit:0;paint-order:markers fill stroke"
       d="M 3.8111369,5.4363607 V 10.704256 H 5.1779785 V 21.311865 H 3.8111369 v 50.5592 h 1.3027628 v 9.173084 h 5.6337643 v 1.120345 H 3.8111369 v 0.03669 h 9.8893191 v -1.096057 h 28.374495 v 1.096057 h 56.432751 v -1.096057 h 39.475378 v 1.096057 h 0.004 V 35.288802 h -1.08262 V 9.8515951 6.6848633 H 133.63851 112.9204 V 5.4363607 h 0.063 v 1.2485026 h -1.90909 V 5.4363607 H 31.6575 V 6.6848633 H 9.7089681 V 5.4363607 Z M 5.8740601,7.3964478 H 136.21649 V 80.474158 H 5.8740601 Z M 136.90482,46.240588 h 1.06505 v 34.864597 h -1.06505 z"
       inkscape:export-filename="main_image\button\button_normal.svg"
       inkscape:export-xdpi="191.41078"
       inkscape:export-ydpi="191.41078"
       sodipodi:nodetypes="ccccccccccccccccccccccccccccccccccccccccccccccc" /><path
       id="rect40150"
       style="opacity:1;fill:#478bff;fill-opacity:1;fill-rule:evenodd;stroke-width:5.28836;stroke-linecap:square;stroke-miterlimit:0;paint-order:markers fill stroke"
       d="m 116.68924,5.4180369 v 1.9772108 h 16.94963 2.58775 V 9.8513579 46.243969 h 1.76376 v -35.1038 l 0.002,-5.7061121 -4.22179,-0.01602 z m -8.393,0.0026 v 1.9746308 h 8.39173 V 5.4206409 Z M 5.8717664,5.4299369 V 7.3915805 H 35.361667 V 5.4299429 Z M 3.809586,5.4350669 V 25.828204 H 5.8725092 V 5.4350669 Z M 136.22662,46.240352 v 34.236212 h 1.75669 V 46.240352 Z M 3.806486,64.328685 v 17.872113 h 9.893671 V 80.472415 H 5.8745771 v -16.14373 z m 9.89397,16.146078 v 1.726184 h 29.168245 v -1.726184 z m 84.165922,0.0017 v 1.724442 h 40.116702 v -1.724442 z"
       sodipodi:nodetypes="cccccccccccccccccccccccccccccccccccccccccccccccc" /><path
       id="rect4542"
       style="opacity:1;fill:#0e1445;fill-opacity:0.216867;fill-rule:evenodd;stroke-width:7.59305;stroke-linecap:square;stroke-miterlimit:0;paint-order:markers fill stroke"
       d="M 5.874211,7.3964969 H 136.2164 V 80.473916 H 5.874211 Z"
       inkscape:export-filename="main_image\button\button_normal.svg"
       inkscape:export-xdpi="191.41078"
       inkscape:export-ydpi="191.41078"
       sodipodi:nodetypes="ccccc" /></g></svg>
