<?xml version="1.0" encoding="UTF-8" standalone="no"?>
<!-- Created with Inkscape (http://www.inkscape.org/) -->

<svg
   width="134.18588mm"
   height="76.783142mm"
   viewBox="0 0 134.18588 76.783142"
   version="1.1"
   id="svg4283"
   xml:space="preserve"
   inkscape:version="1.2.2 (732a01da63, 2022-12-09)"
   sodipodi:docname="menu.svg"
   inkscape:export-filename="menu.svg"
   inkscape:export-xdpi="159.51199"
   inkscape:export-ydpi="159.51199"
   xmlns:inkscape="http://www.inkscape.org/namespaces/inkscape"
   xmlns:sodipodi="http://sodipodi.sourceforge.net/DTD/sodipodi-0.dtd"
   xmlns="http://www.w3.org/2000/svg"
   xmlns:svg="http://www.w3.org/2000/svg"><sodipodi:namedview
     id="namedview4285"
     pagecolor="#777777"
     bordercolor="#000000"
     borderopacity="0.25"
     inkscape:showpageshadow="2"
     inkscape:pageopacity="0"
     inkscape:pagecheckerboard="0"
     inkscape:deskcolor="#2f2f2f"
     inkscape:document-units="mm"
     showgrid="false"
     inkscape:zoom="0.7385171"
     inkscape:cx="421.79118"
     inkscape:cy="315.49709"
     inkscape:window-width="1920"
     inkscape:window-height="1009"
     inkscape:window-x="-8"
     inkscape:window-y="-8"
     inkscape:window-maximized="1"
     inkscape:current-layer="layer1" /><defs
     id="defs4280" /><g
     inkscape:label="Camada 1"
     inkscape:groupmode="layer"
     id="layer1"
     transform="translate(-286.62382,-5.4180367)"><path
       id="path49088"
       style="opacity:1;fill:#1b114a;fill-opacity:1;fill-rule:evenodd;stroke-width:7.8959;stroke-linecap:square;stroke-miterlimit:0;paint-order:markers fill stroke"
       d="m 286.62846,5.4363607 v 5.2678953 h 1.36684 v 22.394195 h -1.36684 v 38.772614 h 1.30276 v 9.173084 h 5.63376 v 1.120345 h -6.93652 v 0.03669 h 9.88932 V 81.105127 H 347.53 v 1.096057 h 14.3378 v -1.096057 h 58.9326 v 1.096057 h 0.004 V 35.288802 h -1.08262 V 9.8515951 6.6848633 H 416.45583 376.2805 V 5.4363607 h 0.063 v 1.2485026 h -1.90909 V 5.4363607 H 337.11255 V 6.6848633 H 292.52629 V 5.4363607 Z m 4.0473,3.6798788 H 417.18173 V 78.622075 H 290.67576 Z M 419.72214,46.240588 h 1.06505 v 34.864597 h -1.06505 z"
       inkscape:export-filename="main_image\button\button_select.svg"
       inkscape:export-xdpi="191.41078"
       inkscape:export-ydpi="191.41078"
       sodipodi:nodetypes="ccccccccccccccccccccccccccccccccccccccccccccccc" /><path
       id="path49090"
       style="opacity:1;fill:#d6edff;fill-opacity:1;fill-rule:evenodd;stroke-width:5.28836;stroke-linecap:square;stroke-miterlimit:0;paint-order:markers fill stroke"
       d="m 380.04934,5.4180369 v 1.26659 h 36.40685 3.26595 v 3.166731 36.3926111 h 1.08556 v -35.1038 l 0.002,-5.7061121 -4.22179,-0.01602 z m -8.393,0.0026 v 1.26401 h 8.39173 v -1.264006 z m -83.66179,0.0093 v 1.25471 h 52.82217 v -1.254704 z m -1.36764,0.00513 V 37.61479 h 1.36839 V 5.4350669 Z M 419.72214,46.240352 v 34.864597 h 1.07849 V 46.240352 Z M 286.62381,45.245641 v 36.918616 h 9.90097 v -1.120345 h -8.59356 V 45.245641 Z m 9.89397,35.859249 v 1.096057 h 51.80597 V 81.10489 Z m 64.7087,0 v 1.096057 H 420.8004 V 81.10489 Z"
       sodipodi:nodetypes="cccccccccccccccccccccccccccccccccccccccccccccccc" /><path
       id="path49092"
       style="opacity:1;fill:#3740d3;fill-opacity:0.433735;fill-rule:evenodd;stroke-width:7.59305;stroke-linecap:square;stroke-miterlimit:0;paint-order:markers fill stroke"
       d="M 288.69153,7.3964969 H 419.03372 V 80.473916 H 288.69153 Z"
       inkscape:export-filename="main_image\button\button_normal.svg"
       inkscape:export-xdpi="191.41078"
       inkscape:export-ydpi="191.41078"
       sodipodi:nodetypes="ccccc" /></g></svg>
