<?xml version="1.0" encoding="UTF-8" standalone="no"?>
<!-- Created with Inkscape (http://www.inkscape.org/) -->

<svg
   width="134.18588mm"
   height="76.783264mm"
   viewBox="0 0 134.18588 76.783264"
   version="1.1"
   id="svg4283"
   xml:space="preserve"
   inkscape:version="1.2.2 (732a01da63, 2022-12-09)"
   sodipodi:docname="menu.svg"
   inkscape:export-filename="menu.svg"
   inkscape:export-xdpi="159.51199"
   inkscape:export-ydpi="159.51199"
   xmlns:inkscape="http://www.inkscape.org/namespaces/inkscape"
   xmlns:sodipodi="http://sodipodi.sourceforge.net/DTD/sodipodi-0.dtd"
   xmlns="http://www.w3.org/2000/svg"
   xmlns:svg="http://www.w3.org/2000/svg"><sodipodi:namedview
     id="namedview4285"
     pagecolor="#777777"
     bordercolor="#000000"
     borderopacity="0.25"
     inkscape:showpageshadow="2"
     inkscape:pageopacity="0"
     inkscape:pagecheckerboard="0"
     inkscape:deskcolor="#2f2f2f"
     inkscape:document-units="mm"
     showgrid="false"
     inkscape:zoom="0.25"
     inkscape:cx="554"
     inkscape:cy="852"
     inkscape:window-width="1920"
     inkscape:window-height="1009"
     inkscape:window-x="-8"
     inkscape:window-y="-8"
     inkscape:window-maximized="1"
     inkscape:current-layer="layer1" /><defs
     id="defs4280" /><g
     inkscape:groupmode="layer"
     id="layer2"
     inkscape:label="Button"
     transform="translate(-3.806486,-165.56594)"><path
       id="path52051"
       style="opacity:1;fill:#1b114a;fill-opacity:1;fill-rule:evenodd;stroke-width:7.8959;stroke-linecap:square;stroke-miterlimit:0;paint-order:markers fill stroke"
       d="m 3.8111369,165.58426 v 5.2679 h 1.3668416 v 10.60761 H 3.8111369 v 50.5592 h 1.3027628 v 9.17308 h 5.6337643 v 1.12034 H 3.8111369 v 0.0367 h 9.8893191 v -1.09605 h 28.374495 v 1.09605 h 56.432751 v -1.09605 h 39.475378 v 1.09605 h 0.004 V 195.4367 h -1.08262 v -25.4372 -3.16674 h -3.26595 -20.71811 v -1.2485 h 0.063 v 1.2485 h -1.90909 v -1.2485 H 31.6575 v 1.2485 H 9.7089681 v -1.2485 z m 2.0629232,1.96009 H 136.21649 v 73.07771 H 5.8740601 Z M 136.90482,206.38849 h 1.06505 v 34.8646 h -1.06505 z"
       inkscape:export-filename="main_image\button\button_normal.svg"
       inkscape:export-xdpi="191.41078"
       inkscape:export-ydpi="191.41078"
       sodipodi:nodetypes="ccccccccccccccccccccccccccccccccccccccccccccccc" /><path
       id="path52053"
       style="opacity:1;fill:#478bff;fill-opacity:1;fill-rule:evenodd;stroke-width:5.28836;stroke-linecap:square;stroke-miterlimit:0;paint-order:markers fill stroke"
       d="m 5.8717664,165.57784 v 1.96164 H 35.361667 v -1.96164 z m -2.0621804,0.005 v 20.39313 h 2.0629232 v -20.39313 z m -0.0031,58.89362 v 17.87211 h 9.893671 v -1.72838 H 5.8745771 v -16.14373 z m 9.89397,16.14607 v 1.72619 h 29.168245 v -1.72619 z"
       sodipodi:nodetypes="cccccccccccccccccccccc" /><path
       id="path52055"
       style="opacity:1;fill:#0e1445;fill-opacity:0.216867;fill-rule:evenodd;stroke-width:7.59305;stroke-linecap:square;stroke-miterlimit:0;paint-order:markers fill stroke"
       d="M 5.874211,167.5444 H 136.2164 v 73.07742 H 5.874211 Z"
       inkscape:export-filename="main_image\button\button_normal.svg"
       inkscape:export-xdpi="191.41078"
       inkscape:export-ydpi="191.41078"
       sodipodi:nodetypes="ccccc" /><path
       id="path52057"
       style="opacity:1;fill:#1b114a;fill-opacity:1;fill-rule:evenodd;stroke-width:5.28836;stroke-linecap:square;stroke-miterlimit:0;paint-order:markers fill stroke"
       d="m 116.68924,165.56594 v 1.97721 h 16.94963 2.58775 v 2.45611 36.39261 h 1.76376 v -35.1038 l 0.002,-5.70611 -4.22179,-0.016 z m -8.393,0.003 v 1.97463 h 8.39173 v -1.97463 z m 27.93038,40.81971 v 34.23621 h 1.75669 v -34.23621 z m -38.360242,34.23611 v 1.72445 h 40.116702 v -1.72445 z"
       sodipodi:nodetypes="cccccccccccccccccccccccccc" /></g></svg>
