<?xml version="1.0" encoding="UTF-8" standalone="no"?>
<!-- Created with Inkscape (http://www.inkscape.org/) -->

<svg
   width="42.383202mm"
   height="42.383205mm"
   viewBox="0 0 42.383202 42.383205"
   version="1.1"
   id="svg316"
   xml:space="preserve"
   inkscape:version="1.2.2 (732a01da63, 2022-12-09)"
   sodipodi:docname="Buff and debuff.svg"
   inkscape:export-filename="Nova pasta\Buff and debuff.png"
   inkscape:export-xdpi="3.8699999"
   inkscape:export-ydpi="3.8699999"
   xmlns:inkscape="http://www.inkscape.org/namespaces/inkscape"
   xmlns:sodipodi="http://sodipodi.sourceforge.net/DTD/sodipodi-0.dtd"
   xmlns:xlink="http://www.w3.org/1999/xlink"
   xmlns="http://www.w3.org/2000/svg"
   xmlns:svg="http://www.w3.org/2000/svg"><sodipodi:namedview
     id="namedview318"
     pagecolor="#7d7d7d"
     bordercolor="#000000"
     borderopacity="0.25"
     inkscape:showpageshadow="2"
     inkscape:pageopacity="0"
     inkscape:pagecheckerboard="0"
     inkscape:deskcolor="#666666"
     inkscape:document-units="mm"
     showgrid="true"
     inkscape:zoom="0.73851712"
     inkscape:cx="149.62416"
     inkscape:cy="82.59795"
     inkscape:window-width="1920"
     inkscape:window-height="1009"
     inkscape:window-x="-8"
     inkscape:window-y="-8"
     inkscape:window-maximized="1"
     inkscape:current-layer="layer1"><inkscape:grid
       type="xygrid"
       id="grid6760"
       spacingx="8.4666667"
       spacingy="8.4666667" /></sodipodi:namedview><defs
     id="defs313"><color-profile
       name="Apple-RGB"
       xlink:href="file:///usr/share/color/icc/colord/AppleRGB.icc"
       id="color-profile4318" /></defs><g
     inkscape:label="Camada 1"
     inkscape:groupmode="layer"
     id="layer1"
     transform="translate(-42.299996,-42.299998)"><path
       id="path28203"
       style="fill:#ffffff;fill-opacity:1;fill-rule:evenodd;stroke:none;stroke-width:1.82729;stroke-linecap:square;stroke-linejoin:miter;stroke-miterlimit:4.8;stroke-dasharray:none;stroke-opacity:1"
       d="m 75.533138,46.136945 -9.12193,1.848466 -10.703221,19.830831 c -1.29609,-0.747873 -2.3839,-1.17564 -3.75481,-1.022676 0,0 -1.47112,0.63114 -0.5302,1.850533 0.57807,0.74914 1.1243,0.532921 1.47071,0.239778 0.13362,-0.384469 0.3851,-0.70426 0.69867,-0.951879 0.89908,-0.71004 2.10426,0.1041 3.30729,0.934826 l 13.149881,-18.045927 6.46058,-0.203316 z m -21.425051,24.887887 -5.17488,7.379395 -1.43506,0.224792 c 0,0 0.0999,0.822861 0.35864,1.603003 -0.13442,-0.779677 -0.1695,-1.493449 -0.1695,-1.493449 l 1.41542,-0.104903 6.04769,-6.842477 -0.75086,-0.713651 c 0,0 -0.12269,-0.01481 -0.29145,-0.05271 z m 6.16436,-0.739338 -0.46354,0.377755 c 0.5416,0.568101 0.93152,1.140094 1.18805,1.707906 -0.0433,-0.696367 -0.2751,-1.397771 -0.72451,-2.085661 z m -0.98659,3.012926 c -0.0427,0.281151 0.0198,0.583569 0.34055,0.824239 0.12652,0.09494 0.24524,0.169117 0.3576,0.227376 0.10979,-0.157467 -0.39265,-1.323106 -0.39265,-1.323106 z"
       sodipodi:nodetypes="ccccsccccccccccccccccccccsccc" /><path
       style="fill:#ffffff;fill-opacity:1;fill-rule:evenodd;stroke:none;stroke-width:1.78492;stroke-linecap:square;stroke-linejoin:miter;stroke-miterlimit:4.8;stroke-dasharray:none;stroke-opacity:1"
       d="m 48.599077,81.867695 c -0.67281,-0.714717 -0.57508,-2.888051 -0.57508,-2.888051 l 1.41958,0.01383 7.20656,-7.329628 -1.43219,-1.555076 c 0,0 -1.13492,1.271073 -1.80916,-0.116546 -0.50558,-1.040508 0.28231,-1.736807 0.80798,-1.697063 1.26396,0.09556 2.32603,0.659265 3.45543,1.587629 l 13.497531,-17.382022 9.08937,-0.316194 -0.87636,8.966923 -18.203441,12.445745 c 1.058591,1.314848 1.425191,2.590199 1.250761,3.756081 0,0 -0.72775,1.497123 -1.992201,0.173198 -0.70054,-0.733496 0.32712,-1.592123 0.32712,-1.592123 l -0.92206,-0.952632 -0.50626,-0.523047 -7.66593,6.769452 -0.0658,1.429338 c 0,0 -2.29582,-0.03551 -3.00594,-0.789801 z"
       id="path28201"
       sodipodi:nodetypes="cccccssccccccsccccccc"
       inkscape:export-filename="Nova pasta\path28201.png"
       inkscape:export-xdpi="5.0791678"
       inkscape:export-ydpi="5.0791678" /><path
       id="rect1583"
       style="opacity:1;fill:#fefefe;fill-opacity:0;stroke-width:0.264583"
       d="M 42.3,42.3 H 84.6832 V 84.683202 H 42.3 Z"
       inkscape:export-filename="../GitHub/Fussionics/assets/svg/passive_effects/imortal.svg"
       inkscape:export-xdpi="3.8699999"
       inkscape:export-ydpi="3.8699999" /></g></svg>
