<?xml version="1.0" encoding="UTF-8" standalone="no"?>
<!-- Created with Inkscape (http://www.inkscape.org/) -->

<svg
   width="42.383202mm"
   height="42.383205mm"
   viewBox="0 0 42.383202 42.383205"
   version="1.1"
   id="svg316"
   xml:space="preserve"
   inkscape:version="1.2.2 (732a01da63, 2022-12-09)"
   sodipodi:docname="Buff and debuff.svg"
   inkscape:export-filename="Nova pasta\Buff and debuff.png"
   inkscape:export-xdpi="3.8699999"
   inkscape:export-ydpi="3.8699999"
   xmlns:inkscape="http://www.inkscape.org/namespaces/inkscape"
   xmlns:sodipodi="http://sodipodi.sourceforge.net/DTD/sodipodi-0.dtd"
   xmlns:xlink="http://www.w3.org/1999/xlink"
   xmlns="http://www.w3.org/2000/svg"
   xmlns:svg="http://www.w3.org/2000/svg"><sodipodi:namedview
     id="namedview318"
     pagecolor="#7d7d7d"
     bordercolor="#000000"
     borderopacity="0.25"
     inkscape:showpageshadow="2"
     inkscape:pageopacity="0"
     inkscape:pagecheckerboard="0"
     inkscape:deskcolor="#666666"
     inkscape:document-units="mm"
     showgrid="true"
     inkscape:zoom="0.73851712"
     inkscape:cx="149.62416"
     inkscape:cy="82.59795"
     inkscape:window-width="1920"
     inkscape:window-height="1009"
     inkscape:window-x="-8"
     inkscape:window-y="-8"
     inkscape:window-maximized="1"
     inkscape:current-layer="layer1"><inkscape:grid
       type="xygrid"
       id="grid6760"
       spacingx="8.4666667"
       spacingy="8.4666667" /></sodipodi:namedview><defs
     id="defs313"><color-profile
       name="Apple-RGB"
       xlink:href="file:///usr/share/color/icc/colord/AppleRGB.icc"
       id="color-profile4230" /></defs><g
     inkscape:label="Camada 1"
     inkscape:groupmode="layer"
     id="layer1"
     transform="translate(0,-42.299998)"><path
       id="rect460"
       style="opacity:1;fill:#fefefe;fill-opacity:1;stroke-width:0.248343"
       d="m 10.263276,46.250458 c -3.4729673,0 -6.2687354,2.796254 -6.2687354,6.269222 v 21.185359 c 0,3.47298 2.7957681,6.26922 6.2687354,6.26922 h 9.362361 c -5.102175,-6.4103 -6.658228,-16.91742 -6.658228,-26.736226 0,0.04037 8.181743,6.394976 14.82107,0 3.039669,3.211578 7.084226,3.054957 10.209736,2.178827 v -2.89718 c 0,-3.472968 -2.795768,-6.269222 -6.268736,-6.269222 z" /><path
       style="opacity:1;fill:#ffffff;fill-opacity:1;stroke-width:0.356193"
       d="M 27.848522,82.853129 C 17.97949,80.208719 15.38788,67.455769 15.38788,55.852527 c 0,0.03382 6.854267,5.357452 12.416418,0 4.787151,5.057892 12.54947,0.143069 12.578746,0 0,11.556722 -2.467731,24.303222 -12.534522,27.000602 z"
       id="path1451"
       sodipodi:nodetypes="ccccc" /><path
       id="rect1583"
       style="opacity:1;fill:#fefefe;fill-opacity:0;stroke-width:0.264583"
       d="M 0,42.3 H 42.3832 V 84.683202 H 0 Z"
       inkscape:export-filename="../GitHub/Fussionics/assets/svg/passive_effects/attack_bloq.svg"
       inkscape:export-xdpi="3.8699999"
       inkscape:export-ydpi="3.8699999" /></g></svg>
